<svg width="20" height="20" viewBox="0 0 20 20" fill="none" xmlns="http://www.w3.org/2000/svg">
<path d="M2.1421 2.00002L4.00913 14.1357C4.02271 14.2359 4.05113 14.3313 4.0921 14.4198C4.21543 14.6861 4.45246 14.889 4.74088 14.9661C4.82899 14.9898 4.92133 15.0016 5.01578 15H16C16.4416 15 16.8309 14.7103 16.9578 14.2874L19.9578 4.28736C20.0487 3.98459 19.991 3.65669 19.8023 3.40308C19.6136 3.14948 19.3161 3.00002 19 3.00002H4.31948L3.99058 0.862207C3.97826 0.772825 3.95413 0.687212 3.91981 0.606996C3.85751 0.46092 3.76213 0.334387 3.64429 0.235207C3.53497 0.143016 3.40561 0.0738391 3.26367 0.0351428C3.17434 0.0106786 3.0806 -0.00157508 2.9847 1.52593e-05H1C0.447715 1.52593e-05 0 0.44773 0 1.00002C0 1.5523 0.447715 2.00002 1 2.00002H2.1421ZM5.85794 13L4.62717 5.00002H17.656L15.256 13H5.85794Z" fill="#0D0D0D"/>
<path d="M8 18C8 19.1046 7.10457 20 6 20C4.89543 20 4 19.1046 4 18C4 16.8954 4.89543 16 6 16C7.10457 16 8 16.8954 8 18Z" fill="#0D0D0D"/>
<path d="M17 18C17 19.1046 16.1046 20 15 20C13.8954 20 13 19.1046 13 18C13 16.8954 13.8954 16 15 16C16.1046 16 17 16.8954 17 18Z" fill="#0D0D0D"/>
</svg>
