<svg width="19" height="18" viewBox="0 0 19 18" fill="none" xmlns="http://www.w3.org/2000/svg">
<path d="M12 16C11.4477 16 11 16.4477 11 17C11 17.5523 11.4477 18 12 18H17C18.1046 18 19 17.1046 19 16V2C19 0.895431 18.1046 0 17 0H12C11.4477 0 11 0.447714 11 1C11 1.55228 11.4477 2 12 2H17V16H12Z" fill="#0D0D0D"/>
<path d="M13.7136 9.70055C13.8063 9.6062 13.8764 9.49805 13.9241 9.38278C13.9727 9.26575 13.9996 9.1375 14 9.003L14 9L14 8.997C13.9992 8.74208 13.9016 8.48739 13.7071 8.29289L9.70711 4.29289C9.31658 3.90237 8.68342 3.90237 8.29289 4.29289C7.90237 4.68342 7.90237 5.31658 8.29289 5.70711L10.5858 8H1C0.447715 8 0 8.44771 0 9C0 9.55229 0.447715 10 1 10H10.5858L8.29289 12.2929C7.90237 12.6834 7.90237 13.3166 8.29289 13.7071C8.68342 14.0976 9.31658 14.0976 9.70711 13.7071L13.7064 9.70782L13.7136 9.70055Z" fill="#0D0D0D"/>
</svg>
