<?xml version="1.0" encoding="UTF-8" standalone="no"?>
<!DOCTYPE svg PUBLIC "-//W3C//DTD SVG 1.1//EN" "http://www.w3.org/Graphics/SVG/1.1/DTD/svg11.dtd">
<!-- Created with Vectornator (http://vectornator.io/) -->
<svg height="100%" stroke-miterlimit="10" style="fill-rule:nonzero;clip-rule:evenodd;stroke-linecap:round;stroke-linejoin:round;" version="1.1" viewBox="0 0 16 12" width="100%" xml:space="preserve" xmlns="http://www.w3.org/2000/svg" xmlns:xlink="http://www.w3.org/1999/xlink">
<defs/>
<clipPath id="ArtboardFrame">
<rect height="12" width="16" x="0" y="0"/>
</clipPath>
<g clip-path="url(#ArtboardFrame)" id="Untitled">
<path d="M1.5 0L10.5 0C11.3284 0 12 0.447715 12 1L12 1C12 1.55228 11.3284 2 10.5 2L1.5 2C0.671573 2 0 1.55228 0 1L0 1C0 0.447715 0.671573 0 1.5 0Z" fill="#0d0d0d" fill-rule="nonzero" opacity="1" stroke="none"/>
<path d="M1 5L15 5C15.5523 5 16 5.44772 16 6L16 6C16 6.55228 15.5523 7 15 7L1 7C0.447715 7 0 6.55228 0 6L0 6C0 5.44772 0.447715 5 1 5Z" fill="#0d0d0d" fill-rule="nonzero" opacity="1" stroke="none"/>
<path d="M5.5 9.99837L14.5 9.99837C15.3285 9.99837 16 10.4461 16 10.9984L16 10.9984C16 11.5507 15.3285 11.9984 14.5 11.9984L5.5 11.9984C4.67157 11.9984 4 11.5507 4 10.9984L4 10.9984C4 10.4461 4.67157 9.99837 5.5 9.99837Z" fill="#0d0d0d" fill-rule="nonzero" opacity="1" stroke="none"/>
<path d="M14 1C14 0.447715 14.4477 0 15 0C15.5523 0 16 0.447715 16 1C16 1.55228 15.5523 2 15 2C14.4477 2 14 1.55228 14 1Z" fill="#0d0d0d" fill-rule="nonzero" opacity="1" stroke="none"/>
<path d="M-2.22045e-16 11C-2.22045e-16 10.4477 0.447715 10 1 10C1.55228 10 2 10.4477 2 11C2 11.5523 1.55228 12 1 12C0.447715 12-2.22045e-16 11.5523-2.22045e-16 11Z" fill="#0d0d0d" fill-rule="nonzero" opacity="1" stroke="none"/>
</g>
</svg>
