<?xml version="1.0" encoding="UTF-8" standalone="no"?>
<!DOCTYPE svg PUBLIC "-//W3C//DTD SVG 1.1//EN" "http://www.w3.org/Graphics/SVG/1.1/DTD/svg11.dtd">
<!-- Created with Vectornator (http://vectornator.io/) -->
<svg height="100%" stroke-miterlimit="10" style="fill-rule:nonzero;clip-rule:evenodd;stroke-linecap:round;stroke-linejoin:round;" version="1.1" viewBox="0 0 14 14" width="100%" xml:space="preserve" xmlns="http://www.w3.org/2000/svg" xmlns:xlink="http://www.w3.org/1999/xlink">
<defs/>
<clipPath id="ArtboardFrame">
<rect height="14" width="14" x="0" y="0"/>
</clipPath>
<g clip-path="url(#ArtboardFrame)" id="Untitled">
<path d="M0.292893 0.292893C0.683417-0.0976311 1.31658-0.0976311 1.70711 0.292893L7 5.58579L12.2929 0.292893C12.6834-0.0976311 13.3166-0.0976311 13.7071 0.292893C14.0976 0.683417 14.0976 1.31658 13.7071 1.70711L8.41421 7L13.7071 12.2929C14.0976 12.6834 14.0976 13.3166 13.7071 13.7071C13.3166 14.0976 12.6834 14.0976 12.2929 13.7071L7 8.41421L1.70711 13.7071C1.31658 14.0976 0.683417 14.0976 0.292893 13.7071C-0.0976311 13.3166-0.0976311 12.6834 0.292893 12.2929L5.58579 7L0.292893 1.70711C-0.0976311 1.31658-0.0976311 0.683417 0.292893 0.292893Z" fill="#0d0d0d" fill-rule="nonzero" opacity="0" stroke="none"/>
<path d="M11.7207 2.27934L11.7207 2.27934C12.0931 2.65179 12.0931 3.25565 11.7207 3.6281L3.6281 11.7207C3.25565 12.0931 2.65179 12.0931 2.27934 11.7207L2.27934 11.7207C1.90689 11.3482 1.90689 10.7444 2.27934 10.3719L10.3719 2.27934C10.7444 1.90689 11.3482 1.90689 11.7207 2.27934Z" fill="#0d0d0d" fill-rule="nonzero" opacity="1" stroke="none"/>
<path d="M10.3719 11.7207L2.27934 3.6281C1.90689 3.25565 1.90689 2.65179 2.27934 2.27934L2.27934 2.27934C2.65179 1.90689 3.25565 1.90689 3.6281 2.27934L11.7207 10.3719C12.0931 10.7444 12.0931 11.3482 11.7207 11.7207L11.7207 11.7207C11.3482 12.0931 10.7444 12.0931 10.3719 11.7207Z" fill="#0d0d0d" fill-rule="nonzero" opacity="1" stroke="none"/>
<path d="M12 1C12 0.447715 12.4477 0 13 0C13.5523 0 14 0.447715 14 1C14 1.55228 13.5523 2 13 2C12.4477 2 12 1.55228 12 1Z" fill="#0d0d0d" fill-rule="nonzero" opacity="1" stroke="none"/>
<path d="M12 13C12 12.4477 12.4477 12 13 12C13.5523 12 14 12.4477 14 13C14 13.5523 13.5523 14 13 14C12.4477 14 12 13.5523 12 13Z" fill="#0d0d0d" fill-rule="nonzero" opacity="1" stroke="none"/>
<path d="M0 1C0 0.447715 0.447715 0 1 0C1.55228 0 2 0.447715 2 1C2 1.55228 1.55228 2 1 2C0.447715 2 0 1.55228 0 1Z" fill="#0d0d0d" fill-rule="nonzero" opacity="1" stroke="none"/>
<path d="M0 13C0 12.4477 0.447715 12 1 12C1.55228 12 2 12.4477 2 13C2 13.5523 1.55228 14 1 14C0.447715 14 0 13.5523 0 13Z" fill="#0d0d0d" fill-rule="nonzero" opacity="1" stroke="none"/>
</g>
</svg>
