<?xml version="1.0" encoding="UTF-8" standalone="no"?>
<!DOCTYPE svg PUBLIC "-//W3C//DTD SVG 1.1//EN" "http://www.w3.org/Graphics/SVG/1.1/DTD/svg11.dtd">
<!-- Created with Vectornator (http://vectornator.io/) -->
<svg height="100%" stroke-miterlimit="10" style="fill-rule:nonzero;clip-rule:evenodd;stroke-linecap:round;stroke-linejoin:round;" version="1.1" viewBox="0 0 2560 1440" width="100%" xml:space="preserve" xmlns="http://www.w3.org/2000/svg" xmlns:vectornator="http://vectornator.io" xmlns:xlink="http://www.w3.org/1999/xlink">
<defs>
<clipPath id="TextBounds">
<rect height="113" width="266.74" x="1528.72" y="619.059"/>
</clipPath>
</defs>
<clipPath id="ArtboardFrame">
<rect height="1440" width="2560" x="0" y="0"/>
</clipPath>
<g clip-path="url(#ArtboardFrame)" id="Layer-1" vectornator:layerName="Layer 1">
<path d="M-216.832-189.701L2655.63-189.701L2655.63 1640.17L-216.832 1640.17L-216.832-189.701Z" fill="#0f0f0f" fill-rule="nonzero" opacity="1" stroke="none"/>
<path d="M2809.67 725.029L2965.84 725.029L2965.84 729.155L2809.67 729.155L2809.67 725.029Z" fill="#0f0f0f" fill-rule="nonzero" opacity="1" stroke="none"/>
</g>
<g id="Layer-7" vectornator:layerName="Layer 7"/>
<g id="Layer-2" vectornator:layerName="Layer 2"/>
<g id="Layer-4" vectornator:layerName="Layer 4">
<path d="M738.574 667.419L738.574 656.219L762.494 656.219C763.561 656.219 764.521 655.953 765.374 655.419C766.228 654.886 766.908 654.193 767.414 653.339C767.921 652.486 768.174 651.553 768.174 650.539C768.174 649.473 767.921 648.513 767.414 647.659C766.908 646.806 766.228 646.113 765.374 645.579C764.521 645.046 763.561 644.779 762.494 644.779L753.854 644.779C750.601 644.779 747.641 644.139 744.974 642.859C742.308 641.579 740.188 639.699 738.614 637.219C737.041 634.739 736.254 631.766 736.254 628.299C736.254 624.886 737.001 621.926 738.494 619.419C739.988 616.913 742.014 614.953 744.574 613.539C747.134 612.126 749.961 611.419 753.054 611.419L777.774 611.419L777.774 622.619L754.574 622.619C753.614 622.619 752.734 622.859 751.934 623.339C751.134 623.819 750.521 624.459 750.094 625.259C749.668 626.059 749.454 626.939 749.454 627.899C749.454 628.859 749.668 629.726 750.094 630.499C750.521 631.273 751.134 631.899 751.934 632.379C752.734 632.859 753.614 633.099 754.574 633.099L763.614 633.099C767.188 633.099 770.294 633.779 772.934 635.139C775.574 636.499 777.628 638.393 779.094 640.819C780.561 643.246 781.294 646.086 781.294 649.339C781.294 653.179 780.534 656.446 779.014 659.139C777.494 661.833 775.454 663.886 772.894 665.299C770.334 666.713 767.508 667.419 764.414 667.419L738.574 667.419Z" fill="#ffffff" fill-rule="nonzero" opacity="1" stroke="none"/>
<path d="M804.974 668.379C801.348 668.379 798.148 667.446 795.374 665.579C792.601 663.713 790.441 661.193 788.894 658.019C787.348 654.846 786.574 651.259 786.574 647.259C786.574 643.099 787.481 639.379 789.294 636.099C791.108 632.819 793.681 630.219 797.014 628.299C800.348 626.379 804.281 625.419 808.814 625.419C813.401 625.419 817.308 626.366 820.534 628.259C823.761 630.153 826.241 632.739 827.974 636.019C829.708 639.299 830.574 642.966 830.574 647.019L830.574 667.419L818.414 667.419L818.414 660.859L818.094 660.859C817.348 662.299 816.388 663.593 815.214 664.739C814.041 665.886 812.614 666.779 810.934 667.419C809.254 668.059 807.268 668.379 804.974 668.379ZM808.654 657.659C810.521 657.659 812.161 657.193 813.574 656.259C814.988 655.326 816.068 654.033 816.814 652.379C817.561 650.726 817.934 648.886 817.934 646.859C817.934 644.886 817.561 643.099 816.814 641.499C816.068 639.899 814.988 638.633 813.574 637.699C812.161 636.766 810.521 636.299 808.654 636.299C806.734 636.299 805.054 636.766 803.614 637.699C802.174 638.633 801.081 639.899 800.334 641.499C799.588 643.099 799.214 644.886 799.214 646.859C799.214 648.886 799.588 650.726 800.334 652.379C801.081 654.033 802.174 655.326 803.614 656.259C805.054 657.193 806.734 657.659 808.654 657.659Z" fill="#ffffff" fill-rule="nonzero" opacity="1" stroke="none"/>
<path d="M839.774 667.419L839.774 643.179C839.774 639.819 840.561 636.793 842.134 634.099C843.708 631.406 845.961 629.286 848.894 627.739C851.828 626.193 855.321 625.419 859.374 625.419C861.401 625.419 863.268 625.646 864.974 626.099C866.681 626.553 868.241 627.166 869.654 627.939C871.068 628.713 872.281 629.633 873.294 630.699L873.454 630.699C874.521 629.633 875.761 628.713 877.174 627.939C878.588 627.166 880.161 626.553 881.894 626.099C883.628 625.646 885.508 625.419 887.534 625.419C891.588 625.419 895.081 626.193 898.014 627.739C900.948 629.286 903.214 631.406 904.814 634.099C906.414 636.793 907.214 639.819 907.214 643.179L907.214 667.419L894.734 667.419L894.734 643.579C894.734 642.246 894.401 641.033 893.734 639.939C893.068 638.846 892.174 637.953 891.054 637.259C889.934 636.566 888.654 636.219 887.214 636.219C885.774 636.219 884.481 636.566 883.334 637.259C882.188 637.953 881.294 638.846 880.654 639.939C880.014 641.033 879.694 642.246 879.694 643.579L879.694 667.419L867.294 667.419L867.294 643.579C867.294 642.246 866.961 641.033 866.294 639.939C865.628 638.846 864.721 637.953 863.574 637.259C862.428 636.566 861.134 636.219 859.694 636.219C858.254 636.219 856.961 636.566 855.814 637.259C854.668 637.953 853.774 638.846 853.134 639.939C852.494 641.033 852.174 642.246 852.174 643.579L852.174 667.419L839.774 667.419Z" fill="#ffffff" fill-rule="nonzero" opacity="1" stroke="none"/>
<path d="M937.854 667.419C933.214 667.419 929.134 666.553 925.614 664.819C922.094 663.086 919.361 660.686 917.414 657.619C915.468 654.553 914.494 650.993 914.494 646.939C914.494 642.459 915.428 638.619 917.294 635.419C919.161 632.219 921.654 629.753 924.774 628.019C927.894 626.286 931.348 625.419 935.134 625.419C939.454 625.419 943.068 626.326 945.974 628.139C948.881 629.953 951.081 632.419 952.574 635.539C954.068 638.659 954.814 642.219 954.814 646.219C954.814 646.913 954.774 647.726 954.694 648.659C954.614 649.593 954.521 650.326 954.414 650.859L927.534 650.859C927.854 652.246 928.468 653.419 929.374 654.379C930.281 655.339 931.428 656.046 932.814 656.499C934.201 656.953 935.748 657.179 937.454 657.179L950.014 657.179L950.014 667.419L937.854 667.419ZM927.214 643.099L942.814 643.099C942.708 642.246 942.548 641.419 942.334 640.619C942.121 639.819 941.788 639.113 941.334 638.499C940.881 637.886 940.361 637.353 939.774 636.899C939.188 636.446 938.508 636.086 937.734 635.819C936.961 635.553 936.094 635.419 935.134 635.419C933.908 635.419 932.814 635.633 931.854 636.059C930.894 636.486 930.094 637.059 929.454 637.779C928.814 638.499 928.321 639.326 927.974 640.259C927.628 641.193 927.374 642.139 927.214 643.099Z" fill="#ffffff" fill-rule="nonzero" opacity="1" stroke="none"/>
<path d="M1003.29 668.379C999.881 668.379 996.801 667.846 994.054 666.779C991.308 665.713 989.001 664.179 987.134 662.179C985.268 660.179 983.828 657.819 982.814 655.099C981.801 652.379 981.294 649.419 981.294 646.219C981.294 642.059 982.134 638.433 983.814 635.339C985.494 632.246 987.814 629.819 990.774 628.059C993.734 626.299 997.134 625.419 1000.97 625.419C1002.63 625.419 1004.19 625.633 1005.65 626.059C1007.12 626.486 1008.45 627.113 1009.65 627.939C1010.85 628.766 1011.85 629.739 1012.65 630.859L1012.89 630.859L1012.89 609.019L1025.29 609.019L1025.29 646.139C1025.29 650.619 1024.39 654.539 1022.57 657.899C1020.76 661.259 1018.21 663.846 1014.93 665.659C1011.65 667.473 1007.77 668.379 1003.29 668.379ZM1003.29 657.659C1005.21 657.659 1006.88 657.193 1008.29 656.259C1009.71 655.326 1010.79 654.046 1011.53 652.419C1012.28 650.793 1012.65 648.966 1012.65 646.939C1012.65 644.913 1012.28 643.099 1011.53 641.499C1010.79 639.899 1009.71 638.633 1008.29 637.699C1006.88 636.766 1005.21 636.299 1003.29 636.299C1001.43 636.299 999.774 636.766 998.334 637.699C996.894 638.633 995.801 639.899 995.054 641.499C994.308 643.099 993.934 644.913 993.934 646.939C993.934 648.966 994.308 650.793 995.054 652.419C995.801 654.046 996.894 655.326 998.334 656.259C999.774 657.193 1001.43 657.659 1003.29 657.659Z" fill="#ffffff" fill-rule="nonzero" opacity="1" stroke="none"/>
<path d="M1050.73 668.379C1047.11 668.379 1043.91 667.446 1041.13 665.579C1038.36 663.713 1036.2 661.193 1034.65 658.019C1033.11 654.846 1032.33 651.259 1032.33 647.259C1032.33 643.099 1033.24 639.379 1035.05 636.099C1036.87 632.819 1039.44 630.219 1042.77 628.299C1046.11 626.379 1050.04 625.419 1054.57 625.419C1059.16 625.419 1063.07 626.366 1066.29 628.259C1069.52 630.153 1072 632.739 1073.73 636.019C1075.47 639.299 1076.33 642.966 1076.33 647.019L1076.33 667.419L1064.17 667.419L1064.17 660.859L1063.85 660.859C1063.11 662.299 1062.15 663.593 1060.97 664.739C1059.8 665.886 1058.37 666.779 1056.69 667.419C1055.01 668.059 1053.03 668.379 1050.73 668.379ZM1054.41 657.659C1056.28 657.659 1057.92 657.193 1059.33 656.259C1060.75 655.326 1061.83 654.033 1062.57 652.379C1063.32 650.726 1063.69 648.886 1063.69 646.859C1063.69 644.886 1063.32 643.099 1062.57 641.499C1061.83 639.899 1060.75 638.633 1059.33 637.699C1057.92 636.766 1056.28 636.299 1054.41 636.299C1052.49 636.299 1050.81 636.766 1049.37 637.699C1047.93 638.633 1046.84 639.899 1046.09 641.499C1045.35 643.099 1044.97 644.886 1044.97 646.859C1044.97 648.886 1045.35 650.726 1046.09 652.379C1046.84 654.033 1047.93 655.326 1049.37 656.259C1050.81 657.193 1052.49 657.659 1054.41 657.659Z" fill="#ffffff" fill-rule="nonzero" opacity="1" stroke="none"/>
<path d="M1099.77 683.659L1099.77 667.659C1096.79 666.913 1094.23 665.699 1092.09 664.019C1089.96 662.339 1088.33 660.286 1087.21 657.859C1086.09 655.433 1085.53 652.806 1085.53 649.979L1085.53 626.379L1097.93 626.379L1097.93 649.579C1097.93 651.019 1098.28 652.353 1098.97 653.579C1099.67 654.806 1100.61 655.779 1101.81 656.499C1103.01 657.219 1104.36 657.579 1105.85 657.579C1107.4 657.579 1108.77 657.219 1109.97 656.499C1111.17 655.779 1112.12 654.806 1112.81 653.579C1113.51 652.353 1113.85 651.019 1113.85 649.579L1113.85 626.379L1126.25 626.379L1126.25 649.979C1126.25 652.806 1125.71 655.419 1124.61 657.819C1123.52 660.219 1121.92 662.273 1119.81 663.979C1117.71 665.686 1115.16 666.886 1112.17 667.579L1112.17 683.659L1099.77 683.659Z" fill="#ffffff" fill-rule="nonzero" opacity="1" stroke="none"/>
<g opacity="1">
<path d="M738.094 795.419L738.094 785.579L757.854 785.579C758.388 785.579 758.868 785.459 759.294 785.219C759.721 784.979 760.068 784.646 760.334 784.219C760.601 783.793 760.734 783.339 760.734 782.859C760.734 782.326 760.601 781.846 760.334 781.419C760.068 780.993 759.721 780.659 759.294 780.419C758.868 780.179 758.388 780.059 757.854 780.059L750.654 780.059C747.988 780.059 745.574 779.619 743.414 778.739C741.254 777.859 739.548 776.473 738.294 774.579C737.041 772.686 736.414 770.219 736.414 767.179C736.414 764.833 736.988 762.699 738.134 760.779C739.281 758.859 740.854 757.313 742.854 756.139C744.854 754.966 747.054 754.379 749.454 754.379L769.214 754.379L769.214 764.299L751.374 764.299C750.628 764.299 750.001 764.539 749.494 765.019C748.988 765.499 748.734 766.086 748.734 766.779C748.734 767.526 748.988 768.153 749.494 768.659C750.001 769.166 750.628 769.419 751.374 769.419L758.414 769.419C761.401 769.419 763.974 769.859 766.134 770.739C768.294 771.619 769.974 773.019 771.174 774.939C772.374 776.859 772.974 779.339 772.974 782.379C772.974 784.779 772.374 786.966 771.174 788.939C769.974 790.913 768.374 792.486 766.374 793.659C764.374 794.833 762.121 795.419 759.614 795.419L738.094 795.419Z" fill="#fc814a" fill-rule="nonzero" opacity="1" stroke="none"/>
<path d="M780.414 795.419L780.414 737.019L792.814 737.019L792.814 757.099C794.414 755.819 796.174 754.886 798.094 754.299C800.014 753.713 801.934 753.419 803.854 753.419C807.588 753.419 810.748 754.219 813.334 755.819C815.921 757.419 817.868 759.606 819.174 762.379C820.481 765.153 821.134 768.299 821.134 771.819L821.134 795.419L808.734 795.419L808.734 772.299C808.734 770.753 808.374 769.379 807.654 768.179C806.934 766.979 805.974 766.019 804.774 765.299C803.574 764.579 802.254 764.219 800.814 764.219C799.374 764.219 798.041 764.566 796.814 765.259C795.588 765.953 794.614 766.886 793.894 768.059C793.174 769.233 792.814 770.566 792.814 772.059L792.814 795.419L780.414 795.419Z" fill="#fc814a" fill-rule="nonzero" opacity="1" stroke="none"/>
<path d="M830.414 795.419L830.414 754.379L842.894 754.379L842.894 795.419L830.414 795.419ZM836.654 749.739C834.681 749.739 832.974 749.019 831.534 747.579C830.094 746.139 829.374 744.433 829.374 742.459C829.374 740.486 830.094 738.766 831.534 737.299C832.974 735.833 834.681 735.099 836.654 735.099C838.628 735.099 840.334 735.833 841.774 737.299C843.214 738.766 843.934 740.486 843.934 742.459C843.934 744.433 843.214 746.139 841.774 747.579C840.334 749.019 838.628 749.739 836.654 749.739Z" fill="#fc814a" fill-rule="nonzero" opacity="1" stroke="none"/>
<path d="M873.694 753.419C877.161 753.419 880.241 753.966 882.934 755.059C885.628 756.153 887.921 757.699 889.814 759.699C891.708 761.699 893.161 764.046 894.174 766.739C895.188 769.433 895.694 772.406 895.694 775.659C895.694 779.713 894.854 783.299 893.174 786.419C891.494 789.539 889.188 791.979 886.254 793.739C883.321 795.499 879.908 796.379 876.014 796.379C874.361 796.379 872.801 796.166 871.334 795.739C869.868 795.313 868.534 794.699 867.334 793.899C866.134 793.099 865.134 792.113 864.334 790.939L864.094 790.939L864.094 812.779L851.694 812.779L851.694 775.659C851.694 771.126 852.601 767.206 854.414 763.899C856.228 760.593 858.788 758.019 862.094 756.179C865.401 754.339 869.268 753.419 873.694 753.419ZM873.694 764.139C871.774 764.139 870.108 764.606 868.694 765.539C867.281 766.473 866.201 767.753 865.454 769.379C864.708 771.006 864.334 772.833 864.334 774.859C864.334 776.886 864.708 778.699 865.454 780.299C866.201 781.899 867.281 783.166 868.694 784.099C870.108 785.033 871.774 785.499 873.694 785.499C875.614 785.499 877.268 785.033 878.654 784.099C880.041 783.166 881.121 781.899 881.894 780.299C882.668 778.699 883.054 776.886 883.054 774.859C883.054 772.833 882.668 771.006 881.894 769.379C881.121 767.753 880.041 766.473 878.654 765.539C877.268 764.606 875.614 764.139 873.694 764.139Z" fill="#fc814a" fill-rule="nonzero" opacity="1" stroke="none"/>
<path d="M924.734 753.419C928.201 753.419 931.281 753.966 933.974 755.059C936.668 756.153 938.961 757.699 940.854 759.699C942.748 761.699 944.201 764.046 945.214 766.739C946.228 769.433 946.734 772.406 946.734 775.659C946.734 779.713 945.894 783.299 944.214 786.419C942.534 789.539 940.228 791.979 937.294 793.739C934.361 795.499 930.948 796.379 927.054 796.379C925.401 796.379 923.841 796.166 922.374 795.739C920.908 795.313 919.574 794.699 918.374 793.899C917.174 793.099 916.174 792.113 915.374 790.939L915.134 790.939L915.134 812.779L902.734 812.779L902.734 775.659C902.734 771.126 903.641 767.206 905.454 763.899C907.268 760.593 909.828 758.019 913.134 756.179C916.441 754.339 920.308 753.419 924.734 753.419ZM924.734 764.139C922.814 764.139 921.148 764.606 919.734 765.539C918.321 766.473 917.241 767.753 916.494 769.379C915.748 771.006 915.374 772.833 915.374 774.859C915.374 776.886 915.748 778.699 916.494 780.299C917.241 781.899 918.321 783.166 919.734 784.099C921.148 785.033 922.814 785.499 924.734 785.499C926.654 785.499 928.308 785.033 929.694 784.099C931.081 783.166 932.161 781.899 932.934 780.299C933.708 778.699 934.094 776.886 934.094 774.859C934.094 772.833 933.708 771.006 932.934 769.379C932.161 767.753 931.081 766.473 929.694 765.539C928.308 764.606 926.654 764.139 924.734 764.139Z" fill="#fc814a" fill-rule="nonzero" opacity="1" stroke="none"/>
<path d="M954.094 795.419L954.094 754.379L966.574 754.379L966.574 795.419L954.094 795.419ZM960.334 749.739C958.361 749.739 956.654 749.019 955.214 747.579C953.774 746.139 953.054 744.433 953.054 742.459C953.054 740.486 953.774 738.766 955.214 737.299C956.654 735.833 958.361 735.099 960.334 735.099C962.308 735.099 964.014 735.833 965.454 737.299C966.894 738.766 967.614 740.486 967.614 742.459C967.614 744.433 966.894 746.139 965.454 747.579C964.014 749.019 962.308 749.739 960.334 749.739Z" fill="#fc814a" fill-rule="nonzero" opacity="1" stroke="none"/>
<path d="M975.694 795.419L975.694 771.819C975.694 768.406 976.521 765.313 978.174 762.539C979.828 759.766 982.188 757.553 985.254 755.899C988.321 754.246 991.961 753.419 996.174 753.419C1000.44 753.419 1004.08 754.246 1007.09 755.899C1010.11 757.553 1012.41 759.766 1014.01 762.539C1015.61 765.313 1016.41 768.406 1016.41 771.819L1016.41 795.419L1004.01 795.419L1004.01 772.139C1004.01 770.699 1003.67 769.379 1002.97 768.179C1002.28 766.979 1001.33 766.019 1000.13 765.299C998.934 764.579 997.588 764.219 996.094 764.219C994.548 764.219 993.174 764.579 991.974 765.299C990.774 766.019 989.828 766.979 989.134 768.179C988.441 769.379 988.094 770.699 988.094 772.139L988.094 795.419L975.694 795.419Z" fill="#fc814a" fill-rule="nonzero" opacity="1" stroke="none"/>
<path d="M1031.93 811.659L1031.93 801.019L1052.41 801.019C1053.21 801.019 1053.88 800.766 1054.41 800.259C1054.95 799.753 1055.21 799.126 1055.21 798.379L1055.21 789.339L1054.97 789.339C1053.91 790.566 1052.77 791.606 1051.57 792.459C1050.37 793.313 1049.04 793.953 1047.57 794.379C1046.11 794.806 1044.47 795.019 1042.65 795.019C1039.03 795.019 1035.79 794.153 1032.93 792.419C1030.08 790.686 1027.84 788.273 1026.21 785.179C1024.59 782.086 1023.77 778.566 1023.77 774.619C1023.77 770.726 1024.61 767.179 1026.29 763.979C1027.97 760.779 1030.44 758.219 1033.69 756.299C1036.95 754.379 1040.92 753.419 1045.61 753.419C1050.09 753.419 1053.97 754.339 1057.25 756.179C1060.53 758.019 1063.08 760.606 1064.89 763.939C1066.71 767.273 1067.61 771.179 1067.61 775.659L1067.61 799.659C1067.61 803.339 1066.53 806.259 1064.37 808.419C1062.21 810.579 1059.24 811.659 1055.45 811.659L1031.93 811.659ZM1045.69 784.619C1047.61 784.619 1049.27 784.179 1050.65 783.299C1052.04 782.419 1053.11 781.233 1053.85 779.739C1054.6 778.246 1054.97 776.593 1054.97 774.779C1054.97 772.859 1054.6 771.099 1053.85 769.499C1053.11 767.899 1052.04 766.633 1050.65 765.699C1049.27 764.766 1047.61 764.299 1045.69 764.299C1043.83 764.299 1042.19 764.753 1040.77 765.659C1039.36 766.566 1038.28 767.793 1037.53 769.339C1036.79 770.886 1036.41 772.619 1036.41 774.539C1036.41 776.406 1036.79 778.099 1037.53 779.619C1038.28 781.139 1039.36 782.353 1040.77 783.259C1042.19 784.166 1043.83 784.619 1045.69 784.619Z" fill="#fc814a" fill-rule="nonzero" opacity="1" stroke="none"/>
</g>
<g opacity="1">
<path d="M1455.04 640.211C1453.67 640.211 1452.48 640.455 1451.95 640.885C1451.14 641.535 1451.25 641.585 1453.74 641.334C1457.2 640.984 1458.1 640.211 1455.04 640.211ZM1472.06 641.558C1471.61 641.581 1471.31 641.791 1471.16 642.187C1470.49 643.946 1473 648.972 1474.3 648.472C1475.68 647.943 1475.35 642.713 1473.9 642.052C1473.13 641.703 1472.51 641.535 1472.06 641.558ZM1446.96 642.501C1446.71 642.45 1446.26 642.646 1445.57 643.129C1444.54 643.853 1444.29 645.785 1444.99 647.574C1445.27 648.304 1445.36 648.343 1445.71 647.798C1446.86 645.952 1450.64 645.29 1452.17 646.676C1452.93 647.361 1453.07 647.39 1453.07 646.811C1453.07 644.979 1450.57 644.351 1448.08 645.554L1446.24 646.452L1446.51 645.464C1446.66 644.919 1446.9 644 1447.05 643.444C1447.22 642.852 1447.21 642.551 1446.96 642.501ZM1463.71 644.746C1463.19 644.737 1462.77 644.933 1462.14 645.374C1461.59 645.758 1461.15 646.357 1461.15 646.721C1461.15 647.23 1461.47 647.164 1462.5 646.407C1463.77 645.463 1463.86 645.456 1465.59 646.137C1467.82 647.012 1467.99 646.456 1465.82 645.419C1464.84 644.953 1464.23 644.754 1463.71 644.746ZM1450.15 647.439C1449.82 647.394 1449.46 647.549 1449.16 647.933C1447.73 649.779 1448.31 652.288 1450.15 652.288C1450.99 652.288 1451.32 652.006 1451.54 651.121C1451.98 649.361 1451.12 647.575 1450.15 647.439ZM1465.1 647.439C1464.76 647.506 1464.42 647.847 1463.98 648.517C1462.6 650.62 1464.51 653.337 1466.31 651.839C1467.17 651.125 1467.15 648.951 1466.27 648.068C1465.78 647.582 1465.44 647.372 1465.1 647.439ZM1489.3 659.516C1487.81 659.569 1486.33 659.797 1485.57 660.19C1479.23 663.482 1477.07 673.241 1482.12 675.903L1484.09 676.936L1481.8 678.327C1478.31 680.474 1470.58 692.121 1470.58 695.208C1470.58 696.185 1487.84 696.024 1490.33 695.028L1492.22 694.31L1491.9 690.09C1491.58 685.224 1490.66 681.728 1489.12 679.45C1487.69 677.344 1487.75 676.98 1489.43 676.98C1490.46 676.98 1491.3 676.507 1492.58 675.229L1494.33 673.479L1494.33 666.924L1494.33 660.369L1493.16 659.92C1492.28 659.585 1490.79 659.464 1489.3 659.516ZM1406.6 672.67C1406.08 672.755 1405.5 673.128 1404.94 673.748C1404.01 674.777 1404.05 675.865 1405.07 680.078L1405.88 683.445L1408.31 683.311C1411.39 683.115 1411.26 683.364 1410.33 678.821C1409.45 674.535 1408.16 672.416 1406.6 672.67ZM1406.6 686.498C1406.44 686.49 1406.51 686.686 1406.65 687.127C1406.8 687.622 1407.28 689.727 1407.72 691.796L1408.53 695.567L1411.36 695.702C1413.68 695.812 1414.17 695.697 1413.96 695.163C1413.83 694.807 1413.46 693.272 1413.16 691.706C1412.57 688.66 1412.22 688.171 1410.55 688.159C1409.96 688.156 1408.76 687.747 1407.9 687.217C1407.14 686.744 1406.76 686.506 1406.6 686.498ZM1376.43 690.853C1376.12 690.853 1375.99 691.702 1376.07 693.188L1376.21 695.567L1385.14 695.702C1390.06 695.768 1393.94 695.705 1393.81 695.567C1393.53 695.287 1377.19 690.853 1376.43 690.853ZM1714.85 768.612C1712.09 768.389 1709.29 768.43 1706.55 768.702C1689.36 770.407 1674.89 778.393 1665.2 791.508C1659.65 799.015 1655.4 810.781 1654.6 820.96L1654.38 823.968L1660.62 823.968L1666.86 823.968L1667.13 825.225C1672.62 851.708 1697.7 867.016 1723.34 859.57C1737.79 855.37 1750.62 841.268 1753.42 826.437L1753.96 823.519L1760.02 823.519L1766.08 823.519L1765.81 819.164C1765.65 816.76 1765.32 814.101 1765.09 813.238C1763.69 807.86 1763 805.776 1761.18 801.565C1753.34 783.37 1734.21 770.17 1714.85 768.612ZM1710.81 787.692C1712.73 787.73 1714.7 787.947 1716.74 788.366C1732.33 791.569 1743.05 807.931 1739.77 823.519C1735.55 843.61 1712.51 853.734 1694.83 843.228C1668.08 827.335 1682.08 787.133 1710.81 787.692ZM1379.35 768.702C1350.44 771.375 1330.13 791.466 1327.23 820.286L1326.82 823.968L1333.02 823.968L1339.17 823.968L1339.66 825.898C1344.67 846.076 1358.45 858.747 1378.09 861.231C1398.98 863.873 1421.32 848.335 1425.28 828.457C1426.23 823.702 1425.8 823.968 1432.78 823.968L1438.84 823.968L1438.57 821.184C1436.22 799.209 1425.81 783.602 1407.41 774.403C1399.24 770.32 1387.5 767.947 1379.35 768.702ZM1382.27 787.692C1384.53 787.646 1386.85 787.872 1389.18 788.366C1412.32 793.269 1420.62 821.975 1403.77 838.828C1385.15 857.447 1353.06 843.985 1353 817.503C1352.96 800.943 1366.43 788.017 1382.27 787.692ZM1269.4 776.468L1268.28 777.546C1266.21 779.464 1266.14 784.426 1267.96 798.737C1269.76 812.783 1272.53 815.805 1285.52 817.907C1300.25 820.295 1309.53 821.712 1311.96 821.992L1314.48 822.307L1314.79 819.209C1316.16 804.572 1322.1 790.641 1331.67 779.566C1332.87 778.177 1333.83 776.889 1333.83 776.738C1333.83 776.586 1319.35 776.469 1301.64 776.468L1269.4 776.468ZM1546.54 776.468C1436.88 776.468 1431.56 776.524 1431.97 777.277C1432.2 777.71 1432.81 778.446 1433.36 778.938C1441.91 786.62 1449.8 805.192 1450.78 819.972L1451.05 824.192L1546.54 824.192L1642.03 824.192L1642.35 819.748C1643.42 805.202 1649.04 791.549 1658.55 780.419C1660.18 778.517 1661.52 776.825 1661.52 776.693C1661.52 776.561 1609.79 776.468 1546.54 776.468ZM1790.5 776.558C1770.99 776.425 1759.25 776.518 1759.25 776.783C1759.25 777.017 1759.78 777.712 1760.42 778.309C1768.8 786.11 1776.27 802.454 1778.11 816.964C1778.64 821.112 1778.73 821.321 1779.64 821.094C1782.13 820.468 1798.03 817.722 1801.73 817.278C1811.3 816.129 1817.94 811.547 1821.12 803.9C1823.29 798.687 1824.12 781.612 1822.38 778.085L1821.75 776.783L1790.5 776.558ZM1387.25 794.606C1387.07 796.142 1388.61 802.784 1389.27 803.271C1390.31 804.038 1390.56 803.996 1393.04 802.642C1395.16 801.489 1395.56 800.667 1393.99 800.667C1393.56 800.667 1392.97 800.458 1392.68 800.173C1392.09 799.577 1390.59 800.463 1391.02 801.161C1391.16 801.379 1391.07 801.565 1390.84 801.565C1390.62 801.565 1390.07 800.755 1389.63 799.769C1389.19 798.782 1388.68 797.973 1388.51 797.973C1388.33 797.973 1388 797.135 1387.75 796.088C1387.49 795.039 1387.28 794.359 1387.25 794.606ZM1705.83 795.773C1705.73 795.789 1704.82 796.072 1703.76 796.402C1701.2 797.204 1699.25 798.149 1697.43 799.5L1695.95 800.622L1697.88 801.655C1703.05 804.382 1704.24 804.387 1704.98 801.655C1705.52 799.645 1706.08 795.729 1705.83 795.773ZM1378 795.863C1377.87 795.728 1377.74 796.075 1377.73 796.671C1377.72 797.992 1376.82 799.32 1375.89 799.32C1375.1 799.32 1373.98 800.516 1374.5 800.802C1374.96 801.055 1373.94 800.784 1372.97 800.398C1372.5 800.205 1372.33 800.266 1372.53 800.577C1372.69 800.845 1372.61 801.118 1372.35 801.206C1371.48 801.493 1372.44 803.011 1373.33 802.777C1373.79 802.656 1374.09 802.705 1373.96 802.912C1373.66 803.4 1375.36 803.973 1375.98 803.585C1376.95 802.989 1377.23 801.43 1376.48 800.712C1376.08 800.333 1375.92 800.167 1376.16 800.353C1377.16 801.121 1377.67 800.553 1377.96 798.377C1378.12 797.116 1378.14 796 1378 795.863ZM1714.85 796.043C1714.85 803.121 1717.1 804.906 1722.31 801.969L1724.86 800.532L1723.79 799.634C1721.76 797.968 1714.85 795.194 1714.85 796.043ZM1370.01 800.488C1368.9 800.454 1368.86 800.511 1369.56 801.026C1370.42 801.653 1371.62 801.594 1371.4 800.936C1371.33 800.711 1370.69 800.508 1370.01 800.488ZM1730.16 807.446C1729.99 807.464 1728.91 808.58 1727.74 809.96C1724.54 813.729 1724.72 814.648 1728.95 816.605C1733.18 818.559 1732.94 818.668 1732.63 815.348C1732.37 812.562 1730.76 807.39 1730.16 807.446ZM1402.83 807.716C1402.69 807.562 1402.36 807.649 1402.07 807.94C1401.41 808.598 1401.39 809.197 1402.02 809.197C1402.28 809.197 1402.34 809.019 1402.2 808.793C1402.06 808.568 1402.21 808.275 1402.52 808.165C1402.83 808.054 1402.97 807.868 1402.83 807.716ZM1362.51 807.761C1362.51 808.045 1362.72 808.299 1362.96 808.299C1363.21 808.299 1363.41 808.533 1363.41 808.793C1363.41 809.055 1363.18 809.102 1362.87 808.928C1362.43 808.675 1362.43 808.715 1362.87 809.197C1363.26 809.608 1363.59 809.69 1363.91 809.377C1364.22 809.065 1364.08 808.634 1363.46 808.075C1362.95 807.612 1362.51 807.469 1362.51 807.761ZM1690.83 807.985C1690.38 808 1690.02 808.541 1689.58 809.646C1688.81 811.574 1687.73 817.632 1688.1 817.997C1688.52 818.42 1694.97 815.153 1695.28 814.36C1695.61 813.507 1694.99 812.31 1692.72 809.556C1691.84 808.494 1691.28 807.97 1690.83 807.985ZM1364.94 810.005C1364.54 809.831 1364.33 810.036 1364.18 810.634C1364 811.306 1364.19 811.964 1364.8 812.564L1365.7 813.462L1365.21 812.16C1364.78 811.014 1364.83 810.939 1365.43 811.442C1366.21 812.09 1366.3 812.704 1365.7 813.642C1365.36 814.178 1365.1 814.098 1364.31 813.193C1363.42 812.161 1363.39 812.155 1363.64 813.058C1363.8 813.643 1363.63 814.328 1363.19 814.764C1362.79 815.161 1362.66 815.483 1362.87 815.483C1363.09 815.483 1363.48 815.24 1363.77 814.944C1364.18 814.537 1364.31 814.544 1364.31 814.944C1364.31 815.234 1363.81 815.793 1363.19 816.201C1361.39 817.382 1362.25 817.421 1364.71 816.291C1367.87 814.843 1368.38 813.72 1366.78 811.801C1365.91 810.758 1365.34 810.179 1364.94 810.005ZM1400.85 810.095C1400.48 810.15 1400.05 810.387 1399.73 810.769C1399.3 811.293 1399.25 811.587 1399.64 811.981C1399.93 812.265 1400.18 812.724 1400.18 812.968C1400.18 813.213 1399.87 812.998 1399.51 812.519C1398.72 811.489 1397.87 812.337 1398.07 813.911C1398.18 814.778 1402.74 817.552 1403.23 817.054C1403.35 816.935 1403.19 816.829 1402.88 816.829C1402.4 816.829 1402.41 816.676 1402.88 816.111C1403.19 815.73 1403.78 815.527 1404.18 815.662C1404.74 815.858 1404.71 815.789 1404.09 815.303C1403.66 814.967 1403.32 814.563 1403.32 814.405C1403.32 814.247 1403.66 814.109 1404.09 814.091C1404.52 814.071 1404.65 813.941 1404.36 813.821C1404.07 813.704 1403.01 814.034 1402.02 814.54C1399.81 815.668 1399.13 815.034 1401.3 813.866C1403.28 812.802 1403.32 811.908 1401.39 811.891C1400.19 811.879 1400.12 811.776 1400.76 811.397C1401.2 811.146 1401.53 810.733 1401.53 810.499C1401.53 810.164 1401.23 810.041 1400.85 810.095ZM1696.85 826.527C1696.52 826.454 1694.88 826.488 1693.21 826.572C1689.74 826.748 1689.77 826.699 1691.51 829.445C1695.51 835.752 1697.02 836.314 1698.02 831.824C1698.73 828.631 1698.67 826.662 1697.84 826.661C1697.63 826.661 1697.18 826.6 1696.85 826.527ZM1727.42 826.617C1725.45 826.535 1723.43 826.618 1722.93 826.841C1721.77 827.363 1721.78 828.638 1722.98 832.588L1723.92 835.73L1726.3 833.396C1727.6 832.109 1729.2 830.089 1729.85 828.906L1731.02 826.751L1727.42 826.617ZM1365.3 826.751C1360.98 826.804 1360.78 826.809 1363.14 827.11C1364.59 827.296 1365.9 827.674 1366.06 827.919C1367.67 830.449 1369.13 831.535 1368.57 829.804C1368.41 829.29 1368.48 828.906 1368.75 828.906C1369.02 828.906 1369.25 829.241 1369.25 829.625C1369.25 830.01 1369.45 830.181 1369.7 830.029C1369.94 829.876 1370.15 829.961 1370.15 830.208C1370.15 830.454 1369.95 830.767 1369.7 830.927C1369.44 831.085 1369.34 831.587 1369.47 832.004C1369.61 832.421 1369.49 833.453 1369.25 834.294C1369.01 835.134 1368.99 835.601 1369.2 835.371C1369.42 835.141 1369.93 833.497 1370.33 831.69C1371.4 826.805 1371.24 826.679 1365.3 826.751ZM1398.74 826.751C1396.69 826.708 1395.2 826.869 1395.02 827.155C1394.85 827.42 1394.85 828.581 1395.02 829.714C1395.19 830.849 1395.48 831.541 1395.65 831.286C1395.81 831.031 1396.39 830.695 1396.95 830.522C1397.5 830.349 1397.94 829.932 1397.94 829.58C1397.94 829.226 1398.14 828.906 1398.39 828.906C1398.63 828.906 1398.83 828.622 1398.83 828.278C1398.83 827.926 1399.6 827.481 1400.54 827.245C1402.06 826.864 1401.86 826.817 1398.74 826.751ZM1710.63 832.992C1709.72 832.886 1708.82 833.812 1707.27 835.73C1706.02 837.268 1704.98 838.76 1704.98 839.053C1704.98 839.801 1709.99 840.263 1713.42 839.816L1716.24 839.457L1714.13 836.538C1712.48 834.251 1711.55 833.097 1710.63 832.992ZM1382.72 833.037C1382.14 833.078 1381.53 833.537 1380.79 834.473C1379.68 835.855 1379.46 837.84 1380.47 837.212C1380.68 837.083 1380.78 836.681 1380.65 836.359C1380.36 835.599 1381.59 834.532 1382 835.192C1382.16 835.45 1382.08 835.641 1381.82 835.641C1380.49 835.641 1381.57 836.796 1382.99 836.898C1385.39 837.07 1386.1 835.886 1384.6 834.204C1383.86 833.374 1383.29 832.995 1382.72 833.037ZM1379.57 836.853C1379.58 836.341 1379.39 836.452 1378.59 837.391C1378.18 837.866 1377.62 838.749 1377.33 839.322C1376.98 840.02 1377.26 839.832 1378.18 838.783C1378.95 837.92 1379.57 837.038 1379.57 836.853Z" fill="#1f1f27" fill-rule="nonzero" opacity="1" stroke="none"/>
<path d="M1572.31 578.164C1545.17 578.66 1515.42 580.523 1500.82 582.642C1482.79 585.259 1471.01 589.828 1459.34 598.739C1437.44 615.455 1414.33 636.273 1384.25 666.385C1373.39 677.254 1363.96 686.396 1363.3 686.699C1362.54 687.042 1362.08 687.603 1362.08 688.189C1362.08 689.286 1356.02 696.106 1354.69 696.514C1346.41 699.034 1318.19 711.59 1306.66 717.883C1280.44 732.193 1274.14 740.473 1271.09 764.593C1270.59 768.538 1269.98 772.733 1269.74 773.915C1269.49 775.099 1269.29 776.158 1269.29 776.27C1269.29 776.381 1283.92 776.471 1301.79 776.471C1319.67 776.471 1334.29 776.642 1334.29 776.85C1334.29 777.059 1333.86 777.613 1333.34 778.083C1325.88 784.769 1318.21 799.857 1315.94 812.305C1314.53 820.062 1314.45 822.606 1315.62 822.83C1318.36 823.355 1325.24 824.434 1325.85 824.434C1326.4 824.434 1326.59 823.674 1326.79 820.736C1328.06 801.597 1339.76 783.679 1356.7 774.941C1394.18 755.611 1437.84 781.732 1439.17 824.276C1439.18 824.633 1440.95 824.796 1445.01 824.81L1450.84 824.832L1450.84 821.987C1450.84 813.656 1446.37 797.789 1442.32 791.712C1441.9 791.096 1441.46 790.289 1441.32 789.919C1440.92 788.805 1436.09 782.265 1433.46 779.272L1431 776.471L1546.54 776.471C1676.84 776.471 1662.77 776.023 1659.01 780.057C1650.12 789.606 1643.31 806.006 1642.39 820.154C1642.06 825.061 1641.82 824.87 1648.29 824.87C1654.14 824.87 1654.34 824.778 1654.34 822.174C1654.34 789.08 1688.76 762.339 1721.92 769.67C1746.66 775.142 1766.41 798.055 1766.41 821.3C1766.41 824.077 1766.13 824.008 1772.36 822.76C1779.1 821.409 1778.6 822.043 1777.81 815.914C1776.03 802.204 1770.22 789.556 1760.89 779.103L1758.75 776.695L1781.02 776.579L1803.29 776.462L1803.13 763.132C1803.04 755.799 1803.01 741.177 1803.06 730.638L1803.16 711.474L1810.67 711.49C1818.69 711.507 1819.79 711.753 1820.92 713.766C1821.98 715.656 1821.58 601.437 1820.52 597.882C1818.29 590.461 1814.37 585.55 1808.31 582.602C1803.18 580.104 1807.64 580.338 1735.25 578.758C1715.88 578.334 1588.42 577.871 1572.31 578.164M1473.7 632.961C1473.7 633.171 1477.39 633.322 1481.91 633.297L1490.12 633.254L1491.73 634.482C1492.62 635.159 1493.55 636.366 1493.79 637.172C1494.37 639.067 1494.75 667.471 1494.38 680.839L1494.09 691.217L1492.69 693.165C1491.85 694.329 1490.68 695.329 1489.78 695.648C1487.83 696.339 1449.49 696.47 1449.49 695.786C1449.49 695.194 1448 695.21 1447.41 695.809C1447.1 696.115 1444.51 696.215 1440.03 696.096C1431.78 695.876 1421.26 695.839 1395.48 695.937L1376.2 696.01L1376.07 691.776C1376 689.447 1375.71 687.268 1375.44 686.935C1375.04 686.459 1375.42 685.82 1377.16 683.997C1378.38 682.714 1382.4 678.443 1386.09 674.505C1396.04 663.863 1410.86 649.029 1417.22 643.338C1420.3 640.58 1422.78 638.173 1422.73 637.992C1422.69 637.811 1422.89 637.662 1423.18 637.66C1423.48 637.659 1424.67 636.988 1425.83 636.168C1427.72 634.827 1428.36 634.646 1432.1 634.369C1434.39 634.201 1435.68 634.031 1434.96 633.994C1434.24 633.957 1433.74 633.847 1433.84 633.75C1433.94 633.652 1436.8 633.702 1440.19 633.862C1443.74 634.029 1446.41 633.98 1446.49 633.747C1446.56 633.524 1451.35 633.25 1457.13 633.136C1462.91 633.023 1467.73 632.852 1467.83 632.756C1468.21 632.402 1473.7 632.595 1473.7 632.961M1454.61 644.74C1454.51 644.91 1453.99 644.936 1453.46 644.798C1452.5 644.546 1452.5 644.551 1453.32 645.946C1454.37 647.713 1453.86 648.257 1452.12 647.254C1450.14 646.119 1446.35 646.796 1446.35 648.283C1446.35 648.523 1446 648.72 1445.56 648.72C1444.89 648.72 1444.79 649.03 1444.94 650.566C1445.04 651.619 1444.9 652.543 1444.62 652.718C1443.96 653.123 1444.98 655.891 1445.78 655.891C1446.12 655.891 1446.35 656.442 1446.35 657.236C1446.35 657.976 1446.51 658.581 1446.71 658.581C1446.91 658.581 1447.34 659.337 1447.67 660.262C1448.69 663.124 1450.86 665.807 1451.88 665.483C1452.56 665.264 1452.7 665.363 1452.49 665.924C1452.15 666.791 1454.39 668.038 1457.78 668.874C1460.51 669.547 1465 668.376 1464.9 667.021C1464.87 666.582 1465.08 666.363 1465.42 666.493C1465.97 666.704 1467.49 665.626 1469.28 663.763C1469.74 663.286 1470.11 662.428 1470.11 661.858C1470.11 661.244 1470.38 660.822 1470.77 660.822C1471.64 660.822 1472.92 658.317 1472.59 657.272C1472.39 656.661 1472.69 656.308 1473.76 655.864C1474.55 655.538 1474.96 655.192 1474.67 655.096C1473.98 654.866 1473.99 653.775 1474.69 653.544C1475.4 653.304 1474.35 649.577 1473.61 649.733C1473.33 649.791 1472.68 649.133 1472.17 648.271C1470.63 645.693 1467.02 646.378 1467.57 649.142C1467.97 651.113 1466.86 653.202 1465.42 653.202C1462.43 653.202 1462.02 647.478 1464.96 646.792C1465.61 646.638 1465.51 646.568 1464.59 646.53C1462.82 646.457 1461.26 647.319 1462.09 647.914C1462.57 648.251 1462.52 648.293 1461.89 648.089C1461.44 647.942 1460.89 647.823 1460.66 647.823C1460.02 647.823 1460.18 646.852 1460.96 645.981C1461.63 645.242 1461.58 645.174 1460.18 644.953C1457.49 644.526 1454.81 644.424 1454.61 644.74M1451.78 647.874C1453.38 649.475 1452.32 653.202 1450.26 653.202C1447.99 653.202 1446.89 650.069 1448.4 647.922C1449.27 646.67 1450.56 646.651 1451.78 647.874M1595.84 649.3C1603.09 653.107 1602.82 666.03 1595.43 669.387C1594.01 670.034 1592.49 670.218 1588.56 670.225L1583.52 670.235L1583.52 659.328C1583.52 653.328 1583.67 648.264 1583.85 648.073C1584.71 647.193 1593.56 648.096 1595.84 649.3M1629.02 648.384C1629.12 648.691 1629.27 652.775 1629.34 657.46L1629.46 665.977L1633.83 666.105L1638.21 666.234L1638.21 668.234L1638.21 670.235L1631.26 670.235L1624.31 670.235L1624.31 659.328C1624.31 653.328 1624.44 648.286 1624.61 648.122C1625.15 647.58 1628.81 647.797 1629.02 648.384M1647.39 659.253L1647.39 670.459L1644.82 670.594L1642.24 670.728L1642.24 659.253L1642.24 647.777L1644.82 647.912L1647.39 648.047L1647.39 659.253M1654.99 648.237C1655.14 648.465 1656.22 652.336 1657.41 656.837C1658.6 661.338 1659.71 664.781 1659.9 664.49C1660.08 664.197 1661.02 660.782 1662 656.899C1664.38 647.398 1664.15 647.823 1666.88 647.823C1669.72 647.823 1669.79 646.911 1665.9 659.604L1662.63 670.265L1659.51 670.137L1656.39 670.011L1653.16 659.263C1651.39 653.353 1650.03 648.361 1650.15 648.169C1650.45 647.678 1654.69 647.737 1654.99 648.237M1685.72 650.047L1685.72 652.273L1681.39 652.4L1677.05 652.53L1677.02 654.547L1676.98 656.564L1680.79 656.788L1684.6 657.012L1684.74 658.917L1684.88 660.822L1681.04 660.822C1678.93 660.822 1677.19 660.973 1677.17 661.158C1677.11 661.782 1677.1 665.076 1677.15 665.641C1677.19 666.049 1678.43 666.201 1681.69 666.201L1686.17 666.201L1686.17 668.218L1686.17 670.235L1679 670.235L1671.83 670.235L1671.83 659.328C1671.83 653.328 1671.96 648.286 1672.12 648.122C1672.29 647.957 1675.41 647.823 1679.07 647.823L1685.72 647.823L1685.72 650.047M1703.95 648.849C1708.23 651.113 1708.96 656.636 1705.41 660.007L1703.67 661.665L1705.9 665.458C1708.71 670.236 1708.71 670.235 1705.5 670.235L1702.87 670.235L1701.18 666.985C1697.73 660.348 1696.03 660.088 1696.03 666.201L1696.03 670.235L1693.34 670.235L1690.65 670.235L1690.65 659.737C1690.65 653.965 1690.78 648.899 1690.94 648.481C1691.35 647.411 1701.79 647.705 1703.95 648.849M1714.72 650.064C1715.27 651.173 1716.14 653.341 1716.67 654.883C1717.68 657.874 1718.19 658.324 1718.61 656.624C1718.76 656.042 1719.61 653.823 1720.5 651.694L1722.12 647.823L1724.37 647.823L1726.62 647.823L1726.36 649.155C1726.21 649.889 1724.77 653.248 1723.16 656.62C1720.28 662.654 1720.24 662.81 1720.24 666.493L1720.24 670.235L1717.77 670.235L1715.31 670.235L1715.31 666.25L1715.31 662.264L1712.17 655.667C1708.33 647.609 1708.35 647.737 1711.38 647.911C1713.68 648.043 1713.76 648.092 1714.72 650.064M1474.59 648.96C1474.59 649.09 1474.92 649.695 1475.32 650.303C1475.74 650.942 1475.96 651.964 1475.85 652.729C1475.74 653.456 1475.82 653.949 1476.02 653.824C1476.54 653.502 1476.48 650.618 1475.92 649.586C1475.5 648.8 1474.59 648.372 1474.59 648.96M1588.78 652.126C1588.6 652.307 1588.45 655.548 1588.45 659.328L1588.45 666.201L1590.13 666.194C1594.52 666.177 1596.51 661.796 1595.9 657.901C1595.48 655.153 1593.76 652.645 1590.68 652.084C1589.82 651.926 1588.96 651.945 1588.78 652.126M1696.03 654.995L1696.03 658.133L1697.93 658.127C1700.81 658.117 1701.73 657.729 1702.33 656.276C1703.41 653.668 1701.55 651.857 1697.79 651.857L1696.03 651.857L1696.03 654.995M1459.35 656.649C1460.26 656.965 1458.73 657.608 1456.97 657.653C1455.76 657.683 1454.21 656.702 1454.7 656.215C1454.95 655.962 1458.28 656.272 1459.35 656.649M1463.61 660.276C1463.61 660.552 1463.85 661.013 1464.14 661.303C1465.83 662.993 1461.99 665.753 1457.96 665.753C1455.07 665.753 1451.28 663.934 1451.28 662.55C1451.28 662.31 1451.03 662.244 1450.72 662.404C1450.42 662.562 1450.67 662.267 1451.28 661.747C1452.15 661.016 1452.71 660.877 1453.75 661.134C1457.17 661.976 1463.21 661.277 1462.76 660.094C1462.59 659.661 1462.7 659.472 1463.05 659.589C1463.36 659.691 1463.61 660.002 1463.61 660.276M1459.24 673.255C1457.05 673.427 1456.76 673.683 1455.75 676.319L1455.29 677.533L1456.89 676.315C1457.77 675.644 1459.34 674.61 1460.38 674.016C1461.42 673.421 1462.06 672.969 1461.82 673.011C1461.57 673.052 1460.41 673.161 1459.24 673.255M1407.02 684.012C1405.38 684.159 1404.19 685.028 1405.63 685.028C1405.92 685.028 1406.86 685.571 1407.73 686.235C1408.7 686.973 1409.96 687.473 1410.98 687.524C1411.89 687.567 1412.84 687.729 1413.09 687.884C1413.43 688.094 1414.53 686.067 1414.53 685.229C1414.53 684.482 1409.99 683.747 1407.02 684.012M1821.44 745.093C1821.37 752.983 1821.47 759.438 1821.65 759.438C1821.84 759.438 1821.99 752.983 1821.99 745.093C1821.99 737.204 1821.89 730.75 1821.78 730.75C1821.66 730.75 1821.51 737.204 1821.44 745.093M1318.36 732.076C1319.43 733.259 1319.11 734.743 1316.41 741.088C1313.09 748.867 1308.82 758.043 1308.27 758.542C1308.13 758.664 1307.54 759.471 1306.96 760.335C1303.35 765.649 1297.11 769.673 1291.03 770.615C1279.86 772.345 1274.14 772.96 1273.42 772.504C1272.96 772.21 1273.1 770.502 1274.16 763.882C1274.88 759.342 1275.62 754.624 1275.79 753.397C1276.94 745.153 1288.88 737.506 1307.62 733.001C1315.76 731.043 1317.31 730.911 1318.36 732.076M1821.54 768.368C1821.54 773.464 1821.49 773.777 1820.38 775.092L1819.22 776.471L1820.6 776.471L1821.99 776.471L1821.99 769.747C1821.99 766.05 1821.89 763.024 1821.77 763.024C1821.64 763.024 1821.54 765.429 1821.54 768.368M1619.29 650.176L1619.43 652.306L1614.92 652.306L1610.41 652.306L1610.41 654.547L1610.41 656.788L1614.22 656.788L1618.03 656.788L1618.03 658.786L1618.03 660.786L1614.34 660.915L1610.64 661.046L1610.5 663.624L1610.37 666.201L1615.1 666.201L1619.83 666.201L1619.83 668.218L1619.83 670.235L1612.66 670.235L1605.48 670.235L1605.48 659.328C1605.48 653.328 1605.62 648.28 1605.79 648.111C1605.96 647.94 1609.04 647.855 1612.63 647.924L1619.15 648.047L1619.29 650.176" fill="#fc814a" fill-rule="evenodd" opacity="1" stroke="none"/>
<path d="M1467.83 632.756C1467.73 632.852 1462.95 633.021 1457.22 633.135C1445.14 633.372 1446.47 632.862 1445.63 637.577C1445.26 639.637 1444.67 641.878 1444.33 642.555C1443.62 643.951 1444.08 644.127 1445.68 643.078C1446.27 642.686 1446.97 642.496 1447.23 642.656C1447.49 642.815 1447.7 642.745 1447.7 642.502C1447.7 640.246 1458.31 639.845 1465.4 641.832C1469.02 642.848 1470.67 642.907 1471.3 642.046C1471.75 641.429 1472.03 641.413 1473.47 641.932C1475.64 642.719 1475.61 642.855 1474.51 637.372L1473.54 632.582L1470.78 632.582C1469.26 632.582 1467.93 632.661 1467.83 632.756M1434.36 633.787C1434.79 633.901 1435.5 633.901 1435.93 633.787C1436.36 633.675 1436.01 633.583 1435.15 633.583C1434.28 633.583 1433.93 633.675 1434.36 633.787M1494.49 666.873C1494.5 670.571 1494.57 672.025 1494.65 670.103C1494.73 668.181 1494.73 665.155 1494.65 663.379C1494.56 661.602 1494.49 663.175 1494.49 666.873M1462.32 673.136C1460.18 673.898 1454.5 677.762 1453.92 678.853C1453.34 679.932 1447.8 684.06 1443.18 686.858C1438.69 689.575 1434.4 689.342 1417.35 685.456C1414.68 684.847 1414.65 684.857 1414.07 686.637C1413.41 688.624 1413.47 688.683 1417.89 690.167C1426.38 693.02 1431.87 694.994 1432.97 695.592C1434.73 696.539 1446.91 696.513 1447.7 695.562C1448 695.191 1448.53 694.889 1448.87 694.889C1449.21 694.889 1449.49 695.191 1449.49 695.562C1449.49 696.151 1451.92 696.221 1469.1 696.132C1479.89 696.076 1484.64 695.971 1479.67 695.898L1470.62 695.767L1470.18 693.423C1469.93 692.134 1469.3 687.952 1468.77 684.132C1467.3 673.447 1466.29 671.722 1462.32 673.136M1490.06 695.129C1489.32 695.468 1489.03 695.754 1489.41 695.766C1489.8 695.777 1490.5 695.49 1490.98 695.128C1492.04 694.323 1491.82 694.325 1490.06 695.129M1376.37 695.908C1376.56 696.098 1380.83 696.198 1385.87 696.131L1395.03 696.008L1385.52 695.784C1380.3 695.662 1376.18 695.717 1376.37 695.908M1409.93 696.11C1410.73 696.21 1412.05 696.21 1412.85 696.11C1413.65 696.01 1412.99 695.929 1411.39 695.929C1409.79 695.929 1409.13 696.01 1409.93 696.11M1803.05 730.638C1803 741.177 1802.95 751.817 1802.94 754.283L1802.94 758.766L1812.24 758.886L1821.54 759.007L1821.54 737.012C1821.54 709.121 1822.56 711.474 1810.54 711.474L1803.16 711.474L1803.05 730.638" fill="#ffffff" fill-rule="evenodd" opacity="1" stroke="none"/>
<path d="M1572.73 635.339L1741.87 635.339L1741.87 682.888L1572.73 682.888L1572.73 635.339Z" fill="#fc814a" fill-rule="nonzero" opacity="1" stroke="none"/>
</g>
</g>
<g id="Layer-3" vectornator:layerName="Layer 3">
<path d="M1428.11 632.304L1461.86 632.304L1495.61 632.304L1495.61 664.955L1495.61 697.605L1461.86 697.605L1366.76 697.432L1373.2 686.001L1428.11 632.304Z" fill="#1f1f27" fill-rule="nonzero" opacity="1" stroke="none"/>
</g>
<g id="Layer-5" vectornator:layerName="Layer 5">
<path d="M1340 705.71L1369.13 681.346L1373.03 685.83L1343.9 710.193L1340 705.71Z" fill="#fc814a" fill-rule="nonzero" opacity="1" stroke="none"/>
</g>
<g id="Layer-6" vectornator:layerName="Layer 6">
<path d="M1801.94 711.217L1807.03 711.217L1812.13 711.217L1817.22 711.217L1821.22 711.263L1822.31 727.537L1822.31 743.858L1822.31 760.178L1822.31 776.498L1817.22 776.498L1812.13 776.498L1807.03 776.498L1801.94 776.498L1801.94 760.178L1801.94 743.858L1801.94 727.537L1801.94 711.217Z" fill="#0f0f0f" fill-rule="nonzero" opacity="1" stroke="none"/>
<g fill="#ffffff" fill-opacity="0.59092" opacity="1" stroke="none">
<path clip-path="url(#TextBounds)" d="M1549.99 666.689C1548.54 666.689 1547.31 666.433 1546.28 665.919C1545.25 665.406 1544.47 664.683 1543.94 663.749C1543.4 662.816 1543.13 661.731 1543.13 660.494C1543.13 660.238 1543.14 659.975 1543.15 659.707C1543.16 659.438 1543.19 659.153 1543.24 658.849C1541.44 658.826 1539.81 658.488 1538.34 657.834C1536.87 657.181 1535.6 656.294 1534.54 655.174C1533.48 654.054 1532.66 652.753 1532.09 651.272C1531.52 649.79 1531.23 648.209 1531.23 646.529C1531.23 644.803 1531.53 643.193 1532.12 641.699C1532.72 640.206 1533.57 638.893 1534.68 637.762C1535.79 636.63 1537.12 635.743 1538.69 635.102C1540.25 634.46 1541.99 634.139 1543.9 634.139C1545.81 634.139 1547.55 634.443 1549.12 635.049C1550.68 635.656 1552.02 636.519 1553.14 637.639C1554.26 638.759 1555.12 640.054 1555.71 641.524C1556.31 642.994 1556.61 644.593 1556.61 646.319L1556.61 659.794C1556.61 661.031 1556.37 662.174 1555.89 663.224C1555.41 664.274 1554.68 665.114 1553.7 665.744C1552.72 666.374 1551.48 666.689 1549.99 666.689ZM1549.68 661.684C1550.12 661.684 1550.46 661.503 1550.71 661.142C1550.95 660.78 1551.08 660.308 1551.08 659.724L1551.08 654.019C1550.4 654.603 1549.87 655.186 1549.48 655.769C1549.1 656.353 1548.82 656.901 1548.66 657.414C1548.5 657.928 1548.4 658.383 1548.36 658.779C1548.33 659.176 1548.31 659.491 1548.31 659.724C1548.31 660.144 1548.37 660.5 1548.49 660.792C1548.6 661.083 1548.77 661.305 1548.99 661.457C1549.22 661.608 1549.44 661.684 1549.68 661.684ZM1543.69 653.879C1543.95 653.879 1544.19 653.868 1544.41 653.844C1544.63 653.821 1544.86 653.786 1545.09 653.739C1545.51 653.109 1546 652.485 1546.56 651.867C1547.12 651.248 1547.75 650.648 1548.45 650.064C1549.15 649.481 1549.92 648.933 1550.76 648.419L1550.76 646.144C1550.76 645.141 1550.59 644.208 1550.25 643.344C1549.92 642.481 1549.44 641.734 1548.82 641.104C1548.2 640.474 1547.48 639.984 1546.65 639.634C1545.82 639.284 1544.92 639.109 1543.94 639.109C1542.96 639.109 1542.05 639.29 1541.22 639.652C1540.4 640.013 1539.67 640.533 1539.05 641.209C1538.44 641.886 1537.96 642.673 1537.62 643.572C1537.28 644.47 1537.11 645.444 1537.11 646.494C1537.11 647.544 1537.27 648.513 1537.58 649.399C1537.9 650.286 1538.35 651.062 1538.95 651.727C1539.54 652.392 1540.24 652.911 1541.05 653.284C1541.85 653.658 1542.73 653.856 1543.69 653.879Z"/>
<path clip-path="url(#TextBounds)" d="M1560.11 659.059L1560.11 646.389C1560.11 644.756 1560.57 643.473 1561.51 642.539C1562.44 641.606 1563.73 641.139 1565.39 641.139L1570.61 641.139L1570.61 645.549L1566.72 645.549C1566.39 645.549 1566.11 645.66 1565.88 645.882C1565.65 646.103 1565.53 646.389 1565.53 646.739L1565.53 659.059L1560.11 659.059Z"/>
<path clip-path="url(#TextBounds)" d="M1582.4 659.059C1580.37 659.059 1578.59 658.68 1577.05 657.922C1575.51 657.163 1574.31 656.113 1573.46 654.772C1572.61 653.43 1572.18 651.873 1572.18 650.099C1572.18 648.139 1572.59 646.459 1573.41 645.059C1574.22 643.659 1575.31 642.58 1576.68 641.822C1578.04 641.063 1579.55 640.684 1581.21 640.684C1583.1 640.684 1584.68 641.081 1585.95 641.874C1587.23 642.668 1588.19 643.747 1588.84 645.112C1589.49 646.477 1589.82 648.034 1589.82 649.784C1589.82 650.088 1589.8 650.443 1589.77 650.852C1589.73 651.26 1589.69 651.581 1589.65 651.814L1577.89 651.814C1578.03 652.421 1578.29 652.934 1578.69 653.354C1579.09 653.774 1579.59 654.083 1580.2 654.282C1580.8 654.48 1581.48 654.579 1582.23 654.579L1587.72 654.579L1587.72 659.059L1582.4 659.059ZM1577.75 648.419L1584.57 648.419C1584.52 648.046 1584.45 647.684 1584.36 647.334C1584.27 646.984 1584.12 646.675 1583.92 646.407C1583.73 646.138 1583.5 645.905 1583.24 645.707C1582.98 645.508 1582.69 645.351 1582.35 645.234C1582.01 645.118 1581.63 645.059 1581.21 645.059C1580.67 645.059 1580.2 645.153 1579.78 645.339C1579.36 645.526 1579.01 645.777 1578.73 646.092C1578.45 646.407 1578.23 646.768 1578.08 647.177C1577.93 647.585 1577.82 647.999 1577.75 648.419Z"/>
<path clip-path="url(#TextBounds)" d="M1600.18 659.479C1598.59 659.479 1597.19 659.071 1595.98 658.254C1594.77 657.438 1593.82 656.335 1593.15 654.947C1592.47 653.558 1592.13 651.989 1592.13 650.239C1592.13 648.419 1592.53 646.792 1593.32 645.357C1594.11 643.922 1595.24 642.784 1596.7 641.944C1598.16 641.104 1599.88 640.684 1601.86 640.684C1603.87 640.684 1605.58 641.098 1606.99 641.927C1608.4 642.755 1609.49 643.887 1610.24 645.322C1611 646.757 1611.38 648.361 1611.38 650.134L1611.38 659.059L1606.06 659.059L1606.06 656.189L1605.92 656.189C1605.59 656.819 1605.17 657.385 1604.66 657.887C1604.15 658.388 1603.52 658.779 1602.79 659.059C1602.05 659.339 1601.18 659.479 1600.18 659.479ZM1601.79 654.789C1602.61 654.789 1603.33 654.585 1603.94 654.177C1604.56 653.768 1605.03 653.203 1605.36 652.479C1605.69 651.756 1605.85 650.951 1605.85 650.064C1605.85 649.201 1605.69 648.419 1605.36 647.719C1605.03 647.019 1604.56 646.465 1603.94 646.057C1603.33 645.648 1602.61 645.444 1601.79 645.444C1600.95 645.444 1600.22 645.648 1599.59 646.057C1598.96 646.465 1598.48 647.019 1598.15 647.719C1597.82 648.419 1597.66 649.201 1597.66 650.064C1597.66 650.951 1597.82 651.756 1598.15 652.479C1598.48 653.203 1598.96 653.768 1599.59 654.177C1600.22 654.585 1600.95 654.789 1601.79 654.789Z"/>
<path clip-path="url(#TextBounds)" d="M1621.99 659.059C1620.33 659.059 1619.03 658.587 1618.1 657.642C1617.17 656.697 1616.7 655.419 1616.7 653.809L1616.7 636.729L1622.16 636.729L1622.16 653.494C1622.16 653.774 1622.26 654.013 1622.46 654.212C1622.66 654.41 1622.9 654.509 1623.18 654.509L1627.1 654.509L1627.1 659.059L1621.99 659.059ZM1613.76 645.549L1613.76 641.104L1627.1 641.104L1627.1 645.549L1613.76 645.549Z"/>
<path clip-path="url(#TextBounds)" d="M1651.7 659.059C1649.69 659.036 1647.89 658.709 1646.28 658.079C1644.67 657.449 1643.3 656.586 1642.18 655.489C1641.06 654.393 1640.2 653.103 1639.59 651.622C1638.98 650.14 1638.68 648.536 1638.68 646.809C1638.68 645.083 1638.98 643.478 1639.59 641.997C1640.2 640.515 1641.07 639.226 1642.2 638.129C1643.33 637.033 1644.7 636.169 1646.29 635.539C1647.89 634.909 1649.69 634.583 1651.7 634.559L1655.48 634.559L1655.48 639.459L1651.84 639.459C1650.74 639.483 1649.75 639.681 1648.85 640.054C1647.95 640.428 1647.18 640.941 1646.54 641.594C1645.9 642.248 1645.41 643.018 1645.07 643.904C1644.73 644.791 1644.56 645.759 1644.56 646.809C1644.56 647.859 1644.73 648.828 1645.07 649.714C1645.41 650.601 1645.9 651.371 1646.54 652.024C1647.18 652.678 1647.95 653.191 1648.85 653.564C1649.75 653.938 1650.74 654.136 1651.84 654.159L1655.48 654.159L1655.48 659.059L1651.7 659.059Z"/>
<path clip-path="url(#TextBounds)" d="M1667.59 659.479C1665.75 659.479 1664.09 659.071 1662.62 658.254C1661.15 657.438 1659.99 656.318 1659.14 654.894C1658.29 653.471 1657.86 651.873 1657.86 650.099C1657.86 648.303 1658.29 646.698 1659.14 645.287C1659.99 643.875 1661.15 642.755 1662.62 641.927C1664.09 641.098 1665.75 640.684 1667.59 640.684C1669.43 640.684 1671.09 641.098 1672.54 641.927C1674 642.755 1675.16 643.875 1676.01 645.287C1676.86 646.698 1677.29 648.303 1677.29 650.099C1677.29 651.873 1676.86 653.471 1676.01 654.894C1675.16 656.318 1674 657.438 1672.53 658.254C1671.06 659.071 1669.41 659.479 1667.59 659.479ZM1667.59 654.754C1668.45 654.754 1669.2 654.544 1669.83 654.124C1670.46 653.704 1670.95 653.144 1671.3 652.444C1671.65 651.744 1671.83 650.951 1671.83 650.064C1671.83 649.201 1671.65 648.419 1671.3 647.719C1670.95 647.019 1670.46 646.459 1669.83 646.039C1669.2 645.619 1668.45 645.409 1667.59 645.409C1666.73 645.409 1665.98 645.619 1665.33 646.039C1664.69 646.459 1664.2 647.019 1663.85 647.719C1663.5 648.419 1663.32 649.201 1663.32 650.064C1663.32 650.951 1663.5 651.744 1663.85 652.444C1664.2 653.144 1664.69 653.704 1665.33 654.124C1665.98 654.544 1666.73 654.754 1667.59 654.754Z"/>
<path clip-path="url(#TextBounds)" d="M1680.51 659.059L1680.51 648.454C1680.51 646.984 1680.85 645.66 1681.54 644.482C1682.23 643.303 1683.21 642.376 1684.5 641.699C1685.78 641.023 1687.31 640.684 1689.08 640.684C1689.97 640.684 1690.78 640.783 1691.53 640.982C1692.28 641.18 1692.96 641.448 1693.58 641.787C1694.2 642.125 1694.73 642.528 1695.17 642.994L1695.24 642.994C1695.71 642.528 1696.25 642.125 1696.87 641.787C1697.49 641.448 1698.18 641.18 1698.93 640.982C1699.69 640.783 1700.51 640.684 1701.4 640.684C1703.17 640.684 1704.7 641.023 1705.99 641.699C1707.27 642.376 1708.26 643.303 1708.96 644.482C1709.66 645.66 1710.01 646.984 1710.01 648.454L1710.01 659.059L1704.55 659.059L1704.55 648.629C1704.55 648.046 1704.41 647.515 1704.11 647.037C1703.82 646.558 1703.43 646.168 1702.94 645.864C1702.45 645.561 1701.89 645.409 1701.26 645.409C1700.63 645.409 1700.07 645.561 1699.56 645.864C1699.06 646.168 1698.67 646.558 1698.39 647.037C1698.11 647.515 1697.97 648.046 1697.97 648.629L1697.97 659.059L1692.55 659.059L1692.55 648.629C1692.55 648.046 1692.4 647.515 1692.11 647.037C1691.82 646.558 1691.42 646.168 1690.92 645.864C1690.42 645.561 1689.85 645.409 1689.22 645.409C1688.59 645.409 1688.03 645.561 1687.52 645.864C1687.02 646.168 1686.63 646.558 1686.35 647.037C1686.07 647.515 1685.93 648.046 1685.93 648.629L1685.93 659.059L1680.51 659.059Z"/>
<path clip-path="url(#TextBounds)" d="M1722.86 659.059C1720.99 659.059 1719.33 658.668 1717.89 657.887C1716.44 657.105 1715.3 656.043 1714.46 654.702C1713.62 653.36 1713.2 651.826 1713.2 650.099C1713.2 648.373 1713.62 646.838 1714.46 645.497C1715.3 644.155 1716.44 643.088 1717.89 642.294C1719.33 641.501 1720.99 641.104 1722.86 641.104L1725.55 641.104L1725.55 645.689L1723.07 645.689C1722.16 645.689 1721.37 645.882 1720.72 646.267C1720.07 646.652 1719.56 647.177 1719.2 647.842C1718.84 648.507 1718.66 649.259 1718.66 650.099C1718.66 650.939 1718.84 651.692 1719.2 652.357C1719.56 653.022 1720.07 653.547 1720.72 653.932C1721.37 654.317 1722.16 654.509 1723.07 654.509L1725.55 654.509L1725.55 659.059L1722.86 659.059Z"/>
<path clip-path="url(#TextBounds)" d="M1735.77 659.479C1734.18 659.479 1732.78 659.071 1731.57 658.254C1730.36 657.438 1729.41 656.335 1728.74 654.947C1728.06 653.558 1727.72 651.989 1727.72 650.239C1727.72 648.419 1728.12 646.792 1728.91 645.357C1729.7 643.922 1730.83 642.784 1732.29 641.944C1733.75 641.104 1735.47 640.684 1737.45 640.684C1739.46 640.684 1741.17 641.098 1742.58 641.927C1743.99 642.755 1745.08 643.887 1745.83 645.322C1746.59 646.757 1746.97 648.361 1746.97 650.134L1746.97 659.059L1741.65 659.059L1741.65 656.189L1741.51 656.189C1741.18 656.819 1740.76 657.385 1740.25 657.887C1739.74 658.388 1739.11 658.779 1738.38 659.059C1737.64 659.339 1736.77 659.479 1735.77 659.479ZM1737.38 654.789C1738.2 654.789 1738.92 654.585 1739.53 654.177C1740.15 653.768 1740.62 653.203 1740.95 652.479C1741.28 651.756 1741.44 650.951 1741.44 650.064C1741.44 649.201 1741.28 648.419 1740.95 647.719C1740.62 647.019 1740.15 646.465 1739.53 646.057C1738.92 645.648 1738.2 645.444 1737.38 645.444C1736.54 645.444 1735.81 645.648 1735.18 646.057C1734.55 646.465 1734.07 647.019 1733.74 647.719C1733.41 648.419 1733.25 649.201 1733.25 650.064C1733.25 650.951 1733.41 651.756 1733.74 652.479C1734.07 653.203 1734.55 653.768 1735.18 654.177C1735.81 654.585 1736.54 654.789 1737.38 654.789Z"/>
<path clip-path="url(#TextBounds)" d="M1757.58 659.059C1755.92 659.059 1754.62 658.587 1753.69 657.642C1752.76 656.697 1752.29 655.419 1752.29 653.809L1752.29 636.729L1757.75 636.729L1757.75 653.494C1757.75 653.774 1757.85 654.013 1758.05 654.212C1758.25 654.41 1758.49 654.509 1758.77 654.509L1762.69 654.509L1762.69 659.059L1757.58 659.059ZM1749.35 645.549L1749.35 641.104L1762.69 641.104L1762.69 645.549L1749.35 645.549Z"/>
<path clip-path="url(#TextBounds)" d="M1538.9 715.059C1537.52 715.059 1536.27 714.738 1535.15 714.097C1534.03 713.455 1533.14 712.592 1532.47 711.507C1531.81 710.422 1531.48 709.191 1531.48 707.814C1531.48 706.788 1531.7 705.825 1532.16 704.927C1532.61 704.028 1533.23 703.253 1534 702.599C1533.25 701.969 1532.66 701.223 1532.23 700.359C1531.8 699.496 1531.58 698.586 1531.58 697.629C1531.58 696.276 1531.91 695.068 1532.56 694.007C1533.21 692.945 1534.09 692.105 1535.19 691.487C1536.28 690.868 1537.5 690.559 1538.83 690.559L1549.15 690.559L1549.15 695.494L1539.74 695.459C1539.29 695.459 1538.88 695.564 1538.51 695.774C1538.14 695.984 1537.84 696.264 1537.62 696.614C1537.4 696.964 1537.29 697.373 1537.29 697.839C1537.29 698.283 1537.4 698.685 1537.62 699.047C1537.84 699.408 1538.14 699.688 1538.51 699.887C1538.88 700.085 1539.29 700.184 1539.74 700.184L1547.96 700.184L1547.96 705.084L1539.91 705.084C1539.42 705.084 1538.98 705.201 1538.58 705.434C1538.18 705.668 1537.87 705.971 1537.64 706.344C1537.4 706.718 1537.29 707.149 1537.29 707.639C1537.29 708.106 1537.4 708.532 1537.64 708.917C1537.87 709.302 1538.18 709.599 1538.58 709.809C1538.98 710.019 1539.42 710.124 1539.91 710.124L1549.15 710.124L1549.15 715.059L1538.9 715.059Z"/>
<path clip-path="url(#TextBounds)" d="M1552.55 715.059L1552.55 704.734C1552.55 703.241 1552.91 701.888 1553.63 700.674C1554.35 699.461 1555.39 698.493 1556.73 697.769C1558.07 697.046 1559.66 696.684 1561.51 696.684C1563.37 696.684 1564.97 697.046 1566.28 697.769C1567.6 698.493 1568.61 699.461 1569.31 700.674C1570.01 701.888 1570.36 703.241 1570.36 704.734L1570.36 715.059L1564.94 715.059L1564.94 704.874C1564.94 704.244 1564.78 703.667 1564.48 703.142C1564.18 702.617 1563.76 702.197 1563.24 701.882C1562.71 701.567 1562.12 701.409 1561.47 701.409C1560.79 701.409 1560.19 701.567 1559.67 701.882C1559.14 702.197 1558.73 702.617 1558.43 703.142C1558.12 703.667 1557.97 704.244 1557.97 704.874L1557.97 715.059L1552.55 715.059Z"/>
<path clip-path="url(#TextBounds)" d="M1577.15 722.164L1577.15 717.509L1586.11 717.509C1586.46 717.509 1586.75 717.398 1586.99 717.177C1587.22 716.955 1587.34 716.681 1587.34 716.354L1587.34 712.399L1587.23 712.399C1586.76 712.936 1586.27 713.391 1585.74 713.764C1585.22 714.138 1584.64 714.418 1583.99 714.604C1583.35 714.791 1582.63 714.884 1581.84 714.884C1580.25 714.884 1578.84 714.505 1577.59 713.747C1576.34 712.988 1575.36 711.933 1574.65 710.579C1573.94 709.226 1573.58 707.686 1573.58 705.959C1573.58 704.256 1573.95 702.704 1574.68 701.304C1575.42 699.904 1576.5 698.784 1577.92 697.944C1579.34 697.104 1581.08 696.684 1583.14 696.684C1585.1 696.684 1586.79 697.087 1588.23 697.892C1589.66 698.697 1590.78 699.828 1591.57 701.287C1592.36 702.745 1592.76 704.454 1592.76 706.414L1592.76 716.914C1592.76 718.524 1592.29 719.802 1591.34 720.747C1590.4 721.692 1589.1 722.164 1587.44 722.164L1577.15 722.164ZM1583.17 710.334C1584.01 710.334 1584.73 710.142 1585.34 709.757C1585.95 709.372 1586.41 708.853 1586.74 708.199C1587.07 707.546 1587.23 706.823 1587.23 706.029C1587.23 705.189 1587.07 704.419 1586.74 703.719C1586.41 703.019 1585.95 702.465 1585.34 702.057C1584.73 701.648 1584.01 701.444 1583.17 701.444C1582.35 701.444 1581.64 701.643 1581.02 702.039C1580.4 702.436 1579.93 702.973 1579.6 703.649C1579.27 704.326 1579.11 705.084 1579.11 705.924C1579.11 706.741 1579.27 707.482 1579.6 708.147C1579.93 708.812 1580.4 709.343 1581.02 709.739C1581.64 710.136 1582.35 710.334 1583.17 710.334Z"/>
<path clip-path="url(#TextBounds)" d="M1596.68 715.059L1596.68 697.104L1602.14 697.104L1602.14 715.059L1596.68 715.059ZM1599.41 695.074C1598.55 695.074 1597.8 694.759 1597.17 694.129C1596.54 693.499 1596.23 692.753 1596.23 691.889C1596.23 691.026 1596.54 690.273 1597.17 689.632C1597.8 688.99 1598.55 688.669 1599.41 688.669C1600.27 688.669 1601.02 688.99 1601.65 689.632C1602.28 690.273 1602.6 691.026 1602.6 691.889C1602.6 692.753 1602.28 693.499 1601.65 694.129C1601.02 694.759 1600.27 695.074 1599.41 695.074Z"/>
<path clip-path="url(#TextBounds)" d="M1606.13 715.059L1606.13 704.734C1606.13 703.241 1606.49 701.888 1607.22 700.674C1607.94 699.461 1608.97 698.493 1610.31 697.769C1611.66 697.046 1613.25 696.684 1615.09 696.684C1616.96 696.684 1618.55 697.046 1619.87 697.769C1621.19 698.493 1622.2 699.461 1622.9 700.674C1623.6 701.888 1623.95 703.241 1623.95 704.734L1623.95 715.059L1618.52 715.059L1618.52 704.874C1618.52 704.244 1618.37 703.667 1618.07 703.142C1617.76 702.617 1617.35 702.197 1616.82 701.882C1616.3 701.567 1615.71 701.409 1615.06 701.409C1614.38 701.409 1613.78 701.567 1613.25 701.882C1612.73 702.197 1612.31 702.617 1612.01 703.142C1611.71 703.667 1611.56 704.244 1611.56 704.874L1611.56 715.059L1606.13 715.059Z"/>
<path clip-path="url(#TextBounds)" d="M1637.39 715.059C1635.36 715.059 1633.57 714.68 1632.03 713.922C1630.49 713.163 1629.3 712.113 1628.44 710.772C1627.59 709.43 1627.17 707.873 1627.17 706.099C1627.17 704.139 1627.57 702.459 1628.39 701.059C1629.21 699.659 1630.3 698.58 1631.66 697.822C1633.03 697.063 1634.54 696.684 1636.2 696.684C1638.09 696.684 1639.67 697.081 1640.94 697.874C1642.21 698.668 1643.17 699.747 1643.83 701.112C1644.48 702.477 1644.81 704.034 1644.81 705.784C1644.81 706.088 1644.79 706.443 1644.75 706.852C1644.72 707.26 1644.68 707.581 1644.63 707.814L1632.87 707.814C1633.01 708.421 1633.28 708.934 1633.68 709.354C1634.07 709.774 1634.57 710.083 1635.18 710.282C1635.79 710.48 1636.46 710.579 1637.21 710.579L1642.71 710.579L1642.71 715.059L1637.39 715.059ZM1632.73 704.419L1639.56 704.419C1639.51 704.046 1639.44 703.684 1639.35 703.334C1639.25 702.984 1639.11 702.675 1638.91 702.407C1638.71 702.138 1638.48 701.905 1638.23 701.707C1637.97 701.508 1637.67 701.351 1637.33 701.234C1637 701.118 1636.62 701.059 1636.2 701.059C1635.66 701.059 1635.18 701.153 1634.76 701.339C1634.34 701.526 1633.99 701.777 1633.71 702.092C1633.43 702.407 1633.22 702.768 1633.06 703.177C1632.91 703.585 1632.8 703.999 1632.73 704.419Z"/>
<path clip-path="url(#TextBounds)" d="M1657.34 715.059C1655.31 715.059 1653.52 714.68 1651.98 713.922C1650.44 713.163 1649.25 712.113 1648.39 710.772C1647.54 709.43 1647.12 707.873 1647.12 706.099C1647.12 704.139 1647.52 702.459 1648.34 701.059C1649.16 699.659 1650.25 698.58 1651.61 697.822C1652.98 697.063 1654.49 696.684 1656.15 696.684C1658.04 696.684 1659.62 697.081 1660.89 697.874C1662.16 698.668 1663.12 699.747 1663.78 701.112C1664.43 702.477 1664.76 704.034 1664.76 705.784C1664.76 706.088 1664.74 706.443 1664.7 706.852C1664.67 707.26 1664.63 707.581 1664.58 707.814L1652.82 707.814C1652.96 708.421 1653.23 708.934 1653.63 709.354C1654.02 709.774 1654.52 710.083 1655.13 710.282C1655.74 710.48 1656.41 710.579 1657.16 710.579L1662.66 710.579L1662.66 715.059L1657.34 715.059ZM1652.68 704.419L1659.51 704.419C1659.46 704.046 1659.39 703.684 1659.3 703.334C1659.2 702.984 1659.06 702.675 1658.86 702.407C1658.66 702.138 1658.43 701.905 1658.18 701.707C1657.92 701.508 1657.62 701.351 1657.28 701.234C1656.95 701.118 1656.57 701.059 1656.15 701.059C1655.61 701.059 1655.13 701.153 1654.71 701.339C1654.29 701.526 1653.94 701.777 1653.66 702.092C1653.38 702.407 1653.17 702.768 1653.01 703.177C1652.86 703.585 1652.75 703.999 1652.68 704.419Z"/>
<path clip-path="url(#TextBounds)" d="M1667.77 715.059L1667.77 702.389C1667.77 700.756 1668.23 699.473 1669.17 698.539C1670.1 697.606 1671.39 697.139 1673.05 697.139L1678.27 697.139L1678.27 701.549L1674.38 701.549C1674.05 701.549 1673.77 701.66 1673.54 701.882C1673.31 702.103 1673.19 702.389 1673.19 702.739L1673.19 715.059L1667.77 715.059Z"/>
<path clip-path="url(#TextBounds)" d="M1680.68 715.059L1680.68 697.104L1686.14 697.104L1686.14 715.059L1680.68 715.059ZM1683.41 695.074C1682.55 695.074 1681.8 694.759 1681.17 694.129C1680.54 693.499 1680.23 692.753 1680.23 691.889C1680.23 691.026 1680.54 690.273 1681.17 689.632C1681.8 688.99 1682.55 688.669 1683.41 688.669C1684.27 688.669 1685.02 688.99 1685.65 689.632C1686.28 690.273 1686.6 691.026 1686.6 691.889C1686.6 692.753 1686.28 693.499 1685.65 694.129C1685.02 694.759 1684.27 695.074 1683.41 695.074Z"/>
<path clip-path="url(#TextBounds)" d="M1690.13 715.059L1690.13 704.734C1690.13 703.241 1690.49 701.888 1691.22 700.674C1691.94 699.461 1692.97 698.493 1694.31 697.769C1695.66 697.046 1697.25 696.684 1699.09 696.684C1700.96 696.684 1702.55 697.046 1703.87 697.769C1705.19 698.493 1706.2 699.461 1706.9 700.674C1707.6 701.888 1707.95 703.241 1707.95 704.734L1707.95 715.059L1702.52 715.059L1702.52 704.874C1702.52 704.244 1702.37 703.667 1702.07 703.142C1701.76 702.617 1701.35 702.197 1700.82 701.882C1700.3 701.567 1699.71 701.409 1699.06 701.409C1698.38 701.409 1697.78 701.567 1697.25 701.882C1696.73 702.197 1696.31 702.617 1696.01 703.142C1695.71 703.667 1695.56 704.244 1695.56 704.874L1695.56 715.059L1690.13 715.059Z"/>
<path clip-path="url(#TextBounds)" d="M1714.74 722.164L1714.74 717.509L1723.7 717.509C1724.05 717.509 1724.34 717.398 1724.57 717.177C1724.8 716.955 1724.92 716.681 1724.92 716.354L1724.92 712.399L1724.82 712.399C1724.35 712.936 1723.85 713.391 1723.33 713.764C1722.8 714.138 1722.22 714.418 1721.58 714.604C1720.94 714.791 1720.22 714.884 1719.43 714.884C1717.84 714.884 1716.42 714.505 1715.17 713.747C1713.93 712.988 1712.95 711.933 1712.23 710.579C1711.52 709.226 1711.17 707.686 1711.17 705.959C1711.17 704.256 1711.53 702.704 1712.27 701.304C1713 699.904 1714.08 698.784 1715.51 697.944C1716.93 697.104 1718.67 696.684 1720.72 696.684C1722.68 696.684 1724.38 697.087 1725.81 697.892C1727.25 698.697 1728.36 699.828 1729.16 701.287C1729.95 702.745 1730.35 704.454 1730.35 706.414L1730.35 716.914C1730.35 718.524 1729.87 719.802 1728.93 720.747C1727.98 721.692 1726.68 722.164 1725.03 722.164L1714.74 722.164ZM1720.76 710.334C1721.6 710.334 1722.32 710.142 1722.93 709.757C1723.53 709.372 1724 708.853 1724.33 708.199C1724.65 707.546 1724.82 706.823 1724.82 706.029C1724.82 705.189 1724.65 704.419 1724.33 703.719C1724 703.019 1723.53 702.465 1722.93 702.057C1722.32 701.648 1721.6 701.444 1720.76 701.444C1719.94 701.444 1719.22 701.643 1718.6 702.039C1717.99 702.436 1717.51 702.973 1717.19 703.649C1716.86 704.326 1716.7 705.084 1716.7 705.924C1716.7 706.741 1716.86 707.482 1717.19 708.147C1717.51 708.812 1717.99 709.343 1718.6 709.739C1719.22 710.136 1719.94 710.334 1720.76 710.334Z"/>
</g>
</g>
</svg>
