<?xml version="1.0" encoding="UTF-8" standalone="no"?>
<!DOCTYPE svg PUBLIC "-//W3C//DTD SVG 1.1//EN" "http://www.w3.org/Graphics/SVG/1.1/DTD/svg11.dtd">
<!-- Created with Vectornator (http://vectornator.io/) -->
<svg height="100%" stroke-miterlimit="10" style="fill-rule:nonzero;clip-rule:evenodd;stroke-linecap:round;stroke-linejoin:round;" version="1.1" viewBox="0 0 2560 1440" width="100%" xml:space="preserve" xmlns="http://www.w3.org/2000/svg" xmlns:vectornator="http://vectornator.io" xmlns:xlink="http://www.w3.org/1999/xlink">
<defs/>
<clipPath id="ArtboardFrame">
<rect height="1440" width="2560" x="0" y="0"/>
</clipPath>
<g clip-path="url(#ArtboardFrame)" id="Layer-1" vectornator:layerName="Layer 1">
<path d="M-245.387-188.895L2627.07-188.895L2627.07 1640.98L-245.387 1640.98L-245.387-188.895Z" fill="#0f0f0f" fill-rule="nonzero" opacity="1" stroke="none"/>
<path d="M2809.67 725.029L2965.84 725.029L2965.84 729.155L2809.67 729.155L2809.67 725.029Z" fill="#0f0f0f" fill-rule="nonzero" opacity="1" stroke="none"/>
</g>
<g id="Layer-2" vectornator:layerName="Layer 2">
<path d="M1261.01 683.5L1261.01 672.06L1271.41 672.06L1271.41 638.94L1261.81 638.94L1261.81 627.5L1284.53 627.5L1284.53 672.06L1293.89 672.06L1293.89 683.5L1261.01 683.5Z" fill="#fc814a" fill-rule="nonzero" opacity="1" stroke="none"/>
<path d="M1322.61 684.46C1318.34 684.46 1314.56 683.567 1311.25 681.78C1307.94 679.993 1305.36 677.567 1303.49 674.5C1301.62 671.433 1300.69 667.98 1300.69 664.14L1300.69 646.78C1300.69 642.94 1301.62 639.487 1303.49 636.42C1305.36 633.353 1307.94 630.94 1311.25 629.18C1314.56 627.42 1318.34 626.54 1322.61 626.54C1326.77 626.54 1330.49 627.42 1333.77 629.18C1337.05 630.94 1339.62 633.353 1341.49 636.42C1343.36 639.487 1344.29 642.94 1344.29 646.78L1344.29 664.14C1344.29 667.98 1343.34 671.433 1341.45 674.5C1339.56 677.567 1336.97 679.993 1333.69 681.78C1330.41 683.567 1326.72 684.46 1322.61 684.46ZM1322.61 672.94C1324.21 672.94 1325.66 672.58 1326.97 671.86C1328.28 671.14 1329.33 670.14 1330.13 668.86C1330.93 667.58 1331.33 666.14 1331.33 664.54L1331.33 646.38C1331.33 644.78 1330.93 643.353 1330.13 642.1C1329.33 640.847 1328.28 639.847 1326.97 639.1C1325.66 638.353 1324.21 637.98 1322.61 637.98C1320.96 637.98 1319.45 638.34 1318.09 639.06C1316.73 639.78 1315.65 640.78 1314.85 642.06C1314.05 643.34 1313.65 644.78 1313.65 646.38L1313.65 664.54C1313.65 666.14 1314.05 667.58 1314.85 668.86C1315.65 670.14 1316.73 671.14 1318.09 671.86C1319.45 672.58 1320.96 672.94 1322.61 672.94Z" fill="#fc814a" fill-rule="nonzero" opacity="1" stroke="none"/>
<path d="M1366.05 657.66C1363.44 657.66 1361.06 657.1 1358.93 655.98C1356.8 654.86 1355.12 653.367 1353.89 651.5C1352.66 649.633 1352.05 647.527 1352.05 645.18L1352.05 638.94C1352.05 636.647 1352.66 634.553 1353.89 632.66C1355.12 630.767 1356.8 629.273 1358.93 628.18C1361.06 627.087 1363.44 626.54 1366.05 626.54C1368.72 626.54 1371.1 627.087 1373.21 628.18C1375.32 629.273 1376.98 630.767 1378.21 632.66C1379.44 634.553 1380.05 636.647 1380.05 638.94L1380.05 645.18C1380.05 647.527 1379.42 649.633 1378.17 651.5C1376.92 653.367 1375.24 654.86 1373.13 655.98C1371.02 657.1 1368.66 657.66 1366.05 657.66ZM1366.13 649.42C1366.98 649.42 1367.78 649.207 1368.53 648.78C1369.28 648.353 1369.89 647.767 1370.37 647.02C1370.85 646.273 1371.09 645.42 1371.09 644.46L1371.09 639.66C1371.09 638.7 1370.85 637.847 1370.37 637.1C1369.89 636.353 1369.28 635.753 1368.53 635.3C1367.78 634.847 1366.98 634.62 1366.13 634.62C1365.17 634.62 1364.32 634.847 1363.57 635.3C1362.82 635.753 1362.22 636.353 1361.77 637.1C1361.32 637.847 1361.09 638.7 1361.09 639.66L1361.09 644.46C1361.09 645.42 1361.32 646.273 1361.77 647.02C1362.22 647.767 1362.82 648.353 1363.57 648.78C1364.32 649.207 1365.17 649.42 1366.13 649.42ZM1405.01 684.46C1402.34 684.46 1399.96 683.9 1397.85 682.78C1395.74 681.66 1394.06 680.167 1392.81 678.3C1391.56 676.433 1390.93 674.327 1390.93 671.98L1390.93 665.74C1390.93 663.447 1391.56 661.353 1392.81 659.46C1394.06 657.567 1395.74 656.073 1397.85 654.98C1399.96 653.887 1402.34 653.34 1405.01 653.34C1407.62 653.34 1409.98 653.887 1412.09 654.98C1414.2 656.073 1415.88 657.567 1417.13 659.46C1418.38 661.353 1419.01 663.447 1419.01 665.74L1419.01 671.98C1419.01 674.327 1418.38 676.433 1417.13 678.3C1415.88 680.167 1414.2 681.66 1412.09 682.78C1409.98 683.9 1407.62 684.46 1405.01 684.46ZM1405.01 676.22C1405.92 676.22 1406.74 676.007 1407.49 675.58C1408.24 675.153 1408.84 674.567 1409.29 673.82C1409.74 673.073 1409.97 672.22 1409.97 671.26L1409.97 666.46C1409.97 665.5 1409.74 664.647 1409.29 663.9C1408.84 663.153 1408.24 662.553 1407.49 662.1C1406.74 661.647 1405.92 661.42 1405.01 661.42C1404.1 661.42 1403.26 661.647 1402.49 662.1C1401.72 662.553 1401.1 663.153 1400.65 663.9C1400.2 664.647 1399.97 665.5 1399.97 666.46L1399.97 671.26C1399.97 672.22 1400.2 673.073 1400.65 673.82C1401.1 674.567 1401.72 675.153 1402.49 675.58C1403.26 676.007 1404.1 676.22 1405.01 676.22ZM1362.13 683.5L1399.41 627.5L1408.77 627.5L1371.49 683.5L1362.13 683.5Z" fill="#fc814a" fill-rule="nonzero" opacity="1" stroke="none"/>
<path d="M1475.57 684.54C1471.09 684.54 1467.04 683.793 1463.41 682.3C1459.78 680.807 1456.66 678.727 1454.05 676.06C1451.44 673.393 1449.42 670.3 1448.01 666.78C1446.6 663.26 1445.89 659.473 1445.89 655.42C1445.89 651.367 1446.6 647.58 1448.01 644.06C1449.42 640.54 1451.42 637.46 1454.01 634.82C1456.6 632.18 1459.72 630.127 1463.37 628.66C1467.02 627.193 1471.09 626.46 1475.57 626.46C1480 626.46 1484.04 627.193 1487.69 628.66C1491.34 630.127 1494.46 632.18 1497.05 634.82C1499.64 637.46 1501.65 640.553 1503.09 644.1C1504.53 647.647 1505.25 651.42 1505.25 655.42C1505.25 659.473 1504.53 663.26 1503.09 666.78C1501.65 670.3 1499.64 673.393 1497.05 676.06C1494.46 678.727 1491.34 680.807 1487.69 682.3C1484.04 683.793 1480 684.54 1475.57 684.54ZM1475.57 673.1C1477.92 673.1 1480.09 672.66 1482.09 671.78C1484.09 670.9 1485.81 669.66 1487.25 668.06C1488.69 666.46 1489.81 664.58 1490.61 662.42C1491.41 660.26 1491.81 657.927 1491.81 655.42C1491.81 652.913 1491.41 650.593 1490.61 648.46C1489.81 646.327 1488.69 644.46 1487.25 642.86C1485.81 641.26 1484.09 640.02 1482.09 639.14C1480.09 638.26 1477.92 637.82 1475.57 637.82C1473.17 637.82 1470.98 638.26 1469.01 639.14C1467.04 640.02 1465.32 641.26 1463.85 642.86C1462.38 644.46 1461.26 646.34 1460.49 648.5C1459.72 650.66 1459.33 652.967 1459.33 655.42C1459.33 657.927 1459.72 660.26 1460.49 662.42C1461.26 664.58 1462.38 666.46 1463.85 668.06C1465.32 669.66 1467.04 670.9 1469.01 671.78C1470.98 672.66 1473.17 673.1 1475.57 673.1Z" fill="#fc814a" fill-rule="nonzero" opacity="1" stroke="none"/>
<path d="M1511.65 683.5L1511.65 644.06C1511.65 640.967 1512.41 638.167 1513.93 635.66C1515.45 633.153 1517.5 631.167 1520.09 629.7C1522.68 628.233 1525.57 627.5 1528.77 627.5L1549.65 627.5L1549.65 638.7L1530.45 638.7C1528.96 638.7 1527.69 639.233 1526.65 640.3C1525.61 641.367 1525.09 642.673 1525.09 644.22L1525.09 652.3L1546.93 652.3L1546.93 663.42L1525.09 663.42L1525.09 683.5L1511.65 683.5Z" fill="#fc814a" fill-rule="nonzero" opacity="1" stroke="none"/>
<path d="M1556.21 683.5L1556.21 644.06C1556.21 640.967 1556.97 638.167 1558.49 635.66C1560.01 633.153 1562.06 631.167 1564.65 629.7C1567.24 628.233 1570.13 627.5 1573.33 627.5L1594.21 627.5L1594.21 638.7L1575.01 638.7C1573.52 638.7 1572.25 639.233 1571.21 640.3C1570.17 641.367 1569.65 642.673 1569.65 644.22L1569.65 652.3L1591.49 652.3L1591.49 663.42L1569.65 663.42L1569.65 683.5L1556.21 683.5Z" fill="#fc814a" fill-rule="nonzero" opacity="1" stroke="none"/>
<path d="M1258.36 811.494C1255.21 811.494 1252.36 810.761 1249.8 809.294C1247.24 807.827 1245.2 805.854 1243.68 803.374C1242.16 800.894 1241.4 798.081 1241.4 794.934C1241.4 792.587 1241.92 790.387 1242.96 788.334C1244 786.281 1245.4 784.507 1247.16 783.014C1245.45 781.574 1244.11 779.867 1243.12 777.894C1242.13 775.921 1241.64 773.841 1241.64 771.654C1241.64 768.561 1242.39 765.801 1243.88 763.374C1245.37 760.947 1247.37 759.027 1249.88 757.614C1252.39 756.201 1255.16 755.494 1258.2 755.494L1281.8 755.494L1281.8 766.774L1260.28 766.694C1259.27 766.694 1258.33 766.934 1257.48 767.414C1256.63 767.894 1255.95 768.534 1255.44 769.334C1254.93 770.134 1254.68 771.067 1254.68 772.134C1254.68 773.147 1254.93 774.067 1255.44 774.894C1255.95 775.721 1256.63 776.361 1257.48 776.814C1258.33 777.267 1259.27 777.494 1260.28 777.494L1279.08 777.494L1279.08 788.694L1260.68 788.694C1259.56 788.694 1258.55 788.961 1257.64 789.494C1256.73 790.027 1256.01 790.721 1255.48 791.574C1254.95 792.427 1254.68 793.414 1254.68 794.534C1254.68 795.601 1254.95 796.574 1255.48 797.454C1256.01 798.334 1256.73 799.014 1257.64 799.494C1258.55 799.974 1259.56 800.214 1260.68 800.214L1281.8 800.214L1281.8 811.494L1258.36 811.494Z" fill="#ffffff" fill-rule="nonzero" opacity="1" stroke="none"/>
<path d="M1308.28 812.454C1305.83 812.454 1303.59 811.814 1301.56 810.534C1299.53 809.254 1298.15 807.521 1297.4 805.334L1285.72 770.454L1299.32 770.454L1307.56 799.734C1307.67 799.947 1307.79 800.107 1307.92 800.214C1308.05 800.321 1308.2 800.374 1308.36 800.374C1308.57 800.374 1308.75 800.321 1308.88 800.214C1309.01 800.107 1309.11 799.947 1309.16 799.734L1317.56 770.454L1330.84 770.454L1319.16 805.334C1318.41 807.521 1317.04 809.254 1315.04 810.534C1313.04 811.814 1310.79 812.454 1308.28 812.454Z" fill="#ffffff" fill-rule="nonzero" opacity="1" stroke="none"/>
<path d="M1356.12 811.494C1351.48 811.494 1347.4 810.627 1343.88 808.894C1340.36 807.161 1337.63 804.761 1335.68 801.694C1333.73 798.627 1332.76 795.067 1332.76 791.014C1332.76 786.534 1333.69 782.694 1335.56 779.494C1337.43 776.294 1339.92 773.827 1343.04 772.094C1346.16 770.361 1349.61 769.494 1353.4 769.494C1357.72 769.494 1361.33 770.401 1364.24 772.214C1367.15 774.027 1369.35 776.494 1370.84 779.614C1372.33 782.734 1373.08 786.294 1373.08 790.294C1373.08 790.987 1373.04 791.801 1372.96 792.734C1372.88 793.667 1372.79 794.401 1372.68 794.934L1345.8 794.934C1346.12 796.321 1346.73 797.494 1347.64 798.454C1348.55 799.414 1349.69 800.121 1351.08 800.574C1352.47 801.027 1354.01 801.254 1355.72 801.254L1368.28 801.254L1368.28 811.494L1356.12 811.494ZM1345.48 787.174L1361.08 787.174C1360.97 786.321 1360.81 785.494 1360.6 784.694C1360.39 783.894 1360.05 783.187 1359.6 782.574C1359.15 781.961 1358.63 781.427 1358.04 780.974C1357.45 780.521 1356.77 780.161 1356 779.894C1355.23 779.627 1354.36 779.494 1353.4 779.494C1352.17 779.494 1351.08 779.707 1350.12 780.134C1349.16 780.561 1348.36 781.134 1347.72 781.854C1347.08 782.574 1346.59 783.401 1346.24 784.334C1345.89 785.267 1345.64 786.214 1345.48 787.174Z" fill="#ffffff" fill-rule="nonzero" opacity="1" stroke="none"/>
<path d="M1379.96 811.494L1379.96 782.534C1379.96 778.801 1381.03 775.867 1383.16 773.734C1385.29 771.601 1388.25 770.534 1392.04 770.534L1403.96 770.534L1403.96 780.614L1395.08 780.614C1394.33 780.614 1393.69 780.867 1393.16 781.374C1392.63 781.881 1392.36 782.534 1392.36 783.334L1392.36 811.494L1379.96 811.494Z" fill="#ffffff" fill-rule="nonzero" opacity="1" stroke="none"/>
<path d="M1423.72 827.734L1423.72 811.734C1420.73 810.987 1418.17 809.774 1416.04 808.094C1413.91 806.414 1412.28 804.361 1411.16 801.934C1410.04 799.507 1409.48 796.881 1409.48 794.054L1409.48 770.454L1421.88 770.454L1421.88 793.654C1421.88 795.094 1422.23 796.427 1422.92 797.654C1423.61 798.881 1424.56 799.854 1425.76 800.574C1426.96 801.294 1428.31 801.654 1429.8 801.654C1431.35 801.654 1432.72 801.294 1433.92 800.574C1435.12 799.854 1436.07 798.881 1436.76 797.654C1437.45 796.427 1437.8 795.094 1437.8 793.654L1437.8 770.454L1450.2 770.454L1450.2 794.054C1450.2 796.881 1449.65 799.494 1448.56 801.894C1447.47 804.294 1445.87 806.347 1443.76 808.054C1441.65 809.761 1439.11 810.961 1436.12 811.654L1436.12 827.734L1423.72 827.734Z" fill="#ffffff" fill-rule="nonzero" opacity="1" stroke="none"/>
<path d="M1474.52 811.494C1470.73 811.494 1467.77 810.414 1465.64 808.254C1463.51 806.094 1462.44 803.174 1462.44 799.494L1462.44 760.454L1474.92 760.454L1474.92 798.774C1474.92 799.414 1475.15 799.961 1475.6 800.414C1476.05 800.867 1476.6 801.094 1477.24 801.094L1486.2 801.094L1486.2 811.494L1474.52 811.494ZM1455.72 780.614L1455.72 770.454L1486.2 770.454L1486.2 780.614L1455.72 780.614Z" fill="#ffffff" fill-rule="nonzero" opacity="1" stroke="none"/>
<path d="M1493.8 811.494L1493.8 753.094L1506.2 753.094L1506.2 773.174C1507.8 771.894 1509.56 770.961 1511.48 770.374C1513.4 769.787 1515.32 769.494 1517.24 769.494C1520.97 769.494 1524.13 770.294 1526.72 771.894C1529.31 773.494 1531.25 775.681 1532.56 778.454C1533.87 781.227 1534.52 784.374 1534.52 787.894L1534.52 811.494L1522.12 811.494L1522.12 788.374C1522.12 786.827 1521.76 785.454 1521.04 784.254C1520.32 783.054 1519.36 782.094 1518.16 781.374C1516.96 780.654 1515.64 780.294 1514.2 780.294C1512.76 780.294 1511.43 780.641 1510.2 781.334C1508.97 782.027 1508 782.961 1507.28 784.134C1506.56 785.307 1506.2 786.641 1506.2 788.134L1506.2 811.494L1493.8 811.494Z" fill="#ffffff" fill-rule="nonzero" opacity="1" stroke="none"/>
<path d="M1543.8 811.494L1543.8 770.454L1556.28 770.454L1556.28 811.494L1543.8 811.494ZM1550.04 765.814C1548.07 765.814 1546.36 765.094 1544.92 763.654C1543.48 762.214 1542.76 760.507 1542.76 758.534C1542.76 756.561 1543.48 754.841 1544.92 753.374C1546.36 751.907 1548.07 751.174 1550.04 751.174C1552.01 751.174 1553.72 751.907 1555.16 753.374C1556.6 754.841 1557.32 756.561 1557.32 758.534C1557.32 760.507 1556.6 762.214 1555.16 763.654C1553.72 765.094 1552.01 765.814 1550.04 765.814Z" fill="#ffffff" fill-rule="nonzero" opacity="1" stroke="none"/>
<path d="M1565.4 811.494L1565.4 787.894C1565.4 784.481 1566.23 781.387 1567.88 778.614C1569.53 775.841 1571.89 773.627 1574.96 771.974C1578.03 770.321 1581.67 769.494 1585.88 769.494C1590.15 769.494 1593.79 770.321 1596.8 771.974C1599.81 773.627 1602.12 775.841 1603.72 778.614C1605.32 781.387 1606.12 784.481 1606.12 787.894L1606.12 811.494L1593.72 811.494L1593.72 788.214C1593.72 786.774 1593.37 785.454 1592.68 784.254C1591.99 783.054 1591.04 782.094 1589.84 781.374C1588.64 780.654 1587.29 780.294 1585.8 780.294C1584.25 780.294 1582.88 780.654 1581.68 781.374C1580.48 782.094 1579.53 783.054 1578.84 784.254C1578.15 785.454 1577.8 786.774 1577.8 788.214L1577.8 811.494L1565.4 811.494Z" fill="#ffffff" fill-rule="nonzero" opacity="1" stroke="none"/>
<path d="M1621.64 827.734L1621.64 817.094L1642.12 817.094C1642.92 817.094 1643.59 816.841 1644.12 816.334C1644.65 815.827 1644.92 815.201 1644.92 814.454L1644.92 805.414L1644.68 805.414C1643.61 806.641 1642.48 807.681 1641.28 808.534C1640.08 809.387 1638.75 810.027 1637.28 810.454C1635.81 810.881 1634.17 811.094 1632.36 811.094C1628.73 811.094 1625.49 810.227 1622.64 808.494C1619.79 806.761 1617.55 804.347 1615.92 801.254C1614.29 798.161 1613.48 794.641 1613.48 790.694C1613.48 786.801 1614.32 783.254 1616 780.054C1617.68 776.854 1620.15 774.294 1623.4 772.374C1626.65 770.454 1630.63 769.494 1635.32 769.494C1639.8 769.494 1643.68 770.414 1646.96 772.254C1650.24 774.094 1652.79 776.681 1654.6 780.014C1656.41 783.347 1657.32 787.254 1657.32 791.734L1657.32 815.734C1657.32 819.414 1656.24 822.334 1654.08 824.494C1651.92 826.654 1648.95 827.734 1645.16 827.734L1621.64 827.734ZM1635.4 800.694C1637.32 800.694 1638.97 800.254 1640.36 799.374C1641.75 798.494 1642.81 797.307 1643.56 795.814C1644.31 794.321 1644.68 792.667 1644.68 790.854C1644.68 788.934 1644.31 787.174 1643.56 785.574C1642.81 783.974 1641.75 782.707 1640.36 781.774C1638.97 780.841 1637.32 780.374 1635.4 780.374C1633.53 780.374 1631.89 780.827 1630.48 781.734C1629.07 782.641 1627.99 783.867 1627.24 785.414C1626.49 786.961 1626.12 788.694 1626.12 790.614C1626.12 792.481 1626.49 794.174 1627.24 795.694C1627.99 797.214 1629.07 798.427 1630.48 799.334C1631.89 800.241 1633.53 800.694 1635.4 800.694Z" fill="#ffffff" fill-rule="nonzero" opacity="1" stroke="none"/>
<path d="M985.055 556.83C983.595 557.499 980.475 559.29 978.127 560.811L973.861 563.575L965.806 563.59C953.759 563.612 950.555 565.538 944.798 576.222C941.773 581.833 941.709 581.897 936.098 584.921C925.415 590.679 923.488 593.882 923.466 605.929L923.452 613.985L920.687 618.25C913.474 629.378 913.474 634.967 920.687 646.095L923.452 650.361L923.466 658.416C923.487 669.339 925.752 673.878 933.044 677.598L935.714 678.959L928.417 681.534C924.404 682.95 913.329 686.694 903.805 689.855C894.281 693.016 886.141 695.94 885.714 696.355C883.321 698.679 863.437 738.148 863.635 740.182C863.866 742.555 864.396 742.912 879.663 750.997L886.823 754.788L886.823 794.297C886.822 828.611 886.954 833.915 887.822 834.635C890.123 836.546 990.405 884.585 992.085 884.585C993.795 884.585 1092.42 837.41 1095.78 834.986L1097.28 833.907L1097.28 794.344L1097.28 754.781L1106.1 750.13C1120.16 742.727 1120.58 742.423 1120.58 740.008C1120.58 738.032 1100.32 698.205 1098.38 696.378C1097.95 695.976 1086.74 691.935 1073.46 687.399C1048.13 678.743 1048.18 678.763 1051.28 677.482C1057.81 674.773 1060.61 669.064 1060.63 658.416L1060.64 650.361L1063.42 646.095C1067.69 639.5 1068.6 637.027 1068.6 632.173C1068.6 627.319 1067.69 624.846 1063.42 618.25L1060.64 613.985L1060.63 605.929C1060.61 593.887 1058.69 590.678 1048.01 584.929C1042.44 581.92 1042.34 581.832 1039.29 576.229C1033.41 565.464 1030.33 563.612 1018.3 563.59L1010.23 563.575L1005.97 560.811C997.465 555.299 991.075 554.082 985.055 556.83M999.595 567.285C1006 571.583 1008.29 572.233 1016.94 572.236C1026.49 572.239 1027.64 572.871 1031.29 580.1C1034.94 587.393 1036.48 588.975 1043.37 592.534C1051.46 596.711 1051.98 597.6 1051.98 607.281C1051.98 615.96 1052.61 618.14 1057.01 624.752C1061.07 630.85 1061.01 633.74 1056.72 640.054C1052.68 646.02 1051.98 648.48 1051.98 657.065C1051.98 666.548 1051.43 667.562 1044.1 671.37C1036.68 675.237 1035.36 676.513 1031.64 683.518C1027.32 691.675 1026.57 692.098 1016.69 692.139C1007.88 692.176 1006.04 692.693 1000.04 696.807C993.925 700.996 990.205 701.019 984.205 696.906C978.226 692.802 975.776 692.113 967.157 692.11C957.557 692.107 956.775 691.65 952.456 683.518C948.736 676.513 947.428 675.237 939.992 671.37C932.649 667.549 932.124 666.581 932.083 656.814C932.046 648.037 931.531 646.177 927.472 640.2C923.076 633.727 923.005 630.889 927.086 624.752C931.482 618.14 932.109 615.96 932.112 607.281C932.115 597.6 932.635 596.711 940.721 592.534C947.613 588.975 949.152 587.393 952.819 580.1C956.453 572.871 957.607 572.239 967.157 572.236C975.817 572.233 978.095 571.583 984.505 567.285C990.755 563.087 993.335 563.087 999.595 567.285M981.395 581.254C940.424 589.989 925.918 641.504 956.399 670.018C986.595 698.267 1036.7 681.4 1043.3 640.765C1049.16 604.631 1016.95 573.672 981.395 581.254M1002.29 590.196C1035.14 598.597 1046.25 638.666 1022.37 662.552C995.315 689.613 948.783 670.405 948.783 632.173C948.783 604.56 975.752 583.407 1002.29 590.196M880.599 592.099C877.596 595.416 878.682 596.938 890.183 605.536C901.387 613.911 903.438 614.806 905.7 612.307C908.745 608.942 907.426 607.18 894.946 597.937C884.947 590.53 882.806 589.66 880.599 592.099M1087.98 598.87C1076.44 607.498 1075.13 609.367 1078.51 612.423C1080.97 614.651 1082.83 613.822 1093.92 605.536C1105.45 596.909 1106.76 595.04 1103.38 591.983C1100.93 589.756 1099.07 590.585 1087.98 598.87M972.402 606.642C961.024 612.654 963.972 628.948 976.748 630.661C987.015 632.038 994.285 619.661 988.425 610.797C985.355 606.165 977.273 604.069 972.402 606.642M988.895 629.022C968.081 649.84 967.66 650.407 970.737 653.485C973.815 656.562 974.383 656.141 995.205 635.324C1016.01 614.506 1016.44 613.938 1013.36 610.861C1010.29 607.784 1009.71 608.205 988.895 629.022M980.725 615.523C982.485 617.281 982.405 618.565 980.425 620.549C976.77 624.202 971.7 619.243 975.169 615.409C976.616 613.811 979.065 613.861 980.725 615.523M873.285 629.38C871.812 631.008 871.869 633.691 873.406 635.082C874.482 636.057 876.17 636.177 886.551 636.018L898.461 635.836L899.338 634.004C900.063 632.489 900.063 631.857 899.338 630.342L898.461 628.51L886.43 628.329C875.437 628.164 874.305 628.254 873.285 629.38M1085.25 629.211C1084.79 629.78 1084.41 631.113 1084.41 632.173C1084.41 636.001 1084.96 636.169 1097.93 636.169C1108.5 636.169 1109.83 636.044 1110.82 634.951C1112.29 633.342 1112.22 630.651 1110.71 629.279C1108.94 627.684 1086.57 627.624 1085.25 629.211M1001.04 634.723C988.765 640.575 992.475 658.813 1005.94 658.813C1022 658.813 1023.26 635.199 1007.28 633.77C1004.62 633.534 1003.01 633.781 1001.04 634.723M1008.69 643.495C1011.18 645.967 1009.64 650.155 1006.26 650.155C1002.66 650.155 1001.01 646.332 1003.48 643.704C1005.26 641.811 1006.94 641.744 1008.69 643.495M889.985 658.871C878.666 667.468 877.377 669.342 880.714 672.363C883.103 674.525 884.936 673.71 895.506 665.787C906.624 657.451 906.776 657.302 906.792 654.753C906.829 648.419 902.281 649.533 889.985 658.871M1078.39 652.039C1077.23 653.319 1076.95 655.92 1077.83 657.295C1079.2 659.458 1098.94 673.465 1100.61 673.465C1102.94 673.465 1104.6 671.566 1104.6 668.932C1104.6 667.003 1103.75 666.198 1093.96 658.828C1082.79 650.408 1080.69 649.499 1078.39 652.039M950.198 696.051C954.104 699.945 956.74 700.739 965.806 700.756L973.861 700.77L978.127 703.535C989.255 710.748 994.845 710.748 1005.97 703.535L1010.23 700.77L1018.3 700.756C1029.75 700.735 1033.21 698.836 1038.29 689.781C1039.55 687.534 1040.93 685.864 1041.44 685.966C1041.93 686.064 1051.74 689.338 1063.24 693.241L1084.17 700.335L1038.11 723.358L992.055 746.383L962.249 731.5C929.974 715.385 929.322 715.152 927.706 719.134C926.088 723.117 926.325 723.273 957.084 738.585C972.835 746.426 985.815 752.93 985.925 753.04C986.515 753.611 968.585 788.099 967.848 787.816C967.051 787.51 873.976 738.078 873.701 737.814C873.626 737.743 877.354 730.464 881.985 721.639L890.405 705.592L898.362 709.508C906.984 713.752 907.761 713.945 909.983 712.387C913.757 709.744 911.804 706.251 904.516 702.606L899.898 700.297L921.831 692.969L943.764 685.64L945.869 689.737C947.026 691.99 948.974 694.832 950.198 696.051M1104.28 725.774L1110.55 737.793L1063.35 762.904C1037.41 776.716 1015.98 788.016 1015.76 788.016C1015.06 788.016 997.875 753.108 998.465 752.872C998.785 752.746 1020.32 742.077 1046.32 729.163L1093.61 705.682L1095.82 709.72C1097.01 711.94 1100.82 719.165 1104.28 725.774M932.438 779.025C952.721 789.83 969.806 798.672 970.404 798.672C972.985 798.672 974.425 796.616 981.035 783.49L987.985 769.701L988.015 821.482C988.035 849.962 987.825 873.261 987.555 873.257C987.275 873.254 966.375 863.225 941.1 850.971L895.147 828.691L894.975 794.034C894.88 774.973 894.972 759.378 895.18 759.378C895.387 759.378 912.153 768.219 932.438 779.025M1089.12 794.046L1088.95 828.714L1043.01 850.988C1017.75 863.239 996.845 873.263 996.565 873.263C996.275 873.263 996.065 849.962 996.085 821.482L996.115 769.701L1003.06 783.49C1009.75 796.779 1011.11 798.697 1013.82 798.651C1014.48 798.639 1031.5 789.814 1051.66 779.039C1071.81 768.264 1088.51 759.433 1088.8 759.413C1089.07 759.393 1089.21 774.978 1089.12 794.046M901.523 774.305C899.894 776.266 900.909 783.512 902.973 784.663C906.338 786.54 908.42 784.632 908.666 779.443C908.904 774.447 908.216 773.364 904.804 773.364C903.429 773.364 901.951 773.787 901.523 774.305M902.195 790.513C900.802 791.653 900.775 792.03 900.956 807.637L901.141 823.596L902.973 824.62C904.621 825.542 904.988 825.542 906.636 824.62L908.467 823.596L908.652 807.637C908.852 790.336 908.644 789.348 904.804 789.348C904.153 789.348 902.979 789.872 902.195 790.513" fill="#fc814a" fill-rule="evenodd" opacity="1" stroke="none"/>
</g>
</svg>
