<?xml version="1.0" encoding="UTF-8" standalone="no"?>
<!DOCTYPE svg PUBLIC "-//W3C//DTD SVG 1.1//EN" "http://www.w3.org/Graphics/SVG/1.1/DTD/svg11.dtd">
<!-- Created with Vectornator (http://vectornator.io/) -->
<svg height="100%" stroke-miterlimit="10" style="fill-rule:nonzero;clip-rule:evenodd;stroke-linecap:round;stroke-linejoin:round;" version="1.1" viewBox="0 0 2560 1440" width="100%" xml:space="preserve" xmlns="http://www.w3.org/2000/svg" xmlns:xlink="http://www.w3.org/1999/xlink">
<defs/>
<clipPath id="ArtboardFrame">
<rect height="1440" width="2560" x="0" y="0"/>
</clipPath>
<g clip-path="url(#ArtboardFrame)" id="Layer-1">
<path d="M-245.387-188.895L2627.07-188.895L2627.07 1640.98L-245.387 1640.98L-245.387-188.895Z" fill="#0f0f0f" fill-rule="nonzero" opacity="1" stroke="none"/>
<path d="M2809.67 725.029L2965.84 725.029L2965.84 729.155L2809.67 729.155L2809.67 725.029Z" fill="#0f0f0f" fill-rule="nonzero" opacity="1" stroke="none"/>
<path d="M282-137.922C282.02-138.607 282.082-140.69 283.558-141.247C285.018-141.798 286.522-140.299 286.809-139.993C287.186-139.59 287.165-138.957 286.762-138.579C286.358-138.204 285.726-138.223 285.348-138.626C285.001-138.993 284.451-139.36 284.242-139.367C284.256-139.339 284.034-139.018 283.999-137.863C283.889-134.132 286.742-133.09 286.863-133.048C287.173-132.94 287.416-132.684 287.504-132.368L287.55-132.2C287.567-132.14 287.577-132.079 287.583-132.017C288.408-122.181 296.188-118.998 299.827-118.998C303.466-118.998 311.246-122.18 312.071-132.017C312.076-132.078 312.087-132.138 312.103-132.197L312.149-132.365C312.237-132.687 312.481-132.945 312.798-133.05C312.912-133.09 315.765-134.132 315.655-137.863C315.617-139.135 315.352-139.396 315.349-139.399C315.225-139.376 314.66-139 314.305-138.625C313.926-138.225 313.294-138.206 312.892-138.583C312.491-138.961 312.469-139.591 312.846-139.994C313.133-140.3 314.636-141.799 316.097-141.248C317.573-140.69 317.635-138.607 317.655-137.923C317.764-134.225 315.58-132.182 314.023-131.402C312.972-121.472 305.143-116.999 299.828-116.999C294.513-116.999 286.683-121.471 285.632-131.402C284.075-132.181 281.891-134.223 282-137.922ZM284.561-144.615C284.561-158.39 295.563-161.407 299.802-161.407C304.055-161.407 315.093-158.39 315.093-144.615C315.093-144.177 314.807-143.789 314.388-143.659L312.83-143.178L311.441-141.64C311.251-141.429 310.981-141.31 310.699-141.31C310.667-141.31 310.636-141.311 310.604-141.314C310.295-141.344 310.019-141.514 309.854-141.775C309.793-141.862 307.785-144.604 299.827-144.61C291.783-144.604 289.819-141.801 289.8-141.773C289.629-141.517 289.342-141.344 289.035-141.321C288.729-141.293 288.421-141.409 288.214-141.638L286.825-143.176L285.267-143.657C284.846-143.788 284.561-144.176 284.561-144.615ZM286.573-145.348L287.677-145.007C287.849-144.954 288.003-144.855 288.124-144.722L288.969-143.786C290.291-144.916 293.349-146.605 299.827-146.61C306.305-146.606 309.364-144.916 310.686-143.786L311.53-144.721C311.651-144.855 311.805-144.953 311.977-145.007L313.081-145.348C312.642-159.019 299.933-159.407 299.802-159.407C299.672-159.407 287.01-159.019 286.573-145.348ZM288.867-147.78C288.68-148.3 288.95-148.873 289.469-149.06C290.882-149.569 292.329-149.946 293.79-150.239C293.563-151.039 293.335-151.839 293.125-152.642C293.057-152.9 293.096-153.175 293.232-153.404C293.368-153.634 293.59-153.8 293.849-153.864C297.815-154.859 301.837-154.859 305.803-153.864C306.062-153.799 306.284-153.634 306.42-153.404C306.556-153.175 306.595-152.9 306.527-152.642C306.317-151.84 306.089-151.04 305.862-150.239C307.323-149.946 308.77-149.569 310.183-149.06C310.703-148.873 310.972-148.3 310.785-147.78C310.638-147.372 310.254-147.119 309.844-147.118C309.732-147.118 309.617-147.138 309.505-147.178C303.263-149.426 296.388-149.426 290.146-147.178C289.627-146.992 289.055-147.261 288.867-147.78ZM295.772-150.566C298.464-150.925 301.189-150.925 303.881-150.566C304.032-151.094 304.184-151.621 304.327-152.15C301.335-152.763 298.316-152.763 295.325-152.15C295.469-151.621 295.621-151.094 295.772-150.566ZM332.782-129.183L332.782-124.075C332.782-123.539 332.496-123.044 332.032-122.776L328.358-120.655L328.358-108.097C328.358-108.069 328.351-108.044 328.35-108.017C329.561-107.842 330.484-107.44 331.133-106.789C332.327-105.588 332.318-103.903 332.31-102.416L332.309-95.4775C332.309-92.4725 329.864-90.0275 326.859-90.0275C323.854-90.0275 321.409-92.4725 321.409-95.4775L321.408-102.416C321.4-103.903 321.391-105.588 322.585-106.789C323.233-107.441 324.157-107.842 325.368-108.017C325.367-108.044 325.36-108.07 325.36-108.097L325.36-109.636C324.333-113.117 322.237-116.34 319.419-118.879L316.661-111.028L316.661-89.9505L299.827-89.9505L282.996-89.9505L282.996-111.028L280.137-119.165C276.2-115.925 273.598-111.585 273.038-107.01C273.131-106.934 273.243-106.873 273.327-106.789C274.521-105.588 274.512-103.903 274.504-102.416L274.503-95.4764C274.503-92.4714 272.058-90.0264 269.053-90.0264C266.048-90.0264 263.603-92.4714 263.603-95.4764L263.602-102.415C263.594-103.902 263.585-105.587 264.779-106.788C265.241-107.253 265.845-107.588 266.589-107.809L266.589-113.103C266.589-113.655 267.037-114.103 267.589-114.103L268.302-114.103L268.302-123.742C268.302-124.156 268.638-124.492 269.052-124.492C269.466-124.492 269.802-124.156 269.802-123.742L269.802-114.103L270.516-114.103C271.068-114.103 271.516-113.655 271.516-113.103L271.516-109.673C272.684-114.06 275.508-118.108 279.437-121.158L279.141-122C278.958-122.521 279.232-123.092 279.753-123.275C280.275-123.459 280.845-123.184 281.028-122.663L281.129-122.374C282.485-123.259 283.946-124.033 285.498-124.67C285.753-124.775 286.041-124.77 286.292-124.655C286.543-124.541 286.736-124.327 286.825-124.066C288.583-118.885 293.641-115.537 299.711-115.537C305.782-115.537 310.84-118.885 312.598-124.066C312.686-124.327 312.879-124.541 313.131-124.655C313.382-124.77 313.67-124.775 313.925-124.67C315.537-124.008 317.051-123.16 318.456-122.176L318.627-122.662C318.81-123.183 319.38-123.457 319.902-123.274C320.423-123.091 320.697-122.52 320.514-121.999L320.129-120.903C322.247-119.121 324.023-116.989 325.358-114.65L325.358-120.654L321.684-122.775C321.22-123.043 320.934-123.538 320.934-124.074L320.934-129.182C320.934-130.011 321.605-130.682 322.434-130.682C323.263-130.682 323.934-130.011 323.934-129.182L323.934-124.94L326.858-123.252L329.782-124.94L329.782-129.182C329.782-130.011 330.453-130.682 331.282-130.682C332.111-130.682 332.782-130.012 332.782-129.183ZM268.588-108.789L269.516-108.789L269.516-112.103L268.588-112.103L268.588-108.789ZM272.197-94.0734L270.16-94.0734C269.608-94.0734 269.16-94.5214 269.16-95.0734C269.16-95.6254 269.608-96.0734 270.16-96.0734L272.501-96.0734L272.501-97.7614L270.16-97.7614C269.608-97.7614 269.16-98.2094 269.16-98.7614C269.16-99.3134 269.608-99.7614 270.16-99.7614L272.502-99.7614L272.502-101.583L270.16-101.583C269.608-101.583 269.16-102.031 269.16-102.583C269.16-103.135 269.608-103.583 270.16-103.583L272.485-103.583C272.444-104.324 272.314-104.97 271.908-105.378C271.417-105.872 270.456-106.123 269.052-106.123C267.648-106.123 266.687-105.873 266.196-105.378C265.588-104.767 265.594-103.63 265.601-102.426L265.602-95.4764C265.602-93.5744 267.15-92.0264 269.052-92.0264C270.454-92.0265 271.658-92.8694 272.197-94.0734ZM286.087-108.808C286.087-109.16 285.801-109.446 285.449-109.446C285.097-109.446 284.811-109.16 284.811-108.808C284.811-108.456 285.097-108.17 285.449-108.17C285.801-108.17 286.087-108.456 286.087-108.808ZM308.855-99.0744C308.855-99.6264 308.407-100.074 307.855-100.074L291.799-100.074C291.247-100.074 290.799-99.6264 290.799-99.0744C290.799-98.5224 291.247-98.0744 291.799-98.0744L307.855-98.0744C308.407-98.0744 308.855-98.5225 308.855-99.0744ZM299.827-108.17C300.179-108.17 300.465-108.456 300.465-108.808C300.465-109.16 300.179-109.446 299.827-109.446C299.475-109.446 299.189-109.16 299.189-108.808C299.189-108.456 299.475-108.17 299.827-108.17ZM314.843-108.808C314.843-109.16 314.557-109.446 314.205-109.446C313.853-109.446 313.567-109.16 313.567-108.808C313.567-108.456 313.853-108.17 314.205-108.17C314.557-108.17 314.843-108.456 314.843-108.808ZM317.766-120.216C316.627-121.057 315.403-121.8 314.102-122.409C311.782-116.985 306.252-113.538 299.71-113.538C293.168-113.538 287.637-116.986 285.317-122.412C284.075-121.841 282.905-121.171 281.812-120.426L285.035-111.251L299.825-111.251L314.615-111.251L317.766-120.216ZM329.714-105.378C329.223-105.872 328.261-106.123 326.858-106.123C325.454-106.123 324.493-105.873 324.002-105.378C323.596-104.969 323.466-104.324 323.425-103.583L325.75-103.583C326.302-103.583 326.75-103.135 326.75-102.583C326.75-102.031 326.302-101.583 325.75-101.583L323.407-101.583L323.407-99.7614L325.75-99.7614C326.302-99.7614 326.75-99.3134 326.75-98.7614C326.75-98.2094 326.302-97.7614 325.75-97.7614L323.408-97.7614L323.408-96.0734L325.75-96.0734C326.302-96.0734 326.75-95.6254 326.75-95.0734C326.75-94.5214 326.302-94.0734 325.75-94.0734L323.712-94.0734C324.251-92.8694 325.455-92.0264 326.857-92.0264C328.759-92.0264 330.307-93.5744 330.307-95.4764L330.308-102.426C330.315-103.63 330.322-104.766 329.714-105.378ZM300.441-136.879L300.441-131.926L298.213-131.926C297.661-131.926 297.213-131.478 297.213-130.926C297.213-130.374 297.661-129.926 298.213-129.926L301.441-129.926C301.993-129.926 302.441-130.374 302.441-130.926L302.441-136.879C302.441-137.431 301.993-137.879 301.441-137.879C300.889-137.879 300.441-137.431 300.441-136.879Z" fill="#231f20" fill-rule="nonzero" opacity="1" stroke="none"/>
</g>
<g id="Layer-2"/>
<g id="Layer-3"/>
<g id="Layer-4">
<g opacity="1">
<path d="M1585.75 672.64C1585.82 669.991 1586.06 661.933 1591.77 659.779C1597.42 657.647 1603.24 663.446 1604.35 664.629C1605.81 666.188 1605.73 668.637 1604.17 670.099C1602.6 671.549 1600.16 671.476 1598.7 669.917C1597.36 668.497 1595.23 667.078 1594.42 667.051C1594.47 667.159 1593.62 668.401 1593.48 672.868C1593.05 687.301 1604.09 691.331 1604.56 691.494C1605.76 691.911 1606.7 692.902 1607.04 694.124L1607.22 694.774C1607.28 695.006 1607.32 695.242 1607.34 695.482C1610.53 733.529 1640.63 745.841 1654.71 745.841C1668.78 745.841 1698.88 733.533 1702.07 695.482C1702.09 695.246 1702.13 695.014 1702.19 694.785L1702.37 694.136C1702.71 692.89 1703.65 691.892 1704.88 691.486C1705.32 691.331 1716.36 687.301 1715.93 672.868C1715.78 667.948 1714.76 666.939 1714.75 666.927C1714.27 667.016 1712.08 668.47 1710.71 669.921C1709.24 671.468 1706.8 671.542 1705.24 670.083C1703.69 668.621 1703.61 666.184 1705.06 664.625C1706.17 663.442 1711.99 657.643 1717.64 659.775C1723.35 661.933 1723.59 669.991 1723.67 672.636C1724.09 686.941 1715.64 694.843 1709.62 697.861C1705.55 736.271 1675.27 753.574 1654.71 753.574C1634.15 753.574 1603.86 736.275 1599.8 697.861C1593.77 694.847 1585.33 686.949 1585.75 672.64ZM1595.65 646.751C1595.65 593.467 1638.21 581.797 1654.61 581.797C1671.06 581.797 1713.76 593.467 1713.76 646.751C1713.76 648.445 1712.65 649.946 1711.03 650.449L1705 652.309L1699.63 658.258C1698.9 659.075 1697.85 659.535 1696.76 659.535C1696.64 659.535 1696.52 659.531 1696.39 659.519C1695.2 659.403 1694.13 658.746 1693.49 657.736C1693.26 657.4 1685.49 646.793 1654.71 646.77C1623.59 646.793 1615.99 657.636 1615.92 657.744C1615.26 658.734 1614.15 659.403 1612.96 659.492C1611.78 659.601 1610.58 659.152 1609.78 658.266L1604.41 652.317L1598.38 650.456C1596.76 649.95 1595.65 648.449 1595.65 646.751ZM1603.44 643.915L1607.71 645.234C1608.37 645.439 1608.97 645.822 1609.44 646.337L1612.7 649.957C1617.82 645.586 1629.65 639.053 1654.71 639.034C1679.76 639.049 1691.6 645.586 1696.71 649.957L1699.97 646.341C1700.44 645.822 1701.04 645.443 1701.7 645.234L1705.97 643.915C1704.28 591.034 1655.12 589.533 1654.61 589.533C1654.11 589.533 1605.13 591.034 1603.44 643.915ZM1612.31 634.508C1611.59 632.496 1612.63 630.28 1614.64 629.557C1620.1 627.588 1625.7 626.129 1631.35 624.996C1630.48 621.902 1629.59 618.807 1628.78 615.701C1628.52 614.703 1628.67 613.639 1629.19 612.753C1629.72 611.864 1630.58 611.222 1631.58 610.974C1646.92 607.125 1662.48 607.125 1677.82 610.974C1678.82 611.225 1679.68 611.864 1680.21 612.753C1680.73 613.639 1680.88 614.703 1680.62 615.701C1679.81 618.803 1678.93 621.898 1678.05 624.996C1683.7 626.129 1689.3 627.588 1694.76 629.557C1696.78 630.28 1697.82 632.496 1697.09 634.508C1696.52 636.086 1695.04 637.065 1693.45 637.069C1693.02 637.069 1692.57 636.991 1692.14 636.837C1668 628.141 1641.4 628.141 1617.26 636.837C1615.25 637.556 1613.04 636.515 1612.31 634.508ZM1639.02 623.731C1649.43 622.343 1659.97 622.343 1670.39 623.731C1670.97 621.689 1671.56 619.65 1672.11 617.604C1660.54 615.233 1648.86 615.233 1637.29 617.604C1637.85 619.65 1638.44 621.689 1639.02 623.731ZM1782.18 706.444L1782.18 726.203C1782.18 728.276 1781.07 730.191 1779.28 731.227L1765.07 739.432L1765.07 788.008C1765.07 788.116 1765.04 788.213 1765.04 788.317C1769.72 788.994 1773.29 790.549 1775.8 793.068C1780.42 797.713 1780.39 804.231 1780.35 809.983L1780.35 836.824C1780.35 848.448 1770.89 857.906 1759.27 857.906C1747.65 857.906 1738.19 848.448 1738.19 836.824L1738.18 809.983C1738.15 804.231 1738.12 797.713 1742.74 793.068C1745.24 790.546 1748.82 788.994 1753.5 788.317C1753.5 788.213 1753.47 788.112 1753.47 788.008L1753.47 782.055C1749.5 768.59 1741.39 756.123 1730.49 746.302L1719.82 776.67L1719.82 858.203L1654.71 858.203L1589.6 858.203L1589.6 776.67L1578.54 745.195C1563.31 757.728 1553.25 774.516 1551.08 792.213C1551.44 792.507 1551.87 792.743 1552.2 793.068C1556.82 797.713 1556.78 804.231 1556.75 809.983L1556.75 836.828C1556.75 848.452 1547.29 857.91 1535.67 857.91C1524.04 857.91 1514.59 848.452 1514.59 836.828L1514.58 809.987C1514.55 804.235 1514.52 797.717 1519.13 793.071C1520.92 791.273 1523.26 789.977 1526.14 789.122L1526.14 768.644C1526.14 766.509 1527.87 764.776 1530 764.776L1532.76 764.776L1532.76 727.491C1532.76 725.889 1534.06 724.59 1535.66 724.59C1537.26 724.59 1538.56 725.889 1538.56 727.491L1538.56 764.776L1541.33 764.776C1543.46 764.776 1545.19 766.509 1545.19 768.644L1545.19 781.912C1549.71 764.942 1560.64 749.284 1575.83 737.486L1574.69 734.229C1573.98 732.214 1575.04 730.005 1577.06 729.297C1579.07 728.585 1581.28 729.649 1581.99 731.664L1582.38 732.782C1587.62 729.359 1593.27 726.365 1599.28 723.901C1600.26 723.495 1601.38 723.514 1602.35 723.959C1603.32 724.4 1604.07 725.228 1604.41 726.237C1611.21 746.278 1630.78 759.229 1654.26 759.229C1677.74 759.229 1697.31 746.278 1704.11 726.237C1704.45 725.228 1705.19 724.4 1706.17 723.959C1707.14 723.514 1708.25 723.495 1709.24 723.901C1715.47 726.462 1721.33 729.742 1726.77 733.548L1727.43 731.668C1728.13 729.653 1730.34 728.593 1732.36 729.301C1734.37 730.009 1735.43 732.218 1734.73 734.233L1733.24 738.472C1741.43 745.365 1748.3 753.612 1753.46 762.66L1753.46 739.436L1739.25 731.231C1737.46 730.195 1736.35 728.28 1736.35 726.206L1736.35 706.448C1736.35 703.241 1738.95 700.646 1742.15 700.646C1745.36 700.646 1747.95 703.241 1747.95 706.448L1747.95 722.857L1759.27 729.386L1770.58 722.857L1770.58 706.448C1770.58 703.241 1773.17 700.646 1776.38 700.646C1779.58 700.646 1782.18 703.237 1782.18 706.444ZM1533.87 785.331L1537.46 785.331L1537.46 772.512L1533.87 772.512L1533.87 785.331ZM1547.83 842.255L1539.95 842.255C1537.81 842.255 1536.08 840.522 1536.08 838.387C1536.08 836.252 1537.81 834.519 1539.95 834.519L1549 834.519L1549 827.989L1539.95 827.989C1537.81 827.989 1536.08 826.256 1536.08 824.121C1536.08 821.986 1537.81 820.253 1539.95 820.253L1549.01 820.253L1549.01 813.205L1539.95 813.205C1537.81 813.205 1536.08 811.472 1536.08 809.337C1536.08 807.202 1537.81 805.469 1539.95 805.469L1548.94 805.469C1548.78 802.603 1548.28 800.104 1546.71 798.526C1544.81 796.615 1541.09 795.644 1535.66 795.644C1530.23 795.644 1526.51 796.611 1524.62 798.526C1522.26 800.889 1522.29 805.287 1522.31 809.944L1522.32 836.828C1522.32 844.185 1528.31 850.173 1535.66 850.173C1541.09 850.173 1545.74 846.912 1547.83 842.255ZM1601.56 785.258C1601.56 783.896 1600.45 782.79 1599.09 782.79C1597.73 782.79 1596.62 783.896 1596.62 785.258C1596.62 786.619 1597.73 787.726 1599.09 787.726C1600.45 787.726 1601.56 786.619 1601.56 785.258ZM1689.63 822.91C1689.63 820.775 1687.89 819.042 1685.76 819.042L1623.65 819.042C1621.52 819.042 1619.78 820.775 1619.78 822.91C1619.78 825.046 1621.52 826.779 1623.65 826.779L1685.76 826.779C1687.89 826.779 1689.63 825.046 1689.63 822.91ZM1654.71 787.726C1656.07 787.726 1657.17 786.619 1657.17 785.258C1657.17 783.896 1656.07 782.79 1654.71 782.79C1653.34 782.79 1652.24 783.896 1652.24 785.258C1652.24 786.619 1653.34 787.726 1654.71 787.726ZM1712.79 785.258C1712.79 783.896 1711.68 782.79 1710.32 782.79C1708.96 782.79 1707.85 783.896 1707.85 785.258C1707.85 786.619 1708.96 787.726 1710.32 787.726C1711.68 787.726 1712.79 786.619 1712.79 785.258ZM1724.1 741.13C1719.69 737.877 1714.96 735.003 1709.92 732.647C1700.95 753.628 1679.56 766.961 1654.25 766.961C1628.95 766.961 1607.55 753.624 1598.58 732.635C1593.77 734.844 1589.25 737.436 1585.02 740.318L1597.49 775.808L1654.7 775.808L1711.91 775.808L1724.1 741.13ZM1770.31 798.526C1768.41 796.615 1764.69 795.644 1759.27 795.644C1753.83 795.644 1750.12 796.611 1748.22 798.526C1746.65 800.108 1746.14 802.603 1745.99 805.469L1754.98 805.469C1757.11 805.469 1758.85 807.202 1758.85 809.337C1758.85 811.472 1757.11 813.205 1754.98 813.205L1745.92 813.205L1745.92 820.253L1754.98 820.253C1757.11 820.253 1758.85 821.986 1758.85 824.121C1758.85 826.256 1757.11 827.989 1754.98 827.989L1745.92 827.989L1745.92 834.519L1754.98 834.519C1757.11 834.519 1758.85 836.252 1758.85 838.387C1758.85 840.522 1757.11 842.255 1754.98 842.255L1747.1 842.255C1749.18 846.912 1753.84 850.173 1759.26 850.173C1766.62 850.173 1772.61 844.185 1772.61 836.828L1772.61 809.944C1772.64 805.287 1772.66 800.893 1770.31 798.526ZM1657.08 676.675L1657.08 695.834L1648.46 695.834C1646.33 695.834 1644.59 697.567 1644.59 699.702C1644.59 701.837 1646.33 703.57 1648.46 703.57L1660.95 703.57C1663.08 703.57 1664.82 701.837 1664.82 699.702L1664.82 676.675C1664.82 674.539 1663.08 672.807 1660.95 672.807C1658.81 672.807 1657.08 674.539 1657.08 676.675Z" fill="#fc814a" fill-rule="nonzero" opacity="1" stroke="none"/>
<path d="M794.154 687.081C791.124 687.081 788.376 686.375 785.91 684.962C783.444 683.55 781.48 681.649 780.016 679.26C778.552 676.872 777.82 674.162 777.82 671.132C777.82 668.871 778.32 666.752 779.322 664.775C780.324 662.797 781.672 661.089 783.367 659.651C781.724 658.264 780.427 656.62 779.476 654.72C778.526 652.819 778.051 650.816 778.051 648.71C778.051 645.73 778.77 643.072 780.208 640.735C781.646 638.398 783.573 636.549 785.987 635.187C788.401 633.826 791.072 633.145 794 633.145L816.73 633.145L816.73 644.01L796.004 643.933C795.028 643.933 794.129 644.164 793.307 644.626C792.485 645.088 791.83 645.705 791.342 646.475C790.854 647.246 790.61 648.145 790.61 649.172C790.61 650.148 790.854 651.034 791.342 651.83C791.83 652.626 792.485 653.243 793.307 653.68C794.129 654.116 795.028 654.334 796.004 654.334L814.111 654.334L814.111 665.122L796.389 665.122C795.31 665.122 794.334 665.378 793.461 665.892C792.588 666.406 791.894 667.074 791.381 667.895C790.867 668.717 790.61 669.668 790.61 670.746C790.61 671.774 790.867 672.711 791.381 673.559C791.894 674.406 792.588 675.061 793.461 675.523C794.334 675.986 795.31 676.217 796.389 676.217L816.73 676.217L816.73 687.081L794.154 687.081Z" fill="#fc814a" fill-rule="nonzero" opacity="1" stroke="none"/>
<path d="M821.276 687.081L833.296 669.822C831.19 668.743 829.431 667.446 828.018 665.931C826.606 664.415 825.527 662.682 824.782 660.73C824.037 658.778 823.665 656.697 823.665 654.489L823.665 647.554L835.608 647.554L835.608 653.872C835.608 655.105 835.852 656.248 836.34 657.301C836.828 658.354 837.496 659.227 838.343 659.921C839.191 660.614 840.128 661.115 841.155 661.423L850.247 647.554L863.731 647.554L852.328 664.12C854.639 665.045 856.604 666.316 858.222 667.934C859.84 669.552 861.073 671.388 861.921 673.443C862.768 675.498 863.192 677.707 863.192 680.069L863.192 687.081L851.172 687.081L851.172 680.455C851.172 679.068 850.851 677.809 850.209 676.679C849.567 675.549 848.719 674.625 847.666 673.905C846.613 673.186 845.445 672.775 844.16 672.673L834.683 687.081L821.276 687.081Z" fill="#fc814a" fill-rule="nonzero" opacity="1" stroke="none"/>
<path d="M890.237 687.081C886.127 687.081 882.48 686.221 879.296 684.5C876.111 682.779 873.594 680.442 871.745 677.488C869.895 674.535 868.971 671.157 868.971 667.356C868.971 663.555 869.895 660.177 871.745 657.224C873.594 654.27 876.111 651.92 879.296 650.174C882.48 648.427 886.127 647.554 890.237 647.554L896.17 647.554L896.17 657.648L890.699 657.648C888.696 657.648 886.975 658.071 885.537 658.919C884.098 659.767 882.981 660.922 882.185 662.386C881.389 663.85 880.991 665.507 880.991 667.356C880.991 669.205 881.389 670.862 882.185 672.326C882.981 673.79 884.098 674.946 885.537 675.793C886.975 676.641 888.696 677.064 890.699 677.064L896.17 677.064L896.17 687.081L890.237 687.081Z" fill="#fc814a" fill-rule="nonzero" opacity="1" stroke="none"/>
<path d="M923.446 687.081C918.977 687.081 915.047 686.246 911.657 684.577C908.267 682.907 905.634 680.596 903.759 677.642C901.884 674.689 900.947 671.26 900.947 667.356C900.947 663.041 901.846 659.343 903.644 656.261C905.442 653.179 907.843 650.803 910.848 649.134C913.853 647.464 917.179 646.629 920.826 646.629C924.987 646.629 928.467 647.503 931.266 649.249C934.066 650.996 936.185 653.371 937.623 656.376C939.061 659.381 939.781 662.81 939.781 666.663C939.781 667.33 939.742 668.114 939.665 669.013C939.588 669.912 939.498 670.618 939.395 671.132L913.506 671.132C913.814 672.467 914.405 673.597 915.278 674.522C916.152 675.446 917.256 676.127 918.592 676.564C919.927 677 921.417 677.219 923.061 677.219L935.157 677.219L935.157 687.081L923.446 687.081ZM913.198 663.658L928.223 663.658C928.12 662.836 927.966 662.04 927.761 661.269C927.555 660.499 927.234 659.818 926.797 659.227C926.361 658.636 925.86 658.123 925.295 657.686C924.73 657.25 924.075 656.903 923.33 656.646C922.585 656.389 921.751 656.261 920.826 656.261C919.645 656.261 918.592 656.466 917.667 656.877C916.742 657.288 915.972 657.84 915.355 658.534C914.739 659.227 914.264 660.023 913.93 660.922C913.596 661.821 913.352 662.733 913.198 663.658Z" fill="#fc814a" fill-rule="nonzero" opacity="1" stroke="none"/>
<path d="M967.596 646.629C970.935 646.629 973.901 647.156 976.495 648.209C979.089 649.262 981.298 650.752 983.122 652.678C984.945 654.604 986.345 656.864 987.321 659.458C988.297 662.052 988.785 664.916 988.785 668.049C988.785 671.953 987.976 675.408 986.358 678.413C984.74 681.418 982.518 683.768 979.693 685.463C976.868 687.158 973.58 688.006 969.83 688.006C968.238 688.006 966.736 687.8 965.323 687.389C963.91 686.978 962.626 686.388 961.47 685.617C960.315 684.847 959.351 683.896 958.581 682.766L958.35 682.766L958.35 703.801L946.407 703.801L946.407 668.049C946.407 663.683 947.28 659.908 949.027 656.723C950.773 653.538 953.239 651.06 956.424 649.288C959.608 647.515 963.332 646.629 967.596 646.629ZM967.596 656.954C965.747 656.954 964.141 657.404 962.78 658.303C961.419 659.201 960.379 660.434 959.66 662.001C958.941 663.568 958.581 665.327 958.581 667.279C958.581 669.231 958.941 670.977 959.66 672.518C960.379 674.059 961.419 675.279 962.78 676.178C964.141 677.077 965.747 677.527 967.596 677.527C969.445 677.527 971.038 677.077 972.373 676.178C973.709 675.279 974.749 674.059 975.494 672.518C976.238 670.977 976.611 669.231 976.611 667.279C976.611 665.327 976.238 663.568 975.494 662.001C974.749 660.434 973.709 659.201 972.373 658.303C971.038 657.404 969.445 656.954 967.596 656.954Z" fill="#fc814a" fill-rule="nonzero" opacity="1" stroke="none"/>
<path d="M1008.82 687.081C1005.17 687.081 1002.32 686.041 1000.27 683.96C998.211 681.88 997.183 679.068 997.183 675.523L997.183 637.923L1009.2 637.923L1009.2 674.83C1009.2 675.446 1009.42 675.973 1009.86 676.41C1010.29 676.846 1010.82 677.064 1011.44 677.064L1020.07 677.064L1020.07 687.081L1008.82 687.081ZM990.711 657.339L990.711 647.554L1020.07 647.554L1020.07 657.339L990.711 657.339Z" fill="#fc814a" fill-rule="nonzero" opacity="1" stroke="none"/>
<path d="M1027.39 687.081L1027.39 647.554L1039.41 647.554L1039.41 687.081L1027.39 687.081ZM1033.4 643.085C1031.5 643.085 1029.85 642.392 1028.47 641.005C1027.08 639.618 1026.39 637.974 1026.39 636.073C1026.39 634.173 1027.08 632.516 1028.47 631.104C1029.85 629.691 1031.5 628.985 1033.4 628.985C1035.3 628.985 1036.94 629.691 1038.33 631.104C1039.72 632.516 1040.41 634.173 1040.41 636.073C1040.41 637.974 1039.72 639.618 1038.33 641.005C1036.94 642.392 1035.3 643.085 1033.4 643.085Z" fill="#fc814a" fill-rule="nonzero" opacity="1" stroke="none"/>
<path d="M1067.76 688.006C1063.7 688.006 1060.06 687.107 1056.82 685.309C1053.58 683.511 1051.03 681.045 1049.15 677.912C1047.28 674.779 1046.34 671.26 1046.34 667.356C1046.34 663.401 1047.28 659.869 1049.15 656.762C1051.03 653.654 1053.58 651.188 1056.82 649.365C1060.06 647.541 1063.7 646.629 1067.76 646.629C1071.82 646.629 1075.45 647.541 1078.66 649.365C1081.88 651.188 1084.42 653.654 1086.29 656.762C1088.17 659.869 1089.11 663.401 1089.11 667.356C1089.11 671.26 1088.17 674.779 1086.29 677.912C1084.42 681.045 1081.86 683.511 1078.63 685.309C1075.39 687.107 1071.77 688.006 1067.76 688.006ZM1067.76 677.604C1069.66 677.604 1071.31 677.141 1072.69 676.217C1074.08 675.292 1075.16 674.059 1075.93 672.518C1076.7 670.977 1077.09 669.231 1077.09 667.279C1077.09 665.378 1076.7 663.658 1075.93 662.117C1075.16 660.576 1074.08 659.343 1072.69 658.418C1071.31 657.494 1069.66 657.031 1067.76 657.031C1065.86 657.031 1064.2 657.494 1062.79 658.418C1061.38 659.343 1060.29 660.576 1059.52 662.117C1058.75 663.658 1058.36 665.378 1058.36 667.279C1058.36 669.231 1058.75 670.977 1059.52 672.518C1060.29 674.059 1061.38 675.292 1062.79 676.217C1064.2 677.141 1065.86 677.604 1067.76 677.604Z" fill="#fc814a" fill-rule="nonzero" opacity="1" stroke="none"/>
<path d="M1096.19 687.081L1096.19 664.351C1096.19 661.064 1096.99 658.084 1098.58 655.413C1100.17 652.742 1102.45 650.61 1105.4 649.018C1108.36 647.426 1111.86 646.629 1115.92 646.629C1120.03 646.629 1123.53 647.426 1126.44 649.018C1129.34 650.61 1131.56 652.742 1133.1 655.413C1134.64 658.084 1135.41 661.064 1135.41 664.351L1135.41 687.081L1123.47 687.081L1123.47 664.659C1123.47 663.272 1123.14 662.001 1122.47 660.845C1121.8 659.689 1120.89 658.765 1119.73 658.071C1118.58 657.378 1117.28 657.031 1115.84 657.031C1114.35 657.031 1113.03 657.378 1111.87 658.071C1110.72 658.765 1109.81 659.689 1109.14 660.845C1108.47 662.001 1108.14 663.272 1108.14 664.659L1108.14 687.081L1096.19 687.081Z" fill="#fc814a" fill-rule="nonzero" opacity="1" stroke="none"/>
<path d="M1160.22 688.006C1156.73 688.006 1153.65 687.107 1150.98 685.309C1148.31 683.511 1146.23 681.084 1144.74 678.028C1143.25 674.971 1142.5 671.517 1142.5 667.664C1142.5 663.658 1143.37 660.075 1145.12 656.916C1146.87 653.757 1149.35 651.252 1152.56 649.403C1155.77 647.554 1159.56 646.629 1163.92 646.629C1168.34 646.629 1172.1 647.541 1175.21 649.365C1178.32 651.188 1180.71 653.68 1182.38 656.839C1184.04 659.998 1184.88 663.529 1184.88 667.433L1184.88 687.081L1173.17 687.081L1173.17 680.763L1172.86 680.763C1172.14 682.15 1171.22 683.395 1170.09 684.5C1168.96 685.604 1167.58 686.465 1165.96 687.081C1164.35 687.697 1162.43 688.006 1160.22 688.006ZM1163.77 677.681C1165.57 677.681 1167.14 677.231 1168.51 676.332C1169.87 675.434 1170.91 674.188 1171.63 672.595C1172.35 671.003 1172.71 669.231 1172.71 667.279C1172.71 665.378 1172.35 663.658 1171.63 662.117C1170.91 660.576 1169.87 659.356 1168.51 658.457C1167.14 657.558 1165.57 657.108 1163.77 657.108C1161.92 657.108 1160.3 657.558 1158.91 658.457C1157.53 659.356 1156.47 660.576 1155.75 662.117C1155.03 663.658 1154.68 665.378 1154.68 667.279C1154.68 669.231 1155.03 671.003 1155.75 672.595C1156.47 674.188 1157.53 675.434 1158.91 676.332C1160.3 677.231 1161.92 677.681 1163.77 677.681Z" fill="#fc814a" fill-rule="nonzero" opacity="1" stroke="none"/>
<path d="M1193.74 687.081L1193.74 630.834L1205.68 630.834L1205.68 687.081L1193.74 687.081Z" fill="#fc814a" fill-rule="nonzero" opacity="1" stroke="none"/>
<path d="M1235.04 687.081L1235.04 677.604L1254.07 677.604C1254.58 677.604 1255.05 677.488 1255.46 677.257C1255.87 677.026 1256.2 676.705 1256.46 676.294C1256.72 675.883 1256.84 675.446 1256.84 674.984C1256.84 674.47 1256.72 674.008 1256.46 673.597C1256.2 673.186 1255.87 672.865 1255.46 672.634C1255.05 672.403 1254.58 672.287 1254.07 672.287L1247.14 672.287C1244.57 672.287 1242.24 671.864 1240.16 671.016C1238.08 670.168 1236.44 668.833 1235.23 667.009C1234.02 665.186 1233.42 662.81 1233.42 659.882C1233.42 657.622 1233.97 655.567 1235.08 653.718C1236.18 651.869 1237.7 650.379 1239.62 649.249C1241.55 648.119 1243.67 647.554 1245.98 647.554L1265.01 647.554L1265.01 657.108L1247.83 657.108C1247.11 657.108 1246.51 657.339 1246.02 657.802C1245.53 658.264 1245.29 658.829 1245.29 659.497C1245.29 660.216 1245.53 660.82 1246.02 661.308C1246.51 661.796 1247.11 662.04 1247.83 662.04L1254.61 662.04C1257.49 662.04 1259.97 662.463 1262.05 663.311C1264.13 664.158 1265.74 665.507 1266.9 667.356C1268.06 669.205 1268.63 671.594 1268.63 674.522C1268.63 676.833 1268.06 678.939 1266.9 680.84C1265.74 682.741 1264.2 684.256 1262.28 685.386C1260.35 686.516 1258.18 687.081 1255.77 687.081L1235.04 687.081Z" fill="#ffffff" fill-rule="nonzero" opacity="1" stroke="none"/>
<path d="M1296.45 687.081C1291.98 687.081 1288.05 686.246 1284.66 684.577C1281.27 682.907 1278.64 680.596 1276.76 677.642C1274.89 674.689 1273.95 671.26 1273.95 667.356C1273.95 663.041 1274.85 659.343 1276.65 656.261C1278.44 653.179 1280.85 650.803 1283.85 649.134C1286.86 647.464 1290.18 646.629 1293.83 646.629C1297.99 646.629 1301.47 647.503 1304.27 649.249C1307.07 650.996 1309.19 653.371 1310.63 656.376C1312.06 659.381 1312.78 662.81 1312.78 666.663C1312.78 667.33 1312.75 668.114 1312.67 669.013C1312.59 669.912 1312.5 670.618 1312.4 671.132L1286.51 671.132C1286.82 672.467 1287.41 673.597 1288.28 674.522C1289.15 675.446 1290.26 676.127 1291.59 676.564C1292.93 677 1294.42 677.219 1296.06 677.219L1308.16 677.219L1308.16 687.081L1296.45 687.081ZM1286.2 663.658L1301.23 663.658C1301.12 662.836 1300.97 662.04 1300.76 661.269C1300.56 660.499 1300.24 659.818 1299.8 659.227C1299.36 658.636 1298.86 658.123 1298.3 657.686C1297.73 657.25 1297.08 656.903 1296.33 656.646C1295.59 656.389 1294.75 656.261 1293.83 656.261C1292.65 656.261 1291.59 656.466 1290.67 656.877C1289.75 657.288 1288.98 657.84 1288.36 658.534C1287.74 659.227 1287.27 660.023 1286.93 660.922C1286.6 661.821 1286.36 662.733 1286.2 663.658Z" fill="#ffffff" fill-rule="nonzero" opacity="1" stroke="none"/>
<path d="M1319.41 687.081L1319.41 659.189C1319.41 655.593 1320.44 652.768 1322.49 650.713C1324.55 648.658 1327.4 647.631 1331.04 647.631L1342.53 647.631L1342.53 657.339L1333.97 657.339C1333.25 657.339 1332.64 657.583 1332.12 658.071C1331.61 658.559 1331.35 659.189 1331.35 659.959L1331.35 687.081L1319.41 687.081Z" fill="#ffffff" fill-rule="nonzero" opacity="1" stroke="none"/>
<path d="M1365.87 688.006C1363.51 688.006 1361.35 687.389 1359.4 686.156C1357.45 684.924 1356.11 683.254 1355.39 681.148L1344.14 647.554L1357.24 647.554L1365.18 675.755C1365.28 675.96 1365.4 676.114 1365.53 676.217C1365.65 676.32 1365.79 676.371 1365.95 676.371C1366.15 676.371 1366.32 676.32 1366.45 676.217C1366.58 676.114 1366.67 675.96 1366.72 675.755L1374.81 647.554L1387.6 647.554L1376.35 681.148C1375.63 683.254 1374.31 684.924 1372.38 686.156C1370.46 687.389 1368.29 688.006 1365.87 688.006Z" fill="#ffffff" fill-rule="nonzero" opacity="1" stroke="none"/>
<path d="M1392.84 687.081L1392.84 647.554L1404.86 647.554L1404.86 687.081L1392.84 687.081ZM1398.85 643.085C1396.95 643.085 1395.31 642.392 1393.92 641.005C1392.53 639.618 1391.84 637.974 1391.84 636.073C1391.84 634.173 1392.53 632.516 1393.92 631.104C1395.31 629.691 1396.95 628.985 1398.85 628.985C1400.75 628.985 1402.39 629.691 1403.78 631.104C1405.17 632.516 1405.86 634.173 1405.86 636.073C1405.86 637.974 1405.17 639.618 1403.78 641.005C1402.39 642.392 1400.75 643.085 1398.85 643.085Z" fill="#ffffff" fill-rule="nonzero" opacity="1" stroke="none"/>
<path d="M1433.06 687.081C1428.95 687.081 1425.3 686.221 1422.12 684.5C1418.93 682.779 1416.42 680.442 1414.57 677.488C1412.72 674.535 1411.79 671.157 1411.79 667.356C1411.79 663.555 1412.72 660.177 1414.57 657.224C1416.42 654.27 1418.93 651.92 1422.12 650.174C1425.3 648.427 1428.95 647.554 1433.06 647.554L1438.99 647.554L1438.99 657.648L1433.52 657.648C1431.52 657.648 1429.8 658.071 1428.36 658.919C1426.92 659.767 1425.8 660.922 1425.01 662.386C1424.21 663.85 1423.81 665.507 1423.81 667.356C1423.81 669.205 1424.21 670.862 1425.01 672.326C1425.8 673.79 1426.92 674.946 1428.36 675.793C1429.8 676.641 1431.52 677.064 1433.52 677.064L1438.99 677.064L1438.99 687.081L1433.06 687.081Z" fill="#ffffff" fill-rule="nonzero" opacity="1" stroke="none"/>
<path d="M1466.27 687.081C1461.8 687.081 1457.87 686.246 1454.48 684.577C1451.09 682.907 1448.46 680.596 1446.58 677.642C1444.71 674.689 1443.77 671.26 1443.77 667.356C1443.77 663.041 1444.67 659.343 1446.47 656.261C1448.26 653.179 1450.67 650.803 1453.67 649.134C1456.68 647.464 1460 646.629 1463.65 646.629C1467.81 646.629 1471.29 647.503 1474.09 649.249C1476.89 650.996 1479.01 653.371 1480.45 656.376C1481.88 659.381 1482.6 662.81 1482.6 666.663C1482.6 667.33 1482.57 668.114 1482.49 669.013C1482.41 669.912 1482.32 670.618 1482.22 671.132L1456.33 671.132C1456.64 672.467 1457.23 673.597 1458.1 674.522C1458.97 675.446 1460.08 676.127 1461.41 676.564C1462.75 677 1464.24 677.219 1465.88 677.219L1477.98 677.219L1477.98 687.081L1466.27 687.081ZM1456.02 663.658L1471.05 663.658C1470.94 662.836 1470.79 662.04 1470.58 661.269C1470.38 660.499 1470.06 659.818 1469.62 659.227C1469.18 658.636 1468.68 658.123 1468.12 657.686C1467.55 657.25 1466.9 656.903 1466.15 656.646C1465.41 656.389 1464.57 656.261 1463.65 656.261C1462.47 656.261 1461.41 656.466 1460.49 656.877C1459.57 657.288 1458.8 657.84 1458.18 658.534C1457.56 659.227 1457.09 660.023 1456.75 660.922C1456.42 661.821 1456.18 662.733 1456.02 663.658Z" fill="#ffffff" fill-rule="nonzero" opacity="1" stroke="none"/>
<path d="M846.598 827.079L846.598 816.831L866.323 816.831C867.093 816.831 867.736 816.587 868.249 816.099C868.763 815.612 869.02 815.008 869.02 814.289L869.02 805.582L868.789 805.582C867.761 806.763 866.67 807.765 865.514 808.587C864.358 809.409 863.074 810.025 861.661 810.436C860.249 810.847 858.669 811.053 856.923 811.053C853.43 811.053 850.309 810.218 847.561 808.549C844.813 806.879 842.655 804.555 841.089 801.575C839.522 798.596 838.739 795.206 838.739 791.405C838.739 787.655 839.548 784.239 841.166 781.157C842.784 778.075 845.16 775.609 848.293 773.76C851.426 771.911 855.253 770.986 859.774 770.986C864.088 770.986 867.825 771.872 870.985 773.644C874.144 775.417 876.596 777.908 878.343 781.118C880.089 784.329 880.963 788.092 880.963 792.406L880.963 815.522C880.963 819.066 879.922 821.878 877.842 823.959C875.762 826.039 872.898 827.079 869.251 827.079L846.598 827.079ZM859.851 801.036C861.7 801.036 863.292 800.612 864.628 799.765C865.963 798.917 866.991 797.774 867.71 796.336C868.429 794.898 868.789 793.305 868.789 791.559C868.789 789.71 868.429 788.014 867.71 786.473C866.991 784.932 865.963 783.712 864.628 782.814C863.292 781.915 861.7 781.465 859.851 781.465C858.053 781.465 856.473 781.902 855.112 782.775C853.751 783.648 852.711 784.83 851.991 786.319C851.272 787.809 850.913 789.478 850.913 791.328C850.913 793.125 851.272 794.756 851.991 796.22C852.711 797.684 853.751 798.853 855.112 799.726C856.473 800.599 858.053 801.036 859.851 801.036Z" fill="#ffffff" fill-rule="nonzero" opacity="1" stroke="none"/>
<path d="M909.317 812.363C905.259 812.363 901.753 811.579 898.8 810.012C895.846 808.446 893.573 806.314 891.981 803.617C890.388 800.92 889.592 797.928 889.592 794.641L889.592 771.911L901.535 771.911L901.535 794.333C901.535 795.72 901.869 796.991 902.537 798.147C903.205 799.302 904.116 800.227 905.272 800.92C906.428 801.614 907.751 801.961 909.24 801.961C910.679 801.961 911.976 801.614 913.131 800.92C914.287 800.227 915.199 799.302 915.867 798.147C916.534 796.991 916.868 795.72 916.868 794.333L916.868 771.911L928.811 771.911L928.811 794.641C928.811 797.928 928.041 800.92 926.5 803.617C924.959 806.314 922.737 808.446 919.835 810.012C916.932 811.579 913.427 812.363 909.317 812.363Z" fill="#ffffff" fill-rule="nonzero" opacity="1" stroke="none"/>
<path d="M953.622 812.363C950.129 812.363 947.047 811.464 944.375 809.666C941.704 807.868 939.624 805.441 938.134 802.384C936.645 799.328 935.9 795.874 935.9 792.021C935.9 788.014 936.773 784.432 938.52 781.273C940.266 778.113 942.745 775.609 945.955 773.76C949.165 771.911 952.954 770.986 957.32 770.986C961.738 770.986 965.5 771.898 968.608 773.722C971.716 775.545 974.104 778.036 975.774 781.195C977.443 784.355 978.278 787.886 978.278 791.79L978.278 811.438L966.566 811.438L966.566 805.12L966.258 805.12C965.539 806.507 964.614 807.752 963.484 808.857C962.354 809.961 960.98 810.822 959.362 811.438C957.744 812.054 955.83 812.363 953.622 812.363ZM957.166 802.038C958.964 802.038 960.543 801.588 961.905 800.689C963.266 799.79 964.306 798.545 965.025 796.952C965.744 795.36 966.104 793.588 966.104 791.636C966.104 789.735 965.744 788.014 965.025 786.473C964.306 784.932 963.266 783.712 961.905 782.814C960.543 781.915 958.964 781.465 957.166 781.465C955.317 781.465 953.699 781.915 952.312 782.814C950.925 783.712 949.872 784.932 949.153 786.473C948.433 788.014 948.074 789.735 948.074 791.636C948.074 793.588 948.433 795.36 949.153 796.952C949.872 798.545 950.925 799.79 952.312 800.689C953.699 801.588 955.317 802.038 957.166 802.038Z" fill="#ffffff" fill-rule="nonzero" opacity="1" stroke="none"/>
<path d="M986.83 811.438L986.83 783.546C986.83 779.95 987.858 777.125 989.913 775.07C991.967 773.015 994.818 771.988 998.465 771.988L1009.95 771.988L1009.95 781.696L1001.39 781.696C1000.67 781.696 1000.06 781.94 999.544 782.428C999.03 782.916 998.773 783.546 998.773 784.316L998.773 811.438L986.83 811.438Z" fill="#ffffff" fill-rule="nonzero" opacity="1" stroke="none"/>
<path d="M1031.13 812.363C1027.64 812.363 1024.56 811.464 1021.89 809.666C1019.22 807.868 1017.14 805.441 1015.65 802.384C1014.16 799.328 1013.41 795.874 1013.41 792.021C1013.41 788.014 1014.29 784.432 1016.03 781.273C1017.78 778.113 1020.26 775.609 1023.47 773.76C1026.68 771.911 1030.47 770.986 1034.83 770.986C1039.25 770.986 1043.01 771.898 1046.12 773.722C1049.23 775.545 1051.62 778.036 1053.29 781.195C1054.96 784.355 1055.79 787.886 1055.79 791.79L1055.79 811.438L1044.08 811.438L1044.08 805.12L1043.77 805.12C1043.05 806.507 1042.13 807.752 1041 808.857C1039.87 809.961 1038.49 810.822 1036.88 811.438C1035.26 812.054 1033.34 812.363 1031.13 812.363ZM1034.68 802.038C1036.48 802.038 1038.06 801.588 1039.42 800.689C1040.78 799.79 1041.82 798.545 1042.54 796.952C1043.26 795.36 1043.62 793.588 1043.62 791.636C1043.62 789.735 1043.26 788.014 1042.54 786.473C1041.82 784.932 1040.78 783.712 1039.42 782.814C1038.06 781.915 1036.48 781.465 1034.68 781.465C1032.83 781.465 1031.21 781.915 1029.82 782.814C1028.44 783.712 1027.38 784.932 1026.67 786.473C1025.95 788.014 1025.59 789.735 1025.59 791.636C1025.59 793.588 1025.95 795.36 1026.67 796.952C1027.38 798.545 1028.44 799.79 1029.82 800.689C1031.21 801.588 1032.83 802.038 1034.68 802.038Z" fill="#ffffff" fill-rule="nonzero" opacity="1" stroke="none"/>
<path d="M1064.65 811.438L1064.65 788.708C1064.65 785.42 1065.45 782.441 1067.04 779.77C1068.63 777.099 1070.91 774.967 1073.86 773.375C1076.81 771.782 1080.32 770.986 1084.38 770.986C1088.49 770.986 1091.99 771.782 1094.89 773.375C1097.8 774.967 1100.02 777.099 1101.56 779.77C1103.1 782.441 1103.87 785.42 1103.87 788.708L1103.87 811.438L1091.93 811.438L1091.93 789.016C1091.93 787.629 1091.59 786.358 1090.93 785.202C1090.26 784.046 1089.35 783.122 1088.19 782.428C1087.04 781.735 1085.74 781.388 1084.3 781.388C1082.81 781.388 1081.49 781.735 1080.33 782.428C1079.18 783.122 1078.26 784.046 1077.6 785.202C1076.93 786.358 1076.59 787.629 1076.59 789.016L1076.59 811.438L1064.65 811.438Z" fill="#ffffff" fill-rule="nonzero" opacity="1" stroke="none"/>
<path d="M1127.29 811.438C1123.65 811.438 1120.8 810.398 1118.74 808.317C1116.69 806.237 1115.66 803.425 1115.66 799.88L1115.66 762.279L1127.68 762.279L1127.68 799.187C1127.68 799.803 1127.9 800.33 1128.33 800.766C1128.77 801.203 1129.3 801.421 1129.91 801.421L1138.54 801.421L1138.54 811.438L1127.29 811.438ZM1109.19 781.696L1109.19 771.911L1138.54 771.911L1138.54 781.696L1109.19 781.696Z" fill="#ffffff" fill-rule="nonzero" opacity="1" stroke="none"/>
<path d="M1165.13 811.438C1160.66 811.438 1156.73 810.603 1153.34 808.934C1149.95 807.264 1147.31 804.953 1145.44 801.999C1143.56 799.046 1142.63 795.617 1142.63 791.713C1142.63 787.398 1143.53 783.7 1145.32 780.618C1147.12 777.536 1149.52 775.16 1152.53 773.49C1155.53 771.821 1158.86 770.986 1162.51 770.986C1166.67 770.986 1170.15 771.859 1172.95 773.606C1175.75 775.352 1177.87 777.728 1179.3 780.733C1180.74 783.738 1181.46 787.167 1181.46 791.019C1181.46 791.687 1181.42 792.471 1181.35 793.369C1181.27 794.268 1181.18 794.975 1181.08 795.488L1155.19 795.488C1155.49 796.824 1156.09 797.954 1156.96 798.879C1157.83 799.803 1158.94 800.484 1160.27 800.92C1161.61 801.357 1163.1 801.575 1164.74 801.575L1176.84 801.575L1176.84 811.438L1165.13 811.438ZM1154.88 788.014L1169.9 788.014C1169.8 787.193 1169.65 786.396 1169.44 785.626C1169.24 784.855 1168.91 784.175 1168.48 783.584C1168.04 782.993 1167.54 782.48 1166.98 782.043C1166.41 781.606 1165.76 781.26 1165.01 781.003C1164.27 780.746 1163.43 780.618 1162.51 780.618C1161.33 780.618 1160.27 780.823 1159.35 781.234C1158.42 781.645 1157.65 782.197 1157.04 782.891C1156.42 783.584 1155.94 784.38 1155.61 785.279C1155.28 786.178 1155.03 787.09 1154.88 788.014Z" fill="#ffffff" fill-rule="nonzero" opacity="1" stroke="none"/>
<path d="M1209.05 811.438C1204.58 811.438 1200.65 810.603 1197.26 808.934C1193.87 807.264 1191.23 804.953 1189.36 801.999C1187.48 799.046 1186.55 795.617 1186.55 791.713C1186.55 787.398 1187.45 783.7 1189.24 780.618C1191.04 777.536 1193.44 775.16 1196.45 773.49C1199.45 771.821 1202.78 770.986 1206.43 770.986C1210.59 770.986 1214.07 771.859 1216.87 773.606C1219.67 775.352 1221.78 777.728 1223.22 780.733C1224.66 783.738 1225.38 787.167 1225.38 791.019C1225.38 791.687 1225.34 792.471 1225.26 793.369C1225.19 794.268 1225.1 794.975 1224.99 795.488L1199.11 795.488C1199.41 796.824 1200 797.954 1200.88 798.879C1201.75 799.803 1202.86 800.484 1204.19 800.92C1205.53 801.357 1207.02 801.575 1208.66 801.575L1220.76 801.575L1220.76 811.438L1209.05 811.438ZM1198.8 788.014L1213.82 788.014C1213.72 787.193 1213.57 786.396 1213.36 785.626C1213.15 784.855 1212.83 784.175 1212.4 783.584C1211.96 782.993 1211.46 782.48 1210.89 782.043C1210.33 781.606 1209.67 781.26 1208.93 781.003C1208.18 780.746 1207.35 780.618 1206.43 780.618C1205.24 780.618 1204.19 780.823 1203.27 781.234C1202.34 781.645 1201.57 782.197 1200.95 782.891C1200.34 783.584 1199.86 784.38 1199.53 785.279C1199.2 786.178 1198.95 787.09 1198.8 788.014Z" fill="#ffffff" fill-rule="nonzero" opacity="1" stroke="none"/>
<path d="M1251.65 812.363C1248.37 812.363 1245.4 811.849 1242.75 810.822C1240.11 809.794 1237.89 808.317 1236.09 806.391C1234.29 804.465 1232.91 802.192 1231.93 799.572C1230.95 796.952 1230.47 794.101 1230.47 791.019C1230.47 787.013 1231.27 783.52 1232.89 780.541C1234.51 777.561 1236.74 775.224 1239.6 773.529C1242.45 771.834 1245.72 770.986 1249.42 770.986C1251.01 770.986 1252.51 771.192 1253.93 771.603C1255.34 772.014 1256.62 772.617 1257.78 773.413C1258.94 774.21 1259.9 775.147 1260.67 776.226L1260.9 776.226L1260.9 755.191L1272.84 755.191L1272.84 790.942C1272.84 795.257 1271.97 799.033 1270.22 802.269C1268.48 805.505 1266.02 807.996 1262.87 809.743C1259.71 811.489 1255.97 812.363 1251.65 812.363ZM1251.65 802.038C1253.5 802.038 1255.11 801.588 1256.47 800.689C1257.83 799.79 1258.87 798.558 1259.59 796.991C1260.31 795.424 1260.67 793.665 1260.67 791.713C1260.67 789.761 1260.31 788.014 1259.59 786.473C1258.87 784.932 1257.83 783.712 1256.47 782.814C1255.11 781.915 1253.5 781.465 1251.65 781.465C1249.86 781.465 1248.26 781.915 1246.88 782.814C1245.49 783.712 1244.44 784.932 1243.72 786.473C1243 788.014 1242.64 789.761 1242.64 791.713C1242.64 793.665 1243 795.424 1243.72 796.991C1244.44 798.558 1245.49 799.79 1246.88 800.689C1248.26 801.588 1249.86 802.038 1251.65 802.038Z" fill="#ffffff" fill-rule="nonzero" opacity="1" stroke="none"/>
</g>
</g>
</svg>
