<?xml version="1.0" encoding="UTF-8" standalone="no"?>
<!DOCTYPE svg PUBLIC "-//W3C//DTD SVG 1.1//EN" "http://www.w3.org/Graphics/SVG/1.1/DTD/svg11.dtd">
<!-- Created with Vectornator (http://vectornator.io/) -->
<svg height="100%" stroke-miterlimit="10" style="fill-rule:nonzero;clip-rule:evenodd;stroke-linecap:round;stroke-linejoin:round;" version="1.1" viewBox="0 0 1024 1024" width="100%" xml:space="preserve" xmlns="http://www.w3.org/2000/svg" xmlns:vectornator="http://vectornator.io" xmlns:xlink="http://www.w3.org/1999/xlink">
<defs/>
<clipPath id="ArtboardFrame">
<rect height="1024" width="1024" x="0" y="0"/>
</clipPath>
<g clip-path="url(#ArtboardFrame)" id="Layer-2" vectornator:layerName="Layer 2">
<path d="M238.917-7.10543e-15L785.083-7.10543e-15C917.033-7.10543e-15 1024 92.5086 1024 206.624L1024 817.376C1024 931.491 917.033 1024 785.083 1024L238.917 1024C106.967 1024 0 931.491 0 817.376L0 206.624C0 92.5086 106.967-7.10543e-15 238.917-7.10543e-15Z" fill="#1f1f1f" fill-rule="evenodd" opacity="1" stroke="none"/>
</g>
<g id="Layer-1" vectornator:layerName="Layer 1">
<g opacity="1">
<path d="M403.754 110.425C389.395 115.672 376.417 120.918 375.036 122.299C373.656 123.68 375.312 135.278 378.902 149.637L384.977 174.765L374.484 186.639L363.991 198.237L336.377 199.617L308.763 200.998L303.793 229.992C301.308 245.732 299.375 259.263 299.927 259.539C300.479 260.091 312.077 263.681 325.884 267.823C347.975 273.898 351.012 275.555 352.669 282.182C353.774 286.048 356.259 293.228 358.468 297.922C362.61 306.482 362.334 307.035 349.908 326.64C342.728 337.686 336.377 348.179 335.825 350.112C334.444 353.426 376.417 390.152 380.835 390.152C381.94 389.876 391.604 381.868 402.374 371.927C415.076 360.053 422.808 354.53 425.845 355.911C428.054 356.739 435.234 358.396 441.585 358.948C452.907 360.329 453.735 361.157 464.781 381.592C470.856 393.189 476.931 403.682 478.311 405.063C480.244 406.996 523.874 393.189 532.986 387.667C535.748 386.01 535.195 380.211 530.777 360.605L524.702 335.477L535.472 321.67L545.965 307.863L572.474 309.244L599.259 310.901L602.021 295.989C610.029 254.292 610.305 250.703 607.267 248.77C605.61 247.665 593.736 244.075 581.31 240.486C563.638 235.791 558.115 233.03 556.734 228.612C555.906 225.574 553.421 218.395 550.935 212.872L546.517 202.379L560.876 180.012C568.608 167.862 574.959 157.369 574.959 156.816C574.959 156.54 564.19 147.151 551.211 136.106L527.464 116.224L508.962 134.449L490.461 152.95L472.789 150.741L455.392 148.532L442.69 124.784L429.987 101.037L403.754 110.425Z" fill="#ffffff" fill-rule="evenodd" opacity="1" stroke="none"/>
<path d="M262.925 330.506L253.536 353.426L233.93 355.082C223.437 356.187 212.116 357.568 209.078 358.396C204.66 359.501 200.794 355.911 190.025 340.447C182.293 329.678 175.389 320.289 174.285 319.461C172.904 318.632 125.961 342.656 120.162 347.351C119.61 347.627 123.752 358.672 129.275 371.927L138.939 396.227L128.446 407.824C122.647 414.176 115.468 423.012 112.43 427.154L106.908 434.886L82.3313 430.468C68.8006 427.982 57.2029 426.326 56.9268 426.878C56.6506 427.154 52.7847 440.409 48.0904 456.425L40.0824 485.419L56.6506 493.151C65.7631 497.293 75.9802 501.435 79.2938 502.263C84.8166 503.644 85.9211 506.405 88.6825 528.496C90.3393 542.303 91.1677 554.453 90.3393 555.834C89.5109 557.214 80.6745 564.118 71.0097 571.297C61.0688 578.201 53.0609 585.104 53.0609 586.761C53.0609 590.903 80.6745 638.675 82.8836 638.675C83.9882 638.675 93.9291 634.809 105.251 630.391C116.296 625.696 127.065 622.107 128.722 622.107C130.655 622.107 135.073 625.42 138.939 629.286C142.529 633.152 150.537 640.055 156.888 644.474L168.21 652.205L164.344 672.363C158.545 702.738 157.993 701.91 189.749 711.023C204.936 715.165 217.914 718.754 218.743 718.754C219.571 718.754 224.266 708.261 229.512 695.559L238.625 672.64L258.507 670.983C269.276 669.878 280.597 668.498 283.635 667.669C288.329 666.288 291.643 669.602 302.688 685.618C310.144 696.111 317.048 705.5 318.152 706.328C320.085 707.433 344.937 694.73 367.028 681.2L373.103 677.334L363.438 653.586L353.774 629.838L364.267 618.241C370.066 611.889 377.245 603.053 380.283 598.911L385.806 591.179L410.382 595.597C423.912 598.083 435.51 599.739 435.786 599.187C436.062 598.911 439.928 585.656 444.623 569.641L452.631 540.646L445.451 537.056C441.585 535.4 431.368 530.705 422.532 527.116C405.411 519.66 405.964 520.764 402.374 484.038L400.993 468.851L420.323 455.32C430.816 447.864 439.652 440.685 439.652 439.304C439.652 436.543 419.77 399.817 413.971 391.809C410.106 386.562 409.553 386.562 388.843 395.122C377.521 400.093 366.2 403.959 364.267 403.959C362.334 403.959 357.64 400.645 353.774 396.779C350.184 392.913 342.176 386.01 335.825 381.868L324.779 374.136L328.645 350.112C330.854 336.581 331.683 325.26 330.302 324.155C328.093 322.222 277.836 307.311 273.97 307.311C273.142 307.311 268.171 317.804 262.925 330.506Z" fill="#ffffff" fill-rule="evenodd" opacity="1" stroke="none"/>
<path d="M667.741 363.09C666.913 368.061 665.256 379.382 664.151 388.495L661.942 404.787L643.993 409.481C634.052 411.967 623.559 415.004 620.246 416.109C615.275 417.489 611.961 414.728 600.088 398.436C592.08 387.943 584.9 379.106 584.072 379.106C582.967 379.106 535.748 405.063 531.33 408.101C531.053 408.377 534.919 418.87 540.442 431.572L550.107 454.492L532.434 472.164L514.761 490.113L492.118 479.896C479.416 474.65 468.923 470.508 468.647 470.784C461.191 481.277 439.652 523.25 440.757 525.183C441.861 526.563 450.698 533.743 460.362 540.922C473.065 550.311 478.035 555.558 476.655 558.595C475.826 560.804 472.789 571.297 470.027 582.067L465.057 601.396L449.041 603.605C439.928 604.71 428.607 606.367 423.636 607.195L414.524 608.576L415.352 639.503L416.181 670.43L440.757 673.192L465.333 675.953L470.027 695.283C472.789 705.776 475.55 716.545 476.655 719.031C478.035 722.344 473.341 727.315 458.982 738.084C448.489 746.368 439.652 753.824 439.652 754.928C439.652 756.585 465.885 802.7 468.923 806.566C469.199 807.118 479.692 803.252 491.842 798.006L514.209 788.341L532.158 806.014L549.831 823.962L540.166 846.33C534.919 858.48 531.053 868.973 531.33 869.249C531.882 869.525 540.166 874.495 550.107 880.294C560.048 886.093 571.646 892.997 576.064 895.758L584.348 900.452L598.983 880.847C607.267 869.801 614.723 860.965 615.827 860.965C616.932 861.241 622.731 862.622 628.806 864.555C634.881 866.211 645.098 868.973 651.173 870.63L662.771 873.391L664.704 892.168C668.017 926.133 664.98 923.372 700.325 922.543L730.976 921.715L733.462 897.415C735.671 874.495 736.223 873.391 743.126 871.734C746.992 870.906 758.038 868.144 767.15 865.383L784.271 860.412L798.63 879.466C806.362 889.683 814.094 898.243 815.474 898.243C817.683 898.243 851.924 879.19 864.35 871.182C867.112 869.249 865.731 863.726 858.552 846.33L848.887 823.962L866.836 806.29L884.508 788.341L906.875 798.006C924.824 805.737 929.519 806.842 931.452 803.804C939.736 791.378 958.789 757.137 958.789 754.928C958.789 753.548 950.229 746.092 939.736 738.36L920.682 724.277L925.653 706.88C928.414 697.492 931.452 686.446 932.28 682.58C933.661 675.677 935.041 675.401 957.961 672.916L982.261 670.43L983.089 639.503L983.918 608.852L976.186 607.195C972.044 606.367 960.722 604.986 951.057 604.158C935.318 602.501 933.661 601.672 932.28 595.045C930.071 585.104 923.996 563.842 921.787 558.595C920.406 555.558 925.377 550.311 938.079 540.922C947.744 533.743 956.58 526.563 957.685 525.183C958.789 523.25 935.594 477.411 929.795 471.06C929.519 470.508 919.302 474.65 906.875 479.896L884.232 489.837L866.283 472.164L848.611 454.215L858.275 431.572C863.522 418.87 867.388 408.377 867.112 408.101C864.627 406.168 816.026 379.106 814.646 379.106C813.817 379.106 806.638 387.943 798.63 398.712C787.861 413.071 782.89 417.765 779.576 416.385C777.091 415.28 766.598 412.243 755.829 409.481L736.499 404.511L733.185 380.211C731.529 366.68 729.872 355.359 729.872 354.806C729.596 354.53 716.065 354.254 699.221 354.254L669.122 354.254L667.741 363.09Z" fill="#ffffff" fill-rule="evenodd" opacity="1" stroke="none"/>
</g>
</g>
<g id="Layer-3" vectornator:layerName="Layer 3">
<path d="M337.572 746.853C337.572 724.762 355.481 706.853 377.572 706.853C399.664 706.853 417.572 724.762 417.572 746.853C417.572 768.944 399.664 786.853 377.572 786.853C355.481 786.853 337.572 768.944 337.572 746.853Z" fill="#ffffff" fill-rule="evenodd" opacity="1" stroke="none"/>
</g>
</svg>
