<?xml version="1.0" encoding="UTF-8" standalone="no"?>
<!DOCTYPE svg PUBLIC "-//W3C//DTD SVG 1.1//EN" "http://www.w3.org/Graphics/SVG/1.1/DTD/svg11.dtd">
<!-- Created with Vectornator (http://vectornator.io/) -->
<svg height="100%" stroke-miterlimit="10" style="fill-rule:nonzero;clip-rule:evenodd;stroke-linecap:round;stroke-linejoin:round;" version="1.1" viewBox="0 0 1024 1024" width="100%" xml:space="preserve" xmlns="http://www.w3.org/2000/svg" xmlns:vectornator="http://vectornator.io" xmlns:xlink="http://www.w3.org/1999/xlink">
<defs/>
<clipPath id="ArtboardFrame">
<rect height="1024" width="1024" x="0" y="0"/>
</clipPath>
<g clip-path="url(#ArtboardFrame)" id="Layer-2" vectornator:layerName="Layer 2">
<path d="M1 0L1023 0C1023.55 0 1024 0.447715 1024 1L1024 1023C1024 1023.55 1023.55 1024 1023 1024L1 1024C0.447715 1024-3.09132e-14 1023.55-3.09132e-14 1023L-3.09132e-14 1C-3.09132e-14 0.447715 0.447715 0 1 0Z" fill="#0f0f0f" fill-rule="nonzero" opacity="1" stroke="none"/>
<path d="M1023.55 793.9L1023.55 793.9C1023.8 793.9 1024 794.101 1024 794.349L1024 794.484C1024 794.732 1023.8 794.933 1023.55 794.933L1023.55 794.933C1023.3 794.933 1023.1 794.732 1023.1 794.484L1023.1 794.349C1023.1 794.101 1023.3 793.9 1023.55 793.9Z" fill="#0f0f0f" fill-rule="nonzero" opacity="1" stroke="none"/>
</g>
<g id="Layer-3" vectornator:layerName="Layer 3" visibility="hidden">
<path d="M2 512C2 230.335 230.335 2 512 2C793.665 2 1022 230.335 1022 512C1022 793.665 793.665 1022 512 1022C230.335 1022 2 793.665 2 512Z" fill="#0f0f0f" fill-rule="nonzero" opacity="1" stroke="none"/>
</g>
<g id="Layer-1" vectornator:layerName="Layer 1">
<g opacity="1">
<path d="M344.517 730.041C330.157 730.041 317.448 727.241 306.39 721.64C295.332 716.039 286.644 707.782 280.326 696.868C274.007 685.954 270.848 672.886 270.848 657.664C270.848 653.93 270.991 650.125 271.279 646.248C271.566 642.37 271.997 638.421 272.571 634.4C249.02 635.836 227.192 633.108 207.087 626.215C186.983 619.322 169.463 609.054 154.528 595.411C139.593 581.769 127.961 565.254 119.632 545.868C111.303 526.481 107.138 505.156 107.138 481.892C107.138 460.638 110.729 440.749 117.909 422.224C125.089 403.699 135.429 387.4 148.927 373.327C162.426 359.253 178.725 348.268 197.825 340.369C216.924 332.471 238.106 328.522 261.37 328.522C284.634 328.522 305.744 332.399 324.7 340.154C343.655 347.909 359.883 358.751 373.382 372.68C386.88 386.61 397.292 402.622 404.616 420.716C411.939 438.81 415.601 458.341 415.601 479.307L415.601 652.925C415.601 668.434 412.729 682.005 406.985 693.637C401.241 705.269 393.127 714.244 382.644 720.563C372.161 726.882 359.452 730.041 344.517 730.041ZM341.932 692.991C351.41 692.991 359.165 689.616 365.196 682.867C371.228 676.117 374.243 666.424 374.243 653.787L374.243 551.253C359.596 560.731 347.964 570.352 339.347 580.118C330.731 589.883 324.341 599.361 320.176 608.551C316.012 617.742 313.283 626.215 311.991 633.969C310.698 641.724 310.052 648.186 310.052 653.356C310.052 661.685 311.56 668.793 314.575 674.681C317.591 680.569 321.54 685.093 326.423 688.252C331.305 691.411 336.475 692.991 341.932 692.991ZM261.37 599.073C265.965 599.073 270.273 598.858 274.294 598.427C278.315 597.996 282.623 597.206 287.219 596.058C291.24 586.293 296.912 576.384 304.236 566.331C311.56 556.279 320.894 546.299 332.239 536.39C343.584 526.481 357.585 517.219 374.243 508.602L374.243 479.307C374.243 462.936 371.443 447.786 365.842 433.856C360.242 419.926 352.344 407.864 342.148 397.668C331.952 387.472 319.961 379.43 306.175 373.542C292.389 367.654 277.454 364.71 261.37 364.71C244.999 364.71 229.992 367.654 216.35 373.542C202.707 379.43 190.788 387.687 180.592 398.314C170.396 408.941 162.498 421.362 156.897 435.579C151.297 449.796 148.497 465.234 148.497 481.892C148.497 498.55 151.297 513.988 156.897 528.204C162.498 542.421 170.396 554.843 180.592 565.47C190.788 576.097 202.707 584.354 216.35 590.242C229.992 596.129 244.999 599.073 261.37 599.073Z" fill="#ffffff" fill-rule="nonzero" opacity="1" stroke="none"/>
<path d="M610.329 635.262C587.353 634.975 566.386 630.882 547.431 622.984C528.475 615.085 512.176 604.243 498.533 590.457C484.891 576.671 474.408 560.731 467.084 542.637C459.76 524.542 456.098 505.156 456.098 484.477C456.098 463.798 459.76 444.411 467.084 426.317C474.408 408.223 484.891 392.283 498.533 378.496C512.176 364.71 528.475 353.868 547.431 345.97C566.386 338.072 587.353 333.979 610.329 333.692L649.103 333.692L649.103 370.311L611.622 370.311C595.251 370.311 580.172 373.255 566.386 379.143C552.6 385.03 540.609 393.072 530.413 403.268C520.217 413.464 512.247 425.455 506.503 439.241C500.759 453.027 497.887 468.106 497.887 484.477C497.887 500.56 500.759 515.567 506.503 529.497C512.247 543.427 520.217 555.489 530.413 565.685C540.609 575.881 552.6 583.851 566.386 589.595C580.172 595.34 595.251 598.355 611.622 598.643L649.103 598.643L649.103 635.262L610.329 635.262Z" fill="#ffffff" fill-rule="nonzero" opacity="1" stroke="none"/>
<path d="M770.162 635.262C753.503 635.262 738.784 631.313 726.003 623.414C713.222 615.516 703.242 605.105 696.061 592.18C688.881 579.256 685.291 565.183 685.291 549.961C685.291 536.174 688.522 523.25 694.984 511.187C701.447 499.124 710.853 489.647 723.203 482.753C711.14 474.999 701.949 465.377 695.631 453.889C689.312 442.401 686.153 430.338 686.153 417.701C686.153 402.191 689.815 388.118 697.139 375.481C704.462 362.844 714.443 352.719 727.08 345.108C739.717 337.497 753.647 333.692 768.869 333.692L888.205 333.692L888.205 370.311L773.608 370.311C764.705 370.311 756.806 372.465 749.913 376.773C743.02 381.081 737.563 386.754 733.542 393.79C729.521 400.827 727.511 408.797 727.511 417.701C727.511 426.03 729.593 433.641 733.758 440.534C737.922 447.427 743.595 452.956 750.775 457.12C757.955 461.285 765.853 463.367 774.47 463.367L872.265 463.367L872.265 499.986L777.485 499.986C766.859 499.986 757.74 502.356 750.129 507.095C742.518 511.833 736.63 518.008 732.465 525.62C728.301 533.231 726.218 541.344 726.218 549.961C726.218 558.577 728.229 566.619 732.25 574.086C736.271 581.554 742.015 587.513 749.482 591.965C756.95 596.417 765.71 598.643 775.762 598.643L888.205 598.643L888.205 635.262L770.162 635.262Z" fill="#ffffff" fill-rule="nonzero" opacity="1" stroke="none"/>
<g opacity="1">
<path d="M859.909 724.937C852.154 724.937 845.477 722.136 839.876 716.536C834.276 710.935 831.475 704.258 831.475 696.503C831.475 688.748 834.276 682.071 839.876 676.47C845.477 670.869 852.154 668.069 859.909 668.069C867.664 668.069 874.341 670.869 879.942 676.47C885.542 682.071 888.343 688.748 888.343 696.503C888.343 701.673 887.122 706.412 884.681 710.72C882.24 715.028 878.865 718.474 874.557 721.059C870.249 723.644 865.366 724.937 859.909 724.937Z" fill="#fc814a" fill-rule="nonzero" opacity="1" stroke="none"/>
<path d="M741.435 724.937C733.68 724.937 727.003 722.136 721.402 716.536C715.802 710.935 713.001 704.258 713.001 696.503C713.001 688.748 715.802 682.071 721.402 676.47C727.003 670.869 733.68 668.069 741.435 668.069C749.19 668.069 755.867 670.869 761.468 676.47C767.069 682.071 769.869 688.748 769.869 696.503C769.869 701.673 768.648 706.412 766.207 710.72C763.766 715.028 760.391 718.474 756.083 721.059C751.775 723.644 746.892 724.937 741.435 724.937Z" fill="#fc814a" fill-rule="nonzero" opacity="1" stroke="none"/>
<path d="M622.961 725.286C615.206 725.286 608.529 722.486 602.928 716.885C597.328 711.284 594.527 704.607 594.527 696.852C594.527 689.098 597.328 682.42 602.928 676.819C608.529 671.219 615.206 668.418 622.961 668.418C630.716 668.418 637.393 671.219 642.994 676.819C648.595 682.42 651.395 689.098 651.395 696.852C651.395 702.022 650.174 706.761 647.733 711.069C645.292 715.377 641.917 718.824 637.609 721.409C633.301 723.993 628.418 725.286 622.961 725.286Z" fill="#fc814a" fill-rule="nonzero" opacity="1" stroke="none"/>
</g>
</g>
</g>
</svg>
